<?xml version="1.0" standalone="no"?>
<!DOCTYPE svg PUBLIC "-//W3C//DTD SVG 1.1//EN" "http://www.w3.org/Graphics/SVG/1.1/DTD/svg11.dtd" >
<svg>
<metadata>
Created by FontForge 20090622 at Tue Jun 16 14:05:43 2015
 By deploy user
Copyright (c) Typographer Mediengestaltung, 2001. All rights reserved.
</metadata>
<defs>
<font id="HeadlineText" horiz-adv-x="425" >
  <font-face 
    font-family="Headline Text"
    font-weight="400"
    font-stretch="normal"
    units-per-em="1000"
    panose-1="2 0 5 3 2 0 0 2 0 4"
    ascent="800"
    descent="-200"
    x-height="492"
    cap-height="701"
    bbox="-195 -267 1426 940"
    underline-thickness="20"
    underline-position="-123"
    unicode-range="U+0005-U+E00F"
  />
<missing-glyph horiz-adv-x="500" 
d="M63 0h375v800h-375v-800zM125 63v675h250v-675h-250z" />
    <glyph glyph-name=".notdef" horiz-adv-x="500" 
d="M63 0h375v800h-375v-800zM125 63v675h250v-675h-250z" />
    <glyph glyph-name="breve" horiz-adv-x="306" 
d="M66 597l11 17l23.5 -14.5t19.5 -10.5q30 -14 42 -12q19 -3 80 34q17 -11 14 -14q-47 -51 -94 -66q-53 9 -96 66z" />
    <glyph glyph-name="dotaccent" horiz-adv-x="212" 
d="M43 620q0 -30 19.5 -52.5t49.5 -22.5q29 0 48.5 22.5t19.5 52.5q0 29 -19.5 51.5t-48.5 22.5t-49 -22t-20 -52z" />
    <glyph glyph-name="ring" horiz-adv-x="335" 
d="M163 664q-29 0 -50 -22t-21 -51q0 -12 6 -24.5t15.5 -22t22.5 -15.5t27 -6q28 0 49 21t21 49q0 29 -20.5 50t-49.5 21zM163 641q20 0 33.5 -13.5t13.5 -34.5q0 -20 -13.5 -33.5t-33.5 -13.5t-33.5 13.5t-13.5 33.5q0 21 13.5 34.5t33.5 13.5z" />
    <glyph glyph-name="hungarumlaut" unicode="&#xa;" horiz-adv-x="259" 
d="M56 519l59 41q39 27 39 52q0 15 -9 28t-24 13q-18 0 -34 -31l-46 -87zM169 519l59 41q39 27 39 52q0 15 -9 28t-23 13q-18 0 -34 -31l-47 -87z" />
    <glyph glyph-name="ogonek" horiz-adv-x="301" 
d="M206 0q-75 -53 -75 -112q0 -36 23.5 -57.5t60.5 -21.5q55 0 108 38l-12 35q-43 -20 -70 -20q-46 0 -46 44q0 40 62 94h-51z" />
    <glyph glyph-name="caron" horiz-adv-x="335" 
d="M293 630l-120 -48l-122 50l-3 -6l127 -115l120 113z" />
    <glyph glyph-name="dotlessi" unicode="&#xd;" horiz-adv-x="269" 
d="M259 89q6 11 -10 11q-5 -3 -17 -17q-8 -8 -21 -8q-32 0 -32 64v237q0 9 19 37q2 4 20 18q17 14 17 15q0 2 -4.5 6t-4.5 7q-20 -17 -34 -17q-12 0 -46 25q-17 13 -25.5 19l-8.5 6q-8 0 -12 -7l-95 -95l16 -9q28 33 32 33q5 0 37 -27v-304q0 -42 62 -81q16 -10 15 -10
q5 0 12 7q10 14 19 25t19 21q40 40 42 44z" />
    <glyph glyph-name="fraction" horiz-adv-x="125" 
d="M-131 -33l444 712h-63l-445 -712h64z" />
    <glyph glyph-name="fi" horiz-adv-x="522" 
d="M233 531q0 -1 -5 5.5t-7 6.5q5 10 9 19.5l8 18.5l-31.5 36.5l-15.5 18.5q-2 2 -14 -8q-14 -9 -15 -12l-1 -143q-2 2 65 2q3 0 0 -34q-2 -33 0 -33l-64 1l-1 -294q16 -43 48 -38q0 -10 -1 -11q-50 -29 -66 -83q-5 -17 -7.5 -38.5t-3.5 -46.5q1 26 1 5v-91q-1 -1 -10 -1
q-10 0 -11 1q5 103 -17 174q-19 63 -65 79q-9 6 0 12q7 -2 27 13q22 15 22 25l1 298q-2 2 -76 -1l-1 63q72 -3 74 0v55l-2 21l-2 20q-3 12 -26 12h-38v18q0 -1 11 -1q58 -2 97 17q68 31 125 88q4 4 27 -28q24 -32 30 -32q1 0 39 32q7 -2 9 -3v-9q-39 -31 -67.5 -64
t-45.5 -70zM512 89q6 11 -10 11q-5 -3 -17 -17q-8 -8 -21 -8q-32 0 -32 64v237q0 9 19 37q2 4 20 18q17 14 17 15q0 2 -4.5 6t-4.5 7q-20 -17 -34 -17q-12 0 -46 25q-17 13 -25.5 19l-8.5 6q-8 0 -12 -7l-95 -95l16 -9q28 33 32 33q5 0 37 -27v-304q0 -42 62 -81
q16 -10 15 -10q5 0 12 7q10 14 19 25t19 21q40 40 42 44zM455 605q-47 24 -69 73q-24 -40 -78 -76q28 -14 42 -30l16 -23l16 -23q31 54 73 79z" />
    <glyph glyph-name="fl" horiz-adv-x="502" 
d="M346 665v9q-2 1 -9 3q-38 -32 -39 -32q-6 0 -30 32q-23 32 -27 28q-57 -57 -125 -88q-39 -19 -97 -17q-11 0 -11 1v-18h38q23 0 26 -12l2 -20l2 -21v-55q-2 -3 -74 0l1 -63q74 3 76 1l-1 -298q0 -10 -22 -25q-20 -15 -27 -13q-9 -6 0 -12q46 -16 65 -79q22 -71 17 -174
q1 -1 11 -1q9 0 10 1v91q0 21 -1 -5q1 25 3.5 46.5t7.5 38.5q16 54 66 83q1 1 1 11q-32 -5 -48 38l1 294l64 -1q-2 0 0 33q3 34 0 34q-67 0 -65 -2l1 143q1 3 15 12q12 10 14 8l47 -55q-6 -14 -10.5 -23.5t-6.5 -14.5q2 0 7 -6.5t5 -5.5q14 30 44 66l27 -16.5t16 -22.5
q1 -34 1.5 -62.5t-0.5 -52.5v-303q0 -26 -14 -51q-19 -30 -50 -40q-7 -4 -7 -10t10 -6q3 0 23 11t32 11q25 0 76 -75q110 99 110 105q0 13 -12 13q-37 -43 -43 -43q-5 0 -42 42v431q0 21 3.5 37t11 29.5t20 25.5t30.5 25q8 7 14 11.5t9 7.5q0 14 -9 14l-37 -21l-37 -21
l-21.5 -12l-21.5 -12q-26 -14 -42 -14q1 0 -35 13q27 31 57 54z" />
    <glyph glyph-name="Lslash" horiz-adv-x="557" 
d="M312 673q-4 16 -13 16q-58 -49 -120 -49q-31 0 -56 21q-6 6 -18 22q-14 18 -16 18q-3 0 -37 -21l-35 -21.5t-22 -12.5q-42 -25 -55 -36l9 -14q8 1 19 12q8 8 22 6q16 -2 45 -18q25 -15 60 -15q17 0 56 13q17 5 27.5 9.5t14.5 6.5l66.5 35.5zM235 299v51q0 31 1 73v124
q0 60 46 60q6 0 45 -17v-235zM57 192v-27l83 50v-89q0 -26 -22 -52l-20 -19.5l-14 -13.5l6 -8q87 47 133 116q12 18 12 59v64l92 56v-215q-46 37 -52 37l-10 -9l-30 -27q-41 -36 -54 -45l-61.5 -46.5t-43.5 -35.5q2 -2 3 -5.5t4 -3.5q-1 0 49 33q49 33 84 33t74 -18.5
t65 -44.5q66 66 75 72q61 46 102 81l-10 12q-86 -65 -115 -65q-32 0 -64 20v237l79 47v26l-79 -47v219l52 -32q58 49 90 60l23.5 6.5t16.5 3.5v7q-10 7 -15 7q-10 1 -17.5 2t-13.5 2q-28 4 -61 24q-47 26 -45 26q-4 0 -35 -22l-29.5 -20t-12.5 -9q-79 -48 -146.5 -81
t-124.5 -53q0 -3 1 -6.5t1 -4.5h9q66 26 77 26q18 0 23 -27q1 -10 1.5 -19t1.5 -18l1 -213z" />
    <glyph glyph-name="lslash" horiz-adv-x="241" 
d="M-3 192v-27l64 40v-65q0 -26 -14 -51q-19 -30 -50 -40q-7 -4 -7 -10t10 -6q3 0 23 11t32 11q25 0 76 -75q110 99 110 105q0 13 -12 13q-37 -43 -43 -43q-5 0 -42 42v161l79 50v26l-79 -49v243q0 21 3.5 37t11 29.5t20 25.5t30.5 25q8 7 14 11.5t9 7.5q0 14 -9 14l-37 -21
l-37 -21l-21.5 -12l-21.5 -12q-26 -14 -42 -14q-3 0 -20 7q-15 7 -20 7q-8 0 -8 -13l5 -3.5t16 -10.5q22 -14 23 -27q1 -34 1.5 -62.5t-0.5 -52.5v-211z" />
    <glyph glyph-name="Zcaron" horiz-adv-x="510" 
d="M468 515q0 163 -256 163q-19 0 -55 -6l-30.5 -3.5t-22.5 -1.5q-43 0 -71 31l-7 -8q32 -58 51 -95.5t25 -54.5q46 40 81 37l13 -1v-220q-79 14 -104 34q-10 -76 -49 -108q8 0 5 -5q41 37 148 58v-217q-47 20 -63 56q-14 -24 -92 -101q-71 -70 -76 -86l11 -9q48 70 119 72
q68 2 153 -70q23 29 68 54q53 29 94 29q46 0 46 35v152q0 48 -39 74l-78 39q62 25 92 55q37 37 37 97zM363 519l-151 -76v136q10 1 17.5 1.5t12.5 0.5q109 0 121 -62zM372 473q0 -115 -130 -115h-30l-1 62l155 85q6 -6 6 -32zM359 266l-147 -78v150h20q58 0 82 -10
q38 -17 45 -62zM358 253l1 -161q0 -28 -34 -28t-113 45l-1 60zM360 838l-120 -48l-122 50l-3 -6l127 -110l120 108z" />
    <glyph glyph-name="zcaron" horiz-adv-x="263" 
d="M254 433l-2 11q-1 0 -6 -2l-11 -4.5t-12.5 -4.5t-10.5 -2q-24 0 -58 32q-32 32 -34 32q-3 0 -50 -40q-53 -46 -56 -47q4 -9 9 -12q28 22 31 22q5 0 28 -20q25 -20 26 -25q3 -11 3 -33q0 -60 -10 -76q-18 -33 -88 -33l-1 -14q11 1 20 1h16q45 0 54 -20q6 -12 6 -79
q0 -57 -8 -76q-4 -11 -27 -46q-22 -36 -26 -48q-4 -14 -5.5 -24l-2.5 -17q0 -51 31 -82q28 -28 68 -28q72 0 89 84q-25 64 -59 64q-59 0 -59 -50q0 -16 14 -27t30 -11q25 0 29 -7q0 -2 1 -3v-3q0 -13 -14 -22.5t-27 -9.5q-34 0 -59 27q-25 26 -25 62q0 59 61 108
q55 46 117 51l-2 9q-7 2 -13 3.5t-12 3.5q-15 4 -15 18v59q0 46 -5 58q-9 18 -54 18q-23 0 -26 3l39 20l38 21q11 11 11 88q0 34 12 46q1 1 12 7.5t33 17.5zM250 658l-120 -48l-122 50l-3 -6l127 -110l120 108z" />
    <glyph glyph-name="space" unicode=" " horiz-adv-x="300" 
 />
    <glyph glyph-name="exclam" unicode="!" horiz-adv-x="262" 
d="M103 188h17q10 189 27 345q0 13 0.5 26.5t2.5 26t7.5 23t15.5 16.5l22.5 13.5t17.5 9.5l-12 14l-37.5 -17.5l-17.5 -8.5q-39 -21 -81 -21q-2 0 -20 3q-16 4 -21 4q-8 0 -8 -13q0 -3 16 -16q15 -12 20 -21q13 -18 22 -109zM111 125q-16 -43 -66 -67q46 -27 65 -66
q22 42 66 68q-48 9 -65 65z" />
    <glyph glyph-name="quotedbl" unicode="&#x22;" horiz-adv-x="293" 
d="M88 417l11.5 69.5t7.5 43.5q7 35 10 62.5t3 47.5q0 48 -41 48q-40 0 -40 -46q0 -34 13 -111l10 -54.5l10 -59.5h16zM218 417q16 88 24 143.5t8 81.5q0 46 -41 46q-39 0 -39 -48q0 -35 12 -110q4 -25 9 -53l11 -60h16z" />
    <glyph glyph-name="numbersign" unicode="#" horiz-adv-x="466" 
d="M465 405l11 56h-111l41 215h-49l-41 -215h-109l41 215h-49l-41 -215h-122l-11 -56h123l-27 -141h-114l-11 -56h115l-40 -215h48l41 215h110l-41 -215h49l41 215h117l10 56h-117l26 141h110zM196 405h111l-26 -141h-112z" />
    <glyph glyph-name="dollar" unicode="$" horiz-adv-x="499" 
d="M248 0v86q32 31 51.5 47.5l24.5 20.5q40 28 99 28q1 0 6.5 -0.5t10.5 -0.5q6 0 11 -0.5t6 -0.5q3 0 6 13q-14 5 -27.5 7t-24.5 3q-3 1 -9.5 7.5t-6.5 9.5v122q0 3 3 9q5 23 31 36q27 15 27 21q0 5 -3 5h-11q-36 -27 -52 -27q-11 0 -18 4t-12 6.5l-7 3.5q-44 16 -48 27
l144 161q0 5 -2 7h-14q-24 -27 -34 -34q-17 -13 -45 -13q-48 0 -73 15q-27 16 -43 30v84h-25v-88l-66 -44t-35 -20q-24 -10 -54 -13q-6 -1 -20 -2t-37 -2q-5 -3 -4 -7q1 -2 2 -5t2 -5q3 -1 28 0q18 1 26.5 -0.5t11.5 -5.5t2.5 -9.5t0.5 -11.5q-1 -7 -1.5 -11t-0.5 -6
q0 -81 -2 -91q-6 -24 -44 -42q-4 -2 -7.5 -4.5t-5.5 -5.5v-7q8 -7 12 -7q3 0 23 17t30 17q14 0 63 -28q12 -7 16 -15l-154 -176q4 -9 9 -9q3 0 32 23t56 23q71 0 127 -53v-89q25 -1 25 0zM349 502l-59 -69q-62 -72 -72 -72q-11 0 -54 30v90q0 55 22 55q1 0 15 -14
q13 -12 25 -17q30 -12 61 -12q30 0 62 9zM305 210q0 -47 -12 -47q3 0 -43 24q-47 24 -83 24q-27 0 -48 -8h-7l130 148l27.5 -13.5l27.5 -13.5q8 -6 8 -41v-73z" />
    <glyph glyph-name="percent" unicode="%" horiz-adv-x="695" 
d="M289 607l-3 6q-3 0 -28 -13l-49.5 38.5t-13.5 10.5q-14 -13 -27.5 -21.5t-26.5 -13.5q-39 -15 -85 -15q2 0 -6 1.5t-25 3.5q1 -3 2.5 -6t2.5 -6q8 -21 8 -42l-1 -217q-17 -26 -33 -38q-4 -7 5 -7q36 0 60 -18t23 -18l40 24.5t18 9.5q40 11 111 5q-11 20 -11 60v198
q0 22 14 36q0 1 12 10q13 10 13 12zM181 558l-1 -246q-24 -9 -27 -9t-47 34v248q27 13 38 13q3 0 37 -40zM659 347l-3 6q-3 0 -28 -13l-49.5 38.5t-13.5 10.5q-14 -13 -27.5 -21.5t-26.5 -13.5q-39 -15 -92 -15l-10 2q-11 3 -14 3q-5 -15 -5 -12q18 -17 18 -42l-1 -217
q-17 -26 -33 -38q-5 -5 8 -5q38 0 58 -18q22 -17 18 -17q30 17 46.5 25l18.5 9q30 9 108 2q-11 20 -11 60v198q0 22 14 36q0 1 12 10q13 10 13 12zM549 298l1 -240q-24 -15 -27 -15t-47 34v248q27 13 38 13q4 0 35 -40zM563 622q1 1 -14 9q-15 9 -17 6l-129.5 -181.5
l-91.5 -131.5l-226 -320l31 -15l226 320l155 220.5z" />
    <glyph glyph-name="ampersand" unicode="&#x26;" horiz-adv-x="584" 
d="M160 -21l146 162q37 -79 57 -104q45 -58 99 -58q50 0 88 42q35 39 39 91q-28 -43 -78 -43q-48 0 -88 54q-20 26 -52 93l53 63q16 -37 50 -37q40 0 73 42q28 35 35 79q-17 -30 -42 -30q-33 0 -45 56l-131 -159q-17 45 -35.5 85.5t-37.5 75.5l136 123q-29 34 -59 76t-61 94
l-222 -188q65 -37 127 -159l-193 -206q30 -23 75 -72l23.5 -28zM215 61q-53 71 -116 125l121 138q51 -113 78 -168zM283 405q-37 73 -108 142l72 66l103 -146z" />
    <glyph glyph-name="quotesingle" unicode="'" horiz-adv-x="170" 
d="M91 403l12 69.5t8 49.5q7 41 10.5 69.5t3.5 45.5q0 48 -42 48q-43 0 -43 -49q0 -18 3.5 -46.5t10.5 -67.5l21 -119h16z" />
    <glyph glyph-name="parenleft" unicode="(" horiz-adv-x="241" 
d="M6 328q0 96 52 219q52 127 122 189l10 -6q-111 -221 -111 -405q0 -109 29 -220q16 -60 38 -110t51 -92l-10 -7q-181 148 -181 432z" />
    <glyph glyph-name="parenright" unicode=")" horiz-adv-x="244" 
d="M186 328q0 96 -52 219q-52 127 -122 189l-10 -6q110 -223 110 -405q0 -254 -117 -422l10 -7q181 148 181 432z" />
    <glyph glyph-name="asterisk" unicode="*" horiz-adv-x="442" 
d="M180 475q0 -40 -18 -85q-17 -46 -17 -54q0 -20 13.5 -35.5t33.5 -15.5t33 16t13 36q0 12 -17 54t-17 66v18q34 -20 55 -44l23.5 -28t14.5 -16q20 -17 40 -17q43 0 43 43q0 32 -33 46q-9 4 -62 10q-25 3 -68 27q39 24 77 28q42 4 57 11q29 14 29 45q0 19 -13 31.5
t-32 12.5q-24 0 -44 -20q-36 -53 -55 -66q-10 -7 -17.5 -11.5l-14.5 -8.5q0 50 15 82q20 45 20 56q0 21 -13.5 36.5t-33.5 15.5t-33.5 -15.5t-13.5 -35.5q0 -12 17 -54q18 -41 18 -67v-18q-28 16 -50 43l-28 33.5t-12 13.5q-16 16 -40 16q-19 0 -32 -12.5t-13 -31.5
q0 -35 33 -47q11 -5 61 -9q18 -2 33 -9t36 -19q-43 -25 -79 -28q-84 -6 -84 -55q0 -19 13 -32t32 -13q13 0 23.5 6.5t20 16t18 22t17.5 24.5q15 18 51 38z" />
    <glyph glyph-name="plus" unicode="+" horiz-adv-x="478" 
d="M241 255h173v62h-173v177h-62v-177h-173v-62h173v-177h62v177z" />
    <glyph glyph-name="comma" unicode="," horiz-adv-x="190" 
d="M169 70q-31 -20 -66 -80q-36 -61 -37 -95h-16q-2 69 27 116q-22 32 -69 55q60 38 85 84q27 -55 76 -80z" />
    <glyph glyph-name="hyphen" unicode="-" horiz-adv-x="308" 
d="M36 253q0 -1 -23 -49h222l25 49q-224 3 -224 0z" />
    <glyph glyph-name="period" unicode="." horiz-adv-x="214" 
d="M109 -28q38 63 89 94q-55 27 -85 88q-29 -53 -93 -93q38 -18 53 -36l18 -26z" />
    <glyph glyph-name="slash" unicode="/" horiz-adv-x="379" 
d="M388 679l-52 3l-331 -678l54 -1z" />
    <glyph glyph-name="zero" unicode="0" horiz-adv-x="452" 
d="M453 583l-4 10q-5 0 -44 -19q-107 78 -99 70q-45 -37 -84 -50q-63 -22 -134 -22q-3 0 -22 3q-10 2 -16 3t-9 2q0 -2 10 -23.5t10 -54.5l-1 -400q-2 -12 -21 -27q-14 -11 -21.5 -18t-9.5 -9q-6 -10 2 -10q3 0 12.5 3t11.5 3q21 0 54 -18q17 -8 29.5 -17.5t20.5 -19.5
q-2 1 30 18q35 20 72 28q75 15 169 7q-17 28 -17 86v373q0 32 22 51q0 1 19 14q20 14 20 17zM300 513l2 -446l-44 -6t-17 -2q-5 0 -90 49v444q5 1 14.5 3.5t25.5 7.5q27 8 36 8q6 0 73 -58z" />
    <glyph glyph-name="one" unicode="1" horiz-adv-x="310" 
d="M144 653q-5 -37 -57 -95q-17 -19 -35 -37l-36 -37l8 -19l77 71v-434l-25 -14.5l-19 -11.5q-4 -3 -10.5 -9.5t-14.5 -17.5q-16 -20 -16 -28q0 -7 10 -10l24 9q7 3 25 3q31 0 66 -20t32 -20l67 53q41 33 41 32q0 9 -10 13q-4 -2 -11.5 -9.5t-10.5 -7.5q4 0 4 2q0 7 -21 21
t-35 12v405q0 19 2 27q8 24 41 32q4 1 2 4q-5 7 -5 8q-18 5 -24 5q-29 20 -40 40l-8 16l-8 16q-7 3 -13 1z" />
    <glyph glyph-name="two" unicode="2" horiz-adv-x="470" 
d="M433 93q-5 10 -15 15l-18 -26q-23 16 -63 30q-54 17 -104 17q-63 0 -107 -23q-35 -19 -84 -71q-10 1 -10 23q0 122 88 180q76 51 202 51q23 0 73 -9l-12 44v204q-2 22 18 42q-115 0 -207 83l-36 -21l-37 -21q-17 -10 -33 -10q6 0 -43 3q4 -32 38 -61q34 -28 67 -28
q43 0 81 25q40 25 39 25q6 0 20 -11v-195q0 -26 -72 -45q-94 -26 -135 -61q-72 -63 -72 -193q0 -69 20 -69q109 38 145 38q73 0 174 -45q10 4 42 50q40 57 41 59z" />
    <glyph glyph-name="three" unicode="3" horiz-adv-x="478" 
d="M426 291l-5 12q-18 -8 -50 -8q-79 0 -99 32q28 27 102 24l48 -2l2 5q-16 23 -19 65v69q0 13 8 40q9 27 9 36q0 7 -1 7q-8 -1 -15 -1h-14q-54 0 -99 19q-14 5 -30 14t-35 21q-28 19 -37 19q-2 0 -31 -23q-26 -22 -58 -22q-3 0 -12.5 1.5t-26.5 3.5q17 -38 53.5 -62
t77.5 -24q43 0 93 47q9 -4 16.5 -7t12.5 -6v-156q0 -2 -5 -11.5t-5 -10.5l-96 -41l-19 3q-1 -1 -1 -60l32 20t24 14q5 -5 13 -10t19 -10l19 -7.5l19 -7.5q-3 -9 -3 -213l-38 -8l-25.5 18l-25.5 19q-29 18 -58 18q-39 0 -91 -30q-58 -31 -58 -66l-4 -15q2 1 10 4t22 9
q19 8 33 8q46 0 111 -38q71 41 109 50q36 10 126 10l-15 39v129q0 54 17 83z" />
    <glyph glyph-name="four" unicode="4" horiz-adv-x="499" 
d="M439 125q-1 5 -1 25v56h-8q-13 -13 -19 -15q3 1 -16 1h-38v292q0 13 20 42l15 21.5l5 7.5q-26 22 -47.5 42l-39.5 38l-55.5 -72t-35.5 -43l-71 -76.5l-46 -50.5q-94 -98 -94 -101v-143h228h22v-56q0 -28 -44 -43q-19 -6 -31.5 -24.5t-12.5 -30.5q0 -5 3 -6q36 12 62 12
q30 0 55 -19t36 -19l67 53q41 33 41 32q0 9 -10 13q-2 -1 -6 -4.5t-8.5 -7t-9 -6t-5.5 -2.5q-8 0 -23 17q-15 18 -15 32v53h38q14 0 25 -9t10 -9q1 1 9 0zM258 519q2 -131 0 -332h-166l1 146q175 196 165 186z" />
    <glyph glyph-name="five" unicode="5" horiz-adv-x="453" 
d="M426 364l-8 12q-30 -33 -44 -35l-98 78l-37 -25l-36 -25q-63 -44 -117 -45q-1 2 -1 5t-1 6q1 9 1.5 13t0.5 2v169h265l28.5 55.5l24.5 49.5h-341v-300q-31 -19 -31 -41q0 -21 21 -21q4 0 7 0.5t7 1.5q11 17 14 25q3 4 55 25q51 22 61 22q3 0 71 -50l-1 -236l-32 -9
q-46 42 -116 61q-113 -32 -130 -103q5 -4 8 -4q19 19 48 19q34 0 73 -27q34 -23 35 -22q39 42 102 59q34 8 51 8q16 0 36 -6q14 -4 25 -6.5t19 -4.5l6 11l-12.5 19t-10.5 13v239q-4 15 57 67z" />
    <glyph glyph-name="six" unicode="6" horiz-adv-x="441" 
d="M427 364q4 13 0 18q-4 -1 -15 -6.5t-14 -5.5q-26 0 -55 32q-26 28 -27 27q-25 -22 -52 -40.5t-57 -32.5q-26 -14 -51 -21v228q34 18 40 18q-2 0 32 -28q36 -27 68 -27q55 0 93 57q11 17 11 22t-3 5q-5 -4 -52 -4q-15 0 -37 25t-21 25q-5 -2 -47 -30q-31 -20 -53 -26
l-39 -12t-39 -11q-50 -15 -81 -13q22 -23 30 -42q4 -13 5 -22v-386q-7 -40 -51 -67q-1 0 -1 -1t4 -2.5t4 -2.5l19.5 3.5t15.5 1.5q17 0 59 -13q21 -6 40 -25q10 -10 15 -14.5l5 -4.5q1 0 30 20q29 21 43 26l46 18t48 8q7 0 27 -4q21 -3 26 -2q-16 31 -16 50v204q40 26 50 55
zM296 327v-248q-52 -19 -53 -18q-3 14 -38 32q-28 14 -49 21q-2 6 0 192q99 47 102 47q4 0 38 -26z" />
    <glyph glyph-name="seven" unicode="7" horiz-adv-x="421" 
d="M416 639q0 10 -3 13q-13 -7 -26 -13l-27 -13q-51 -23 -120 -23q-79 0 -137 41l-90 -104l12 -15l19 20q64 -32 125 -32q48 0 101 25q38 18 80 47q34 25 33 25q7 0 4 -7q-20 -41 -55 -75l-119 -117t-69 -75q-85 -106 -85 -198q0 -53 29 -97q33 -49 85 -49q16 0 15 -1l57 88
l19 29q0 3 -6 6l-6 3q-20 -20 -31 -20q-26 0 -40 32q-10 23 -10 54q0 134 170 316q47 50 59 82q16 42 16 58z" />
    <glyph glyph-name="eight" unicode="8" horiz-adv-x="418" 
d="M48 96q0 -26 -50 -58q79 3 140 -49q107 66 186 65l68 -1q-19 21 -21 26q-2 6 -2 26v140q3 23 20 52q-29 -10 -60 -10q-62 0 -99 37q31 33 89 31l55 -2q-19 15 -21 26q1 -3 1 23v126q2 17 25 39q25 22 25 25q0 8 -6 8q-10 -10 -23 -12q5 1 -1 1h-23q-29 0 -49 23l-10.5 16
l-10.5 16q2 -2 -77 -38q-88 -38 -133 -38q1 0 -47 3l24 -38v-137l-14 -39v-4l17 6q15 5 31 5q53 0 85 -38q-25 -31 -82 -31q4 0 -13.5 3t-55.5 8q32 -35 32 -53v-157zM264 521v-148l-64 -38l-62 47v175q58 20 65 20q4 0 29 -25q29 -29 32 -31zM281 76l-52 -20l-82 46v172
l56 32l78 -41v-189z" />
    <glyph glyph-name="nine" unicode="9" horiz-adv-x="453" 
d="M377 507q0 29 26 55l27 21q-12 3 -30 3h-3q-23 0 -37 8q-21 13 -46 54q-28 -19 -62.5 -34t-76.5 -27q-85 -23 -147 -19l21 -36q8 -16 8 -39v-169l-2 -15.5l-2 -15.5q-1 -3 -40 -39q3 1 38 1q47 0 100 -57l74 53.5l56 40.5v-222q-22 -14 -29 -14q-2 0 -19 14
q-19 17 -40 27q-33 14 -69 14q-90 0 -119 -92l5 -7q38 26 67 26q47 0 102 -49q77 65 156 68q10 1 26.5 -0.5l39.5 -3.5q-24 31 -24 58v396zM278 525q1 -75 1.5 -128t0.5 -86q-62 -41 -72 -43q-2 1 -36 24q-28 16 -28 23v239q26 8 44.5 13t28.5 7q36 -26 61 -49z" />
    <glyph glyph-name="colon" unicode=":" horiz-adv-x="253" 
d="M119 232q38 63 89 94q-55 27 -85 88q-29 -53 -93 -93q38 -18 53 -36l18 -26zM119 -28q38 63 89 94q-55 27 -85 88q-29 -53 -93 -93q38 -18 53 -36l18 -26z" />
    <glyph glyph-name="semicolon" unicode=";" horiz-adv-x="253" 
d="M119 232q38 63 89 94q-55 27 -85 88q-29 -53 -93 -93q38 -18 53 -36l18 -26zM106 -101q2 36 34 91q35 56 68 76q-55 27 -85 88q-29 -53 -93 -93q52 -24 69 -49q-26 -48 -22 -113h29z" />
    <glyph glyph-name="less" unicode="&#x3c;" horiz-adv-x="409" 
d="M112 297l243 190l-42 38q-242 -186 -288 -228l285 -216l42 38z" />
    <glyph glyph-name="equal" unicode="=" horiz-adv-x="426" 
d="M3 228v-49h383v49h-383zM3 358v-49h383v49h-383z" />
    <glyph glyph-name="greater" unicode="&#x3e;" horiz-adv-x="412" 
d="M57 81l286 216l-289 228l-42 -38l243 -190l-240 -178z" />
    <glyph glyph-name="question" unicode="?" horiz-adv-x="414" 
d="M222 65q-46 22 -69 73q-25 -41 -78 -76q30 -14 44 -32q8 -11 15 -22t15 -22q16 26 34 46t39 33zM136 177l34 3v73q3 0 44 25q34 21 68 19h35q19 -3 35 -18q1 -1 2.5 3.5t2.5 4.5q-15 37 -15 41q-3 148 0 172v33q4 29 22 28l-3 9q-69 0 -123 23q-29 13 -51.5 28.5
t-39.5 32.5q-2 2 -5 2q-2 0 -27 -25t-55 -26q-9 -1 -23 -1h-32q5 -30 38 -55q35 -26 66 -26q46 0 83 20q36 21 34 21q11 0 17.5 -12.5t6.5 -23.5l-1 -191q-101 -51 -127 -56z" />
    <glyph glyph-name="at" unicode="@" horiz-adv-x="921" 
d="M570 452l-16 -58q-12 76 -70 76q-27 0 -50 -13q-50 -28 -94 -75q-108 -119 -108 -275q0 -44 18 -72q23 -35 63 -35q53 0 107 62q22 25 62 92q-11 -44 -11 -70q0 -42 28 -63t71 -21q76 0 140 40q72 43 115 134q38 84 38 174q0 86 -41 165q-44 83 -130 126q-81 38 -180 38
q-132 0 -242 -59q-109 -58 -171 -170q-59 -107 -59 -235q0 -188 122 -308q121 -121 310 -121q152 0 262.5 77t168.5 220h-30q-47 -125 -156 -197q-110 -72 -244 -72q-170 0 -276 108q-106 106 -106 276q0 123 57 230q57 108 155 164t219 56q139 0 225 -85q88 -85 88 -223
q0 -80 -35 -153q-26 -54 -72 -97q-56 -53 -104 -53q-16 0 -27.5 11.5t-11.5 26.5q0 24 15 77l89 307zM496 435q35 0 35 -63q0 -62 -32 -140q-32 -77 -75 -120q-25 -23 -37 -23q-29 0 -29 45q0 46 24 120q22 67 48 114q37 67 66 67z" />
    <glyph glyph-name="A" unicode="A" horiz-adv-x="694" 
d="M680 68l-6 15q-17 -14 -34 -14q-12 0 -22 6t-17.5 15.5t-11.5 21t-4 22.5v300q0 79 64 97q3 1 -1 10q-128 65 -186 154l-72 -39l-48 -25l-38.5 -19l-27.5 -13l-141 -60t-100 -40v-10q2 -2 8 -2q3 0 33 11t38 11q10 0 18 -8t8 -17v-344q0 -24 -30 -43q-36 -25 -41 -31
l8 -6q5 2 12.5 6.5t18.5 9.5t18.5 9.5t12.5 6.5q27 15 60 40q41 33 41 49v129h91v-223l-85 56q-34 -37 -127 -84q-80 -41 -80 -47q0 -4 10 -14l38 24q37 25 73 25q24 0 53.5 -15.5t46.5 -37.5l45 27q31 19 48 26l32 12l32 12q20 8 36 16.5t29 18.5q0 -6 8 -40q3 -12 46 -47
q9 -8 19.5 -16t23.5 -17zM481 529l-127 -68q1 58 1 96v57q0 4 10 9t13 5zM484 511v-115h-129l-1 44zM333 608l1 -212h-94q2 98 0 115q-1 60 93 97zM482 310l1 -89l-132 -58v149zM483 203l-1 -69q-21 -20 -30 -27q-41 -29 -100 -29q-1 4 0 65zM362 673q-4 16 -13 16
q-58 -49 -120 -49q-31 0 -56 21q-6 6 -18 22q-14 18 -16 18q-3 0 -37 -21l-35 -21.5t-22 -12.5q-42 -25 -55 -36l9 -14q8 1 19 12q8 8 22 6q16 -2 45 -18q25 -15 60 -15q17 0 56 13q17 5 27.5 9.5t14.5 6.5l66.5 35.5z" />
    <glyph glyph-name="B" unicode="B" horiz-adv-x="715" 
d="M384 -14h3q63 59 132 92q61 28 105 80q52 58 54 120q5 143 -156 191l-20 6l131 68q-59 34 -90 78q-2 3 -14 23l-34 57l-182.5 -82.5l-76.5 -33.5l-109 -39t-78 -26l8 -18q51 24 69 24q31 0 31 -47v-94v-32q0 -23 1 -65q1 -59 0 -96q-2 -38 -6 -54q-8 -25 -28 -46
q-32 -24 -46 -30q-2 -12 10 -12q11 0 78 47q27 21 53 48q32 37 34 59q2 56 2 94t-1 60q79 37 108 44l1 -277q-22 20 -39 32.5t-28 19.5q-66 -69 -138 -109l-97 -55q5 -6 8.5 -9.5l5.5 -5.5q95 71 153 71q46 0 84 -22q13 -7 25 -16.5t25 -22.5q19 -22 22 -22zM537 517
l-153 -80v191q10 19 21 19q2 0 4 -2q95 -119 128 -128zM596 284l-127 -53v57l52.5 21t46.5 20q15 -12 17 -17q7 -15 11 -28zM366 622q3 -181 -1 -188q-3 -7 -51 -28l-34.5 -15t-25.5 -10q5 15 0 188q91 54 111 54zM556 345l-175 -73v133q19 3 39 3q49 0 77 -16q14 -8 59 -47
zM600 263q8 0 8 -33q0 -53 -48 -99q-49 -47 -100 -47q-50 0 -79 29v62l58 24l58 25q94 39 103 39zM446 281v-62l-65 -26v61zM352 673q-4 16 -13 16q-58 -49 -120 -49q-31 0 -56 21q-6 6 -18 22q-14 18 -16 18q-3 0 -37 -21l-35 -21.5t-22 -12.5q-42 -25 -55 -36l9 -14
q8 1 19 12q8 8 22 6q16 -2 45 -18q25 -15 60 -15q17 0 56 13q17 5 27.5 9.5t14.5 6.5l66.5 35.5z" />
    <glyph glyph-name="C" unicode="C" horiz-adv-x="715" 
d="M705 183v6q0 5 -7 6q-27 -22 -53 -41q-36 -28 -56 -35q-39 -13 -71 -21v469q10 -2 17 -9.5t10 -7.5q4 0 30 19q27 20 31 21q17 8 37 14.5t42 10.5v7q-37 9 -60 15.5t-34 10.5q-50 20 -80 53q0 1 -1 1q-5 0 -52 -28q-26 -15 -41.5 -23l-19.5 -10q-114 -44 -171 -63
q1 -4 1.5 -7t1.5 -7l59 20q30 -2 30 -36v-370q-51 -35 -53 -33q-39 19 -76 97q-33 72 -33 118q0 208 175 334q3 11 2 12q0 2 -10 1q-123 -41 -195 -151q-69 -107 -69 -240q0 -136 100 -233t236 -97h18q11 0 25 -1t25 -1.5t18 -0.5q36 0 60 -18zM494 581v-483q-5 -1 -17 -1.5
t-31 0.5q-49 1 -89.5 10.5t-74.5 26.5q10 12 67 34t65 30q1 26 1.5 65.5t0.5 93.5v133q-1 45 -1 77v56q26 -1 79 -42z" />
    <glyph glyph-name="D" unicode="D" horiz-adv-x="764" 
d="M705 370q0 128 -104 221q-101 90 -230 90h-129q1 0 -53 12q-28 -42 -81 -94l-45 -43l-45 -43q-3 -9 6 -9q87 49 141 61q56 13 152 13q88 0 101 -19q-50 -24 -136 -51l-141 -42q-8 -5 1 -17q40 12 46 12q25 1 37 -15v-286q-1 -7 -7 -7q2 0 -29 16l-33 -45q-15 -20 -46 -41
l-105 -70q0 -6 4 -10l47 22q30 16 63 24q21 6 39 4q10 -2 19.5 -3.5t19.5 -3.5q30 -4 98 -42q65 -35 68 -35q36 54 133 111q107 64 142 102q67 71 67 188zM602 411l-92 -39t-73 -29q-2 138 0 200q0 9 12 9q31 0 86 -52q57 -52 67 -89zM616 331l-73 -32l-1 65q39 18 63 27
q4 -17 6.5 -32zM499 349q1 -46 0 -65q-20 -8 -35.5 -15l-26.5 -12v69q25 8 40 14zM622 291q-2 -15 -3.5 -30t-3.5 -30q-13 -58 -63 -97q-11 -8 -27 -17.5t-36 -19.5q-41 -20 -53 -18v151q13 8 37.5 19l59.5 27q74 34 85 34q3 0 3 -9t1 -10zM410 531l1 -455q-129 35 -174 67
q9 11 49 24q8 2 18 5l21 6v294q12 37 40 46q39 13 45 13z" />
    <glyph glyph-name="E" unicode="E" horiz-adv-x="743" 
d="M715 190q0 -1 -8 7q-25 -25 -110 -60q-17 -7 -37 -14l-42 -15v208l117.5 65l55.5 30q0 9 -8 12q-55 -35 -78 -35q-19 0 -41 30q-32 40 -34 43l-109 -64v235q7 5 11.5 8.5l8.5 6.5q100 -83 102 -83q-2 0 57 33q62 20 97 24v9q-94 28 -160 93q-3 2 -34 -17q-9 -5 -18 -11
t-19 -11q-24 -13 -53 -25.5l-64 -26.5q-2 -1 -32 -12l-88 -32l3 -12q13 -1 40 8q26 10 37 10q17 0 17 -34v-284q0 -33 -9 -49q-16 -34 -72 -55q-2 0 -3 1q-80 63 -80 204q0 98 20 150q28 72 112 139q29 19 41 26q5 2 0 8t-9 6q-11 0 -56 -30q-54 -36 -92.5 -72t-61.5 -73
q-55 -85 -55 -208q0 -154 116 -244q103 -82 259 -82q73 0 85 -4l16.5 -9.5t12.5 -8.5l89 113q76 97 76 102zM505 323q0 -2 -2 -5t-2 -5v-104q-1 -35 -1 -61v-43q1 1 -76 1q-36 0 -88 15q-62 18 -79 41q42 28 108 53l28.5 10t30.5 10v74q-1 25 -1 43v30q14 8 20 8
q12 0 37 -28q25 -26 25 -39z" />
    <glyph glyph-name="F" unicode="F" horiz-adv-x="549" 
d="M454 426h-80q2 17 1.5 60.5t-2.5 115.5l27 20q54 -35 54 -48v-148zM633 625l-4 12q-1 1 -13 -1q-7 -1 -10 -1.5t-4 -0.5q-40 0 -68 18q-8 5 -22 17t-34 31q-191 -119 -336 -174q0 -4 10 -21l123 53v-138h-114q-2 -59 0 -88h114v-243l-23 -15q-111 73 -121 97l-194 -150
l15 -14q40 49 86 49q43 0 72 -18q18 -10 36 -34q14 -18 20 -20q77 68 133 99l140 67l-3 12q-8 -1 -14 -1.5t-11 -0.5q-35 0 -35 41v125q7 1 78 0v-346l19 -3v587l19 -11.5l6 -3.5l78.5 45.5t56.5 30.5zM382 673q-4 16 -13 16q-58 -49 -120 -49q-31 0 -56 21q-6 6 -18 22
q-14 18 -16 18q-3 0 -37 -21l-35 -21.5t-22 -12.5q-42 -25 -55 -36l9 -14q8 1 19 12q8 8 22 6q16 -2 45 -18q25 -15 60 -15q17 0 56 13q17 5 27.5 9.5t14.5 6.5l66.5 35.5z" />
    <glyph glyph-name="G" unicode="G" horiz-adv-x="804" 
d="M753 263q0 51 -36 122q-47 87 -54 115l-81 -55t-59 -37v185l39 -40l72 43l67 22v16q-26 -6 -44 -6q-31 0 -56 22l-27.5 27l-27.5 27l-324 -153l-3 3q23 47 101 103l24 15l-5 16q-14 -5 -22.5 -9.5t-13.5 -6.5q-122 -69 -174 -132q-71 -85 -71 -207q0 -161 112 -264
q108 -99 270 -99q118 0 216 87q97 88 97 206zM502 613v-216q-58 -39 -79 -50v272q13 13 36 16q24 5 32 0q11 -5 11 -22zM625 318l-59.5 -33l-42.5 -23v120q6 6 24 18q19 12 24 12q5 -7 8.5 -14l7.5 -15l21.5 -38zM652 238l-63 -33q-2 45 0 72l42 24q12 -38 21 -63zM555 262
v-71l-32 -17v67zM655 220q0 -17 -6 -42q-10 -39 -10 -42q-5 -23 -15.5 -44t-26 -39t-34.5 -31.5t-40 -20.5v149zM323 575v-434q-25 -12 -45 -23l-37 -21q-24 19 -45 106q-19 73 -19 117v74q0 67 37 151l11 -10zM502 -2q-16 -5 -30.5 -7t-28.5 -3q-50 -5 -108 22
q-60 29 -86 70l56.5 29l41.5 20l79 39v158q54 29 76 44v-372z" />
    <glyph glyph-name="H" unicode="H" horiz-adv-x="674" 
d="M637 258q0 61 -21 102q-13 24 -49 63q-35 39 -52 75q-1 1 -87 -31l-70.5 -26.5t-31.5 -11.5q-1 1 0 94l1 93q23 -3 54 -25q28 -20 45 -42l14.5 7.5l43.5 21.5t50 23t32 11v13q-43 -5 -84 16q-13 7 -31.5 19t-41.5 30q-253 -160 -384 -176l2 -18q35 9 61 15l44 10v-346
q-10 -101 -86 -121l2 -12q15 0 99 54q84 55 84 112q3 3 1 168l76 27l1 -320q-57 37 -67 56q-70 -75 -215 -136v-12q1 -4 8 -3q68 47 115 47q38 0 61 -12q7 -4 18.5 -13t28.5 -25l106.5 71.5t76.5 46.5q2 6 1 8q-2 8 -12 7q-45 -40 -103 -38q-2 11 0 94l75 34.5l133 59.5
q9 -27 9 -59q0 -71 -65 -133l-59 -50l-60 -50q-63 -61 -62 -128q2 -50 26 -80q29 -35 75 -35q39 0 75 30t36 68q0 31 -23 52t-54 21q-23 0 -41.5 -16.5t-18.5 -39.5t13 -40t35 -17l18 2l14 -13q0 -27 -49 -27q-41 0 -65 31q-21 28 -21 70q0 65 83 124l76.5 53l76.5 53
q83 74 83 174zM309 608l-2 -183l-43 -16l-31 -12v170zM529 288q-85 -49 -85 -44v59l67 29zM500 349l-173 -76l-1 136q46 20 57 20q52 0 117 -80zM406 285l-1 -56l-78 -35v56zM332 673q-4 16 -13 16q-58 -49 -120 -49q-31 0 -56 21q-6 6 -18 22q-14 18 -16 18q-3 0 -37 -21
l-35 -21.5t-22 -12.5q-42 -25 -55 -36l9 -14q8 1 19 12q8 8 22 6q16 -2 45 -18q25 -15 60 -15q17 0 56 13q17 5 27.5 9.5t14.5 6.5l66.5 35.5z" />
    <glyph glyph-name="I" unicode="I" horiz-adv-x="493" 
d="M468 120q-1 -1 -10 -1q-61 0 -58 70l1 354q0 25 7 52q13 62 52 82q-8 7 -11 8l-183.5 -104l-132.5 -73l5 -17l57 25q-2 -438 -1 -439q-11 5 -33 29q-22 25 -24 25t-81 -57l-60 -42.5t-22 -16.5q-4 -3 -4 -5q0 -11 11 -9q5 0 27 16q23 16 49 16q37 0 81 -36q43 -37 39 -37
q59 43 141 83q86 43 150 62v15zM303 517v-451l-6 -10q-9 -9 -32 -9q-20 0 -52 20l1 462q23 10 34.5 16t21.5 6q14 0 33 -34zM372 673q-4 16 -13 16q-58 -49 -120 -49q-31 0 -56 21q-6 6 -18 22q-14 18 -16 18q-3 0 -37 -21l-35 -21.5t-22 -12.5q-42 -25 -55 -36l9 -14
q8 1 19 12q8 8 22 6q16 -2 45 -18q25 -15 60 -15q17 0 56 13q17 5 27.5 9.5t14.5 6.5l66.5 35.5z" />
    <glyph glyph-name="J" unicode="J" horiz-adv-x="497" 
d="M478 80q-1 -1 -10 -1q-61 0 -58 70l1 425q-2 91 59 123q-8 7 -11 8l-183.5 -104l-132.5 -73l5 -17l55 29q0 -506 -1 -505q-10 5 -32 30l-23 26l-122 -77l-91.5 -58t-32.5 -21q-3 -3 -3 -5q0 -10 10 -9q4 0 69 36q64 36 90 36q37 0 81 -36q43 -37 39 -37q59 43 141 83
q86 43 150 62v15zM313 537v-511l-6 -10q-9 -9 -32 -9q-16 0 -50 22q-2 72 -2 201t1 319q23 10 34.5 16t21.5 6q14 0 33 -34zM362 673q-4 16 -13 16q-58 -49 -120 -49q-31 0 -56 21q-6 6 -18 22q-14 18 -16 18q-3 0 -37 -21l-35 -21.5t-22 -12.5q-42 -25 -55 -36l9 -14
q8 1 19 12q8 8 22 6q16 -2 45 -18q25 -15 60 -15q17 0 56 13q17 5 27.5 9.5t14.5 6.5l66.5 35.5z" />
    <glyph glyph-name="K" unicode="K" horiz-adv-x="722" 
d="M713 81l-6 13l-21 -16.5t-24 -8.5q-27 0 -43 49l-16 49l-16 49q-26 59 -75 77l160 83l-5 4q-78 62 -100 131l-6 -3q-33 -24 -100 -60l-64 -32l1 202h34q56 -29 63 -70q33 42 131 80q-32 8 -70 24t-83 41l-205 -104l-185 -93l5 -13l11.5 5.5t28.5 12.5q33 15 37 15
q34 0 34 -64v-22q-1 -7 -1 -12v-7v-193q0 -85 -13 -110q-17 -34 -87 -62q-3 -6 -1 -6q5 -1 7 -3q10 0 74 37l48 28.5t27 17.5q50 39 55 110v128q20 11 38 20l33 16q-1 -115 -1.5 -197t-0.5 -133q-34 14 -56 26.5t-32 23.5q-17 -14 -42.5 -31.5l-59.5 -39.5
q-37 -23 -62.5 -41l-40.5 -29q4 -9 11 -9q52 52 113 52q50 0 92 -50q124 82 186 117q0 9 -6 11q-63 -34 -85 -33v183q4 1 11 1q39 0 70 -58q16 -32 48 -120q28 -79 43 -98zM380 617q2 -65 0 -206q-55 -32 -76 -32l1 134q1 102 75 104zM553 332l-40 -21l-40 -20
q-64 -31 -76 -30v135q64 40 80 45q43 -66 76 -102v-7zM372 673q-4 16 -13 16q-58 -49 -120 -49q-31 0 -56 21q-6 6 -18 22q-14 18 -16 18q-3 0 -37 -21l-35 -21.5t-22 -12.5q-42 -25 -55 -36l9 -14q8 1 19 12q8 8 22 6q16 -2 45 -18q25 -15 60 -15q17 0 56 13q17 5 27.5 9.5
t14.5 6.5l66.5 35.5z" />
    <glyph glyph-name="L" unicode="L" horiz-adv-x="557" 
d="M532 134l-10 12q-86 -65 -115 -65q-32 0 -64 20v482l52 -32q58 49 90 60l23.5 6.5t16.5 3.5v7q-10 7 -15 7q-10 1 -17.5 2t-13.5 2q-28 4 -61 24q-47 26 -45 26q-4 0 -35 -22l-29.5 -20t-12.5 -9q-79 -48 -146.5 -81t-124.5 -53q0 -3 1 -6.5t1 -4.5h9q66 26 77 26
q18 0 23 -27q1 -10 1.5 -19t1.5 -18l1 -329q0 -26 -22 -52l-20 -19.5l-14 -13.5l6 -8q87 47 133 116q12 18 12 59l1 339q0 60 46 60q6 0 45 -17v-477q-46 37 -52 37l-10 -9l-30 -27q-41 -36 -54 -45l-61.5 -46.5t-43.5 -35.5q2 -2 3 -5.5t4 -3.5q-1 0 49 33q49 33 84 33
t74 -18.5t65 -44.5q66 66 75 72q61 46 102 81zM312 673q-4 16 -13 16q-58 -49 -120 -49q-31 0 -56 21q-6 6 -18 22q-14 18 -16 18q-3 0 -37 -21l-35 -21.5t-22 -12.5q-42 -25 -55 -36l9 -14q8 1 19 12q8 8 22 6q16 -2 45 -18q25 -15 60 -15q17 0 56 13q17 5 27.5 9.5
t14.5 6.5l66.5 35.5z" />
    <glyph glyph-name="M" unicode="M" horiz-adv-x="1000" 
d="M985 145l-5 5h-7q-30 -34 -65 -34q-10 0 -25 9t-29 9q-18 0 -39 -7q85 105 96 123q33 58 33 153q0 65 -51 152l-54.5 96t-24.5 47q-4 10 -6 14l-235 -133q-1 20 -4.5 36t-8.5 27q-10 23 -39 46t-54 23q-7 0 -50 -29l-26 -18l-27 -18q-53 -32 -130 -72t-180 -88l7 -11
q11 5 21.5 10.5t21.5 10.5q28 15 42 15q29 0 29 -55v-276q0 -17 -7 -44q-8 -31 -14 -38q-14 -13 -25.5 -21.5t-19.5 -13.5l5 -5q161 72 161 166v308q0 28 9 45q4 9 36 27q33 19 43 20v-539q-31 6 -52 22.5l-42 34.5h-1q-3 0 -39 -30q-41 -35 -43 -36l-27 -18l-27 -19
q-36 -26 -42 -45l9 -7q15 21 41.5 38.5t48.5 17.5q30 0 52 -16q6 -4 39 -37q17 51 112 83l-2 4l2 8l-5 2l-5 -3l-4 1l-1 229q34 -2 102 0l1 -163q0 -53 -73 -66l-1 -5q0 -8 4 -8q35 0 61 -21q16 -13 32 -40q15 -25 22 -26q49 85 123 99q14 2 26.5 4t16.5 18v514q4 4 9.5 8
t13.5 8q32 -68 60 -107q22 -32 36.5 -57t22.5 -43q21 -51 21 -114q0 -14 -0.5 -26t-1.5 -21q-7 -68 -67 -149q-25 -33 -53.5 -62t-62.5 -55v-6l3 -4h4q52 42 88 42q29 0 80 -30zM673 615l-1 -214l-97 -1v165zM474 400q-16 1 -40 1h-56v226l4 1q39 0 65.5 -26t26.5 -66v-136z
M677 112q0 -14 -21 -14q-31 0 -54 14q-27 16 -27 46v156h99q3 -86 3 -172v-30zM362 673q-4 16 -13 16q-58 -49 -120 -49q-31 0 -56 21q-6 6 -18 22q-14 18 -16 18q-3 0 -37 -21l-35 -21.5t-22 -12.5q-42 -25 -55 -36l9 -14q8 1 19 12q8 8 22 6q16 -2 45 -18q25 -15 60 -15
q17 0 56 13q17 5 27.5 9.5t14.5 6.5l66.5 35.5z" />
    <glyph glyph-name="N" unicode="N" horiz-adv-x="712" 
d="M696 107q0 7 -10 7q-25 -34 -60 -34q-4 0 -10.5 4.5l-15.5 10.5t-21.5 11.5t-28.5 7.5q25 39 41.5 69t25.5 50q28 60 28 119q0 115 -125 264l-10 14.5t-10 17.5q-10 28 -13 46q0 -4 -162 -74l-159.5 -65t-117.5 -41q2 -8 4 -12q0 -1 1 0q3 3 13 6q15 6 41 9q26 0 33 -25
q3 -11 3 -49l1 -292q-11 -50 -39 -66q-38 -23 -38 -29l1.5 -4t4.5 -4t22 13q11 8 18.5 12.5t9.5 6.5q71 39 98 80q4 6 11 30q8 27 8 37v338l75 31v-512q-74 45 -78 45q-2 0 -30 -22q-32 -26 -45 -33l-76.5 -44.5l-54.5 -31.5l10 -11q69 51 119 51q59 0 101 -57h8
q15 27 47 50l28 18l28 18l15 9l14 8l-3 10q-38 -21 -43 -23q-8 -3 -17 -1q-8 3 -8 8v127l165 85l71 36q8 -19 8 -60q0 -153 -179 -260q-7 -4 -7 -8l5 -5q10 5 19 11t19 11q25 15 41 15q28 0 48 -12q2 -2 12.5 -9.5t27.5 -21.5zM525 429l-117.5 -56l-77.5 -38v265
q49 27 61 29q16 -43 62 -104q17 -20 33 -41l33 -42q6 -8 6 -13zM560 340l-54.5 -30t-39.5 -21q-2 1 0 96q62 35 67 31q23 -41 27 -76zM416 264l-86 -42v98l50.5 24t35.5 18v-98zM362 673q-4 16 -13 16q-58 -49 -120 -49q-31 0 -56 21q-6 6 -18 22q-14 18 -16 18
q-3 0 -37 -21l-35 -21.5t-22 -12.5q-42 -25 -55 -36l9 -14q8 1 19 12q8 8 22 6q16 -2 45 -18q25 -15 60 -15q17 0 56 13q17 5 27.5 9.5t14.5 6.5l66.5 35.5z" />
    <glyph glyph-name="O" unicode="O" horiz-adv-x="697" 
d="M643 373q0 50 -19 101q-17 43 -54 90q-2 3 -26.5 30l-71.5 78q-7 13 -11 23t-6 18q-6 0 -15 -9q-19 -11 -42 -21t-49 -19l-58.5 -20.5t-26.5 -9.5q-99 -42 -168 -54q-3 0 -43 -10q-27 -6 -44 -6q-5 0 4 -23q5 0 12.5 2t14 4.5t12 4l5.5 1.5q33 0 43 -25q5 -11 9 -56
q-1 -71 -0.5 -139t1.5 -134q1 -36 -16 -61q-13 -17 -39 -37q-5 -4 -11 -8t-13 -8l5 -11q163 88 175 161q-5 290 0 302q-6 48 50 74q8 2 13.5 4t9.5 4v-489l-61 49q-4 0 -27 -22q-29 -27 -42 -36l-156 -104l5 -10q22 13 23 14l36 20t35 21q25 12 54 12q38 0 79 -24
q14 -8 28.5 -19.5t30.5 -25.5q25 -24 27 -24q3 0 7 4q16 20 42 40t61 42q42 24 64 33q153 102 153 273zM399 590q29 -42 53.5 -72.5t43.5 -50.5l-119 -63t-78 -37v258q1 7 31 13q10 2 19 4l18 4q16 -34 32 -56zM545 399l-120 -61v76l79 41q11 -13 21 -26.5t20 -29.5z
M376 391q0 -15 1.5 -36.5t1.5 -37.5q-65 -35 -80 -41v77zM566 298q0 -81 -57 -148q-55 -67 -128 -67q-11 0 -82 38v141l249 126q4 -4 12 -44q6 -35 6 -46z" />
    <glyph glyph-name="P" unicode="P" horiz-adv-x="700" 
d="M644 335q0 122 -66 202l-73 75l-73 75q-147 -92 -205 -112q-25 58 -34 71q-22 33 -71 48l-128 -97l9 -10q26 23 46 23q76 0 76 -143v-337v-36q-82 -53 -111 -110q4 -7 11 -7q7 14 18.5 27.5t25 25t28 19t28.5 9.5v-205q0 -18 -9.5 -41t-22.5 -33q49 8 72 31q65 50 141 62
q-27 13 -52 23q-21 15 -21 51l-1 90q80 -57 109 -68q19 19 53 44t85 57q84 56 116 99q49 64 49 167zM513 461q-19 -11 -68 -36.5t-130 -63.5v224q111 9 198 -124zM552 382l-106 -52l1 80l73 37zM396 301l-80 -39l-1 85l81 38v-84zM572 278q0 -74 -42 -135q-47 -69 -117 -69
q-40 0 -98 34v138l241 122q16 -60 16 -90zM299 123q-3 1 -21 21q-14 15 -22 17q-12 -8 -27 -12v398q-4 0 -4 2q0 7 74 33v-459z" />
    <glyph glyph-name="Q" unicode="Q" horiz-adv-x="698" 
d="M690 115l-12 6q-40 -37 -63 -37q-26 0 -89 54q62 62 79 88q32 49 32 113q0 83 -39 149q-11 19 -31.5 44.5t-51.5 59.5q-57 60 -79 105q-106 -57 -212.5 -105t-215.5 -86q-8 -2 -13 -7v-10l3 -2h9q28 22 66 22q31 0 36 -24q1 -5 1.5 -31t0.5 -72v-228q0 -8 -1 -21t-1 -25
q0 -21 -28 -40q-41 -29 -43 -31q6 -7 7 -7q120 74 154 132q12 19 12 113v226q0 66 74 98v-481l-28.5 32t-14.5 15l-4 -8q-15 -29 -52 -60q-5 -5 -21 -16.5l-44 -31.5l-47 -29q-37 -24 -37 -31l5 -12l25 18l25 18q53 35 96 35q28 0 69 -21q38 -20 56 -44h8q17 27 48 52
q35 29 62 29q31 0 62 -25q31 -24 45 -53l5 -1q9 12 21 24l26 25q13 13 52 42zM302 348v261l38 16.5t21 9.5q17 -39 61 -91l51.5 -60l23.5 -28zM543 375q29 -66 29 -93q0 -69 -55 -133q-59 -65 -125 -65q-32 0 -90 27v131zM383 302l-81 -46v76l81 45v-75zM435 407l72 40
q19 -32 30 -57l-102 -58v75z" />
    <glyph glyph-name="R" unicode="R" horiz-adv-x="731" 
d="M731 81q2 4 1 7q-1 4 -5 4q-3 0 -9.5 -3t-14 -6l-14.5 -6t-12 -3q-37 0 -53 36q-4 8 -7 24.5t-7 41.5q-14 96 -33 129q-19 34 -71 50q71 35 97 57q49 40 49 97q0 53 -33 113q-41 73 -102 78l-271 -128.5t-176 -74.5q-1 -3 0.5 -10t3.5 -7q1 -1 107 41v-404
q-5 -41 -67 -78l8 -11l54 35l54 35q36 24 45 44q10 20 10 72v47q-1 19 -1 34v29h80v-234q-9 0 -15 2q-2 1 -14 9.5l-35 25.5q-32 -35 -116 -92l-78 -51l12 -9q85 59 124 59q26 0 52 -17q12 -7 43 -36q28 23 36 38q10 8 24 17.5t34 20.5q43 23 61 36v9h-9q-29 -24 -69 -24
h-19q-6 1 -11 9l-2 79l121 56q13 -71 13 -88q0 -53 19 -87q7 -12 21.5 -29.5t36.5 -40.5q54 51 138 104zM446 643q46 -21 75 -66q6 -10 11 -20t9 -21l-163 -74v151l43 18.5t25 11.5zM553 459q-26 -95 -155 -113q-20 -3 -20 0v98l102 43t73 31q2 -50 0 -59zM360 343
q-11 1 -30.5 1.5t-45.5 -0.5l1 224l75 38v-263zM501 238l-120 -56l-1 145h20q53 0 88 -53l8.5 -22t4.5 -14zM382 673q-4 16 -13 16q-58 -49 -120 -49q-31 0 -56 21q-6 6 -18 22q-14 18 -16 18q-3 0 -37 -21l-35 -21.5t-22 -12.5q-42 -25 -55 -36l9 -14q8 1 19 12q8 8 22 6
q16 -2 45 -18q25 -15 60 -15q17 0 56 13q17 5 27.5 9.5t14.5 6.5l66.5 35.5z" />
    <glyph glyph-name="S" unicode="S" horiz-adv-x="661" 
d="M604 258q0 31 -13 66q-7 19 -43 60l-22 24l-22 24q-8 18 -9 30l-215 -95v255q6 6 23 6q21 0 52 -49q33 -49 34 -49t42 24l40.5 23.5l25.5 14.5l69 33l-11 13q-50 -26 -68 -26q-33 0 -73 42l-30 31.5l-10 10.5q-1 0 -32 -17l-28.5 -16.5t-18.5 -9.5q-96 -44 -212 -76
q-19 -5 -33 -8l-24 -5q0 -9 4 -16q13 1 21 5t9 4q32 0 32 -22v-139q0 -10 -7 -18q-9 -14 -31 -18l-36 -6v-7q94 -24 122 -70q4 -9 21 -26q17 29 34 43q9 7 25.5 17t41.5 23v-211q-5 -2 -30 25q-25 28 -27 28l-19.5 -27.5l-15.5 -22.5q-55 -30 -73 -33q-29 -14 -68 -42
q-59 -41 -59 -58q0 -10 18 -10q-2 23 50 52q52 31 90 31q29 0 64 -20q21 -12 49 -36l23 -20q-1 0 17 19q19 21 52 31l93.5 31.5t49.5 19.5q81 40 116 116q12 27 12 51zM497 269q-108 -49 -107 -48v8t-1 21q-2 26 1 27q53 37 70 37q3 0 19 -22q8 -11 12.5 -16.5t5.5 -6.5z
M262 364q0 -12 -27 -12q-45 0 -45 50v128q0 33 1 38q5 23 20 30q36 18 51 18v-252zM448 325l-168 -83v101q60 22 89 22q35 0 58 -22q16 -15 21 -18zM508 219q0 -67 -39 -102t-105 -35q-50 0 -84 26q-2 7 0 51l118.5 51.5l94.5 43.5h7q8 -21 8 -35zM345 200q-7 4 -65 -27v54
q20 17 65 30q1 -6 0 -57z" />
    <glyph glyph-name="T" unicode="T" horiz-adv-x="656" 
d="M644 697q-43 -28 -127 -28h-288q-56 -1 -91 -24q-30 -20 -63 -72q-44 -72 -63 -108v-6l15 -4q31 45 52 65q29 27 73 41q28 9 34 9h262v-470q-32 -2 -47 -3.5t-13 -1.5q-106 0 -170 43q8 6 21.5 13.5t33.5 15.5q31 14 46 29q20 22 20 60v211q2 26 31 48q6 6 51 31v7
q-28 -8 -49 -15t-35 -14l-108 -39t-66 -26v-18l89 31v-253q0 -30 -12 -43q-3 -3 -37 -28q-81 91 -81 190q0 78 30 122q7 11 29 33t60 56l-9 3q-197 -116 -197 -272q0 -136 108 -215q97 -70 238 -70q9 0 26 1t25 1q25 0 53 -19l151 174l-2 6q-17 -8 -37 -16.5t-43 -16.5
l-33 -10.5t-50 -14.5v470h46q60 0 127 127z" />
    <glyph glyph-name="U" unicode="U" horiz-adv-x="705" 
d="M693 87l-8 15q-8 -7 -17 -13t-18 -13q-22 -16 -39 -13q-27 5 -31 57v68v330q0 28 30 51l16 12t16 11q-70 7 -125 89q-23 -42 -70 -74l-21.5 -14l-21.5 -14q19 -4 41 -20q31 -21 31 -44l1 -72l-150 -85l-0.5 -0.5t-2.5 -1.5q-2 0 -2 305h-17q-1 -418 0 -577q-51 22 -64 40
q-24 -30 -98 -76q-25 -14 -49 -29l-49 -30l9 -16q58 55 117 55q31 0 65 -26q34 -25 39 -25q19 16 46 35t63 41l61.5 40t39.5 30q0 -74 6 -90q9 -30 57 -64zM225 187l1 199q0 176 -19 210q-49 87 -81 88l-81 -64.5t-49 -33.5q0 -5 9 -11l28.5 17t25.5 9q58 0 72 -89v-368
q-2 -20 -9.5 -34.5t-18 -26t-23 -21.5l-24.5 -19q-3 -15 8 -15q90 56 100 64q60 47 61 95zM477 352q-59 -35 -59 -36l1 74q53 35 58 33v-71zM379 301q-18 -13 -32 -21.5t-24 -13.5l1 71l57 30zM477 331v-137q0 -44 -41 -74q-18 -14 -57 -28q-35 -13 -51 -13q-5 0 -5 2v167
q10 13 73 45l46 22.5t35 15.5z" />
    <glyph glyph-name="V" unicode="V" horiz-adv-x="675" 
d="M639 325q1 9 1.5 18t0.5 18q0 172 -147 282q-43 31 -54 61q-42 -33 -135 -74l-42 -18l-46 -18q-35 88 -84 93l-132 -87l5 -13q35 20 51 20q59 0 59 -115v-363q0 -26 -9 -42q-5 -10 -21 -20q-2 -2 -27 -18q0 -14 7 -14q37 23 58 38l28 20q69 55 69 102l-1 374l18 8t18 9
q27 11 38 11q5 0 -1 -479q-41 30 -46 30q-7 0 -13 -13q-4 -8 -6 -12.5l-2 -4.5q-26 -26 -78 -60l-38 -25l-39 -25q-6 -3 -13 -7t-7 -11t13 -7q3 0 20 12q11 8 17 13t8 6q42 27 87 27q49 0 96 -27q3 -1 42 -29q31 -20 32 -19q12 34 60 80q5 5 28.5 25l65.5 56q110 95 119 198
zM548 396l-96 -56v66l69 43zM513 466l-199 -110l1 244q5 1 9 1h9q60 0 116 -41q20 -15 44 -56q5 -8 10 -17.5t10 -20.5zM404 383v-66l-89 -46v63zM562 299q0 -77 -44 -136q-49 -67 -129 -67q-23 0 -74 13q-2 2 1 138l237 130q9 -71 9 -78z" />
    <glyph glyph-name="W" unicode="W" horiz-adv-x="913" 
d="M871 396q0 107 -62 199q-52 79 -101 84q-5 5 -211 -122l-4 34l-4 33q-1 13 -32 42t-41 28l-208 -110q-5 41 -18 59l-30.5 25.5t-24.5 19.5q-36 -15 -77 -50l-23.5 -21t-34.5 -33l12 -12q27 29 45 29q22 0 36.5 -17t14.5 -39v-377q0 -43 -7 -58q-10 -23 -56 -66l9 -3
q36 24 60.5 42t37.5 31q57 52 57 102l-1 344q0 3 81 41v-523q-23 4 -56 28q-16 11 -23.5 17l-7.5 6q-22 -27 -39 -41l-12 -9.5t-17 -12.5l-30 -20l-30 -20q-49 -33 -49 -42t8 -9q1 0 6 4.5t11.5 11.5t14.5 13.5t17 11.5q25 15 62 15q27 0 51 -21l39 -33l129 116q-2 9 -5 9
q-9 0 -23 -17t-21 -17q-4 0 -8 4v241h95v-193q0 -24 -35 -57q74 -8 116 -28q32 -20 55 -36t37 -28q18 31 23 38q73 82 99 99q91 58 130 120q45 67 45 168zM594 403q-11 -6 -47 -5q-24 1 -37 1h-14l1 134q60 38 97 55v-185zM782 330q0 -38 -15 -90t-86 -114q-27 -24 -68 -51
v523q13 13 17 12q83 -31 124 -132q28 -69 28 -148zM401 402l-91 -1l-1 203q30 27 42 27q50 0 50 -75v-154zM592 313v-235q-32 19 -55.5 34.5l-40.5 26.5l2 174h94z" />
    <glyph glyph-name="X" unicode="X" horiz-adv-x="617" 
d="M517 101l43.5 36.5l35.5 29.5l-15 10q-20 -17 -35 -28l-25 -18q-55 -37 -73 -37q-33 0 -70 22q-45 26 -46 57q-2 24 -2 59t1 82l92 1l-1 -76l23 2v231l-19 1l-1 -68h-96q4 58 0 96q-3 31 50 81q40 -36 71 -36q29 0 61 31q28 27 42 59q11 35 11 31q0 7 -9 13
q-11 -16 -13 -27q-14 -21 -41 -21q-26 0 -55 17q-27 16 -30 32l-51 -76l-44 -64q-20 70 -53 99q-52 44 -89 44q-10 0 -14 -4l-28.5 -26l-28.5 -26q-23 -20 -49 -37.5t-56 -33.5l9 -17q64 48 94 48q42 0 76 -25q36 -29 48 -75q1 -4 2 -15t3 -28q3 -39 -1 -43h-102v73h-20
v-231l20 1l1 73h103v-148l-41 -42t-41 -21q-35 0 -76 47l-12 -23t-9 -17q-48 -56 -77 -80q-23 -23 -23 -27t3.5 -9.5t5.5 -3.5q31 25 38 32q19 12 37 12t43 -13q9 -6 22 -21q15 -16 17 -16q4 0 34 44q32 48 38 53q13 11 26 33q12 20 18 23q2 -11 6 -23t10 -23l10 -15.5
l15 -23.5q37 -55 136 -72l59 72t42 45z" />
    <glyph glyph-name="Y" unicode="Y" horiz-adv-x="638" 
d="M604 330q0 86 -37 151q-8 14 -27 39t-50 60q-49 58 -66 107l-221 -127q2 33 -25 76q-26 45 -57 46l-127 -83l9 -16q7 19 37 19q64 0 64 -90v-375q0 -30 -20 -53q-11 -13 -42 -32l7 -9q154 88 154 184v193q0 78 1 120l43.5 24l31.5 17v-479l-61 36q-123 -92 -186 -135
l13 -7q48 48 105 48q61 0 113 -52l36.5 35.5t42.5 37.5q3 2 24 18.5l61 47.5l-9 11q-49 -49 -102 -49q-1 0 -21 5v140l214 115q10 -14 10 -62q0 -106 -57 -184l-52.5 -57.5l-52.5 -57.5q-57 -65 -57 -134q0 -46 35 -76q31 -27 80 -27q45 0 74.5 26.5t29.5 71.5
q0 33 -18.5 56t-50.5 23q-13 0 -26.5 -4.5t-24 -12.5t-17 -19t-6.5 -24q0 -24 12 -40q12 -19 35 -19q5 0 14 2.5t13 2.5l15 -15q0 -8 -5.5 -14t-13.5 -10t-17.5 -6.5t-18.5 -2.5q-42 0 -67 27.5t-25 69.5q0 63 74 131q132 121 138 129q74 91 74 203zM461 441l-166 -95v247
q15 10 26 16.5t18 8.5q21 -43 56 -92l22.5 -29.5zM501 367l-97 -55v78l64 37zM362 293l-67 -36v73l67 37v-74z" />
    <glyph glyph-name="Z" unicode="Z" horiz-adv-x="510" 
d="M468 515q0 163 -256 163q-19 0 -55 -6l-30.5 -3.5t-22.5 -1.5q-43 0 -71 31l-7 -8q32 -58 51 -95.5t25 -54.5q46 40 81 37l13 -1v-220q-79 14 -104 34q-10 -76 -49 -108q8 0 5 -5q41 37 148 58v-217q-47 20 -63 56q-14 -24 -92 -101q-71 -70 -76 -86l11 -9q48 70 119 72
q68 2 153 -70q23 29 68 54q53 29 94 29q46 0 46 35v152q0 48 -39 74l-78 39q62 25 92 55q37 37 37 97zM363 519l-151 -76v136q10 1 17.5 1.5t12.5 0.5q109 0 121 -62zM372 473q0 -115 -130 -115h-30l-1 62l155 85q6 -6 6 -32zM359 266l-147 -78v150h20q58 0 82 -10
q38 -17 45 -62zM358 253l1 -161q0 -28 -34 -28t-113 45l-1 60z" />
    <glyph glyph-name="bracketleft" unicode="[" horiz-adv-x="203" 
d="M79 -52l1 776q-4 0 4 3h65v50h-141v-881l141 1v50z" />
    <glyph glyph-name="backslash" unicode="\" horiz-adv-x="273" 
d="M132 -188q0 100 15 297q15 199 15 301v206q1 3 15 12q12 10 14 8l47 -55q-6 -14 -10.5 -23.5t-6.5 -14.5q2 0 7 -6.5t5 -5.5q17 37 45.5 70t67.5 64v9q-2 1 -9 3q-38 -32 -39 -32q-6 0 -30 32q-23 32 -27 28q-57 -57 -125 -88q-39 -19 -97 -17q-11 0 -11 1v-18h38
q23 0 26 -12l2 -20l2 -21v-55q-2 -3 -74 0l1 -63q74 3 76 1q-2 -51 1.5 -120.5t12.5 -157.5q10 -96 14.5 -162.5t4.5 -106.5v-27q0 -14 -1 -27q1 -1 11 -1q9 0 10 1z" />
    <glyph glyph-name="bracketright" unicode="]" horiz-adv-x="206" 
d="M78 -51l-2 775q3 0 -4 3l-64 1v49h141v-880h-141v51z" />
    <glyph glyph-name="asciicircum" unicode="^" horiz-adv-x="307" 
d="M0 693l150 48l152 -50l3 6l-157 115l-150 -113z" />
    <glyph glyph-name="underscore" unicode="_" horiz-adv-x="584" 
d="M587 -150v50h-587v-50h587z" />
    <glyph glyph-name="grave" unicode="`" horiz-adv-x="409" 
d="M80 585q-1 -3 -1 -10q0 -29 35 -29q10 0 155 -26l3 7l-143 79q-12 6 -21 6q-21 0 -28 -27z" />
    <glyph glyph-name="a" unicode="a" 
d="M322 409q-23 0 -81 31l-42.5 24.5t-35.5 22.5q-7 -8 -19 -19.5t-31 -25.5q-37 -28 -50 -44q-24 -29 -24 -59q0 -61 57 -106q-33 -17 -58 -47q-32 -35 -32 -65q0 -71 77 -130l144 105v-17q0 -3 3 -12q7 -23 31 -47q7 -6 18 -14.5t27 -19.5q16 20 42 49l62 67q-1 10 -11 8
q-32 -32 -50 -32q-20 0 -32 31q-9 24 -9 49v36t1 51v88q0 41 18 58q8 8 55 30q-1 0 -5 8q-2 3 -8 3q-28 -23 -47 -23zM229 292q-5 -3 -19.5 -9.5l-37.5 -16.5q-48 -20 -53 -20q-25 0 -46 36q-18 31 -18 58q0 16 18 43q18 28 33 28q7 0 60 -29l39 -22.5l24 -14.5v-53z
M224 118l-39 -30q-32 -24 -38 -24q-14 0 -33 37q-18 34 -18 51q0 55 60 87q33 16 68 31v-152z" />
    <glyph glyph-name="b" unicode="b" horiz-adv-x="419" 
d="M416 431l-5 5q-10 0 -25 -7.5t-26 -7.5q-23 0 -51 27q-28 28 -31 28q-6 0 -64 -44q-56 -43 -65 -43q0 1 -1 1l1 188q0 32 34 62l25.5 22.5l8.5 7.5q0 8 -3 10q-17 0 -72 -38q-52 -37 -79 -37q-14 0 -27 8t-14 8q-6 0 -6 -6q1 -3 1 -7q43 -30 43 -84v-222t1 -183
q0 -20 -21 -42q-8 -10 -17.5 -17t-20.5 -12l8 -12q23 22 52 22q15 0 64 -38l37 -28l12 -9l44 43q20 18 56 34q39 18 62 18q22 7 24 6q-12 22 -12 47l1 222q-3 24 13 37l31.5 24t21.5 17zM264 81l-39 -24l-52.5 42l-23.5 19v141q-1 47 -1 74v36q8 5 15.5 11t15.5 11
q25 18 30 18q4 0 57 -40q-1 -22 -1 -36v-19z" />
    <glyph glyph-name="c" unicode="c" horiz-adv-x="357" 
d="M238 348q4 1 18 8.5t37 23.5q48 33 52 39l-5 12q-37 -26 -39 -26q-18 0 -58 79l-15 -1q-44 -46 -132 -62q-22 -4 -44 -7t-44 -7v-8q5 -4 21 -4q23 0 27 -1q14 -5 14 -20v-170q0 -72 -1 -120q-15 -25 -26 -28q-17 -5 -29 -14q-4 -13 8 -13l20 13q23 14 37 14q23 0 70 -36
q47 -35 49 -35q5 0 13 6l74 79.5l51 57.5q-1 9 -8 12q-69 -76 -76 -76q2 0 -92 55v270q0 42 21 42q4 0 28 -38q8 -11 15 -22.5z" />
    <glyph glyph-name="d" unicode="d" 
d="M410 441q0 10 -8 10q-3 0 -9.5 -2t-13.5 -5t-13.5 -5t-10.5 -2q-17 0 -78 31l-45 23.5l-36 19.5l-111 60q-63 38 -89 85q-15 4 -15 -8q0 -7 19 -33q18 -27 18 -57q0 -14 -12 -39q-11 -25 -11 -28q0 -11 9 -11q5 0 13.5 6t20.5 6q34 0 135 -62v-8l-66 -28.5l-47 -19.5
l9 -21v-212q0 -11 -5 -23t-12.5 -23t-18 -20t-20.5 -13q3 -15 10 -15q2 0 7 3t12 6.5t14 6.5t13 3q19 0 63 -36q34 -29 55 -54h1l4 -1h4q44 55 156 100v285q-2 6 -2 11q0 35 60 70zM261 81l-21 -27l-86 62v274q40 22 50 23q20 -11 34 -19.5t23 -14.5v-298z" />
    <glyph glyph-name="e" unicode="e" horiz-adv-x="352" 
d="M240 314q0 -4 -46 -34q-53 -35 -54 -36q3 55 0 162q16 14 20 14q6 0 10 -8t7 -15q63 -86 63 -83zM322 347q0 3 -34 49l-40 54q-10 15 -23 41q-19 -40 -121 -76q-34 -7 -59 -11t-42 -5l-3 -3l7 -14l21 3q32 0 32 -47v-47t1 -66v-114q0 -32 -27 -54q-26 -23 -26 -22
q0 -10 13 -10q3 0 19 13q17 14 30 14q37 0 126 -60l123 148q-8 7 -16 7q-56 -72 -60 -72q-6 0 -48 21q-42 22 -52 29q-1 28 -1.5 49t-0.5 35q0 5 90 68q91 63 91 70z" />
    <glyph glyph-name="f" unicode="f" horiz-adv-x="273" 
d="M233 531q0 -1 -5 5.5t-7 6.5q5 10 9 19.5l8 18.5l-31.5 36.5l-15.5 18.5q-2 2 -14 -8q-14 -9 -15 -12l-1 -143q-2 2 65 2q3 0 0 -34q-2 -33 0 -33l-64 1l-1 -294q16 -43 48 -38q0 -10 -1 -11q-50 -29 -66 -83q-5 -17 -7.5 -38.5t-3.5 -46.5q1 26 1 5v-91q-1 -1 -10 -1
q-10 0 -11 1q5 103 -17 174q-19 63 -65 79q-9 6 0 12q7 -2 27 13q22 15 22 25l1 298q-2 2 -76 -1l-1 63q72 -3 74 0v55l-2 21l-2 20q-3 12 -26 12h-38v18q0 -1 11 -1q58 -2 97 17q68 31 125 88q4 4 27 -28q24 -32 30 -32q1 0 39 32q7 -2 9 -3v-9q-39 -31 -67.5 -64
t-45.5 -70z" />
    <glyph glyph-name="g" unicode="g" horiz-adv-x="440" 
d="M432 -14v14q-65 33 -75 93v288q67 55 67 61q0 13 -11 13t-61 -50q-103 94 -106 94q-5 0 -33 -28q-16 -16 -25.5 -24t-11.5 -10q-74 -47 -125 -47q-2 0 -2 -2t1.5 -6.5t4 -10.5t4 -11t1.5 -8q1 -116 0 -180q2 -17 0 -100l-67 -46l11 -13q43 37 62 37q13 0 38 -22
q27 -21 27 -31q0 -9 -138 -103q-7 -10 -7 -13q1 -3 12 -3q5 0 22 12q17 11 28 11q33 0 72 -42q7 -8 20 -25t32 -45q43 26 73 51q61 52 107.5 88t79.5 58zM274 95l-35.5 -23.5l-31.5 -20.5l-59 59v286q33 18 40 25l2 1l85 -73q-1 -43 -1 -106v-148zM355 -49l-112 -91
q-75 82 -83 82q-4 0 -20 -10t-21 -10h-54q206 152 208 152q6 -2 2 -2q5 -33 43 -80q8 -10 17 -20t20 -21z" />
    <glyph glyph-name="h" unicode="h" horiz-adv-x="415" 
d="M397 463l-9 9q-23 -18 -40 -18q-21 0 -43 22l-18 18t-17 18l-136 -91v47q-1 16 -1 27v20q0 75 9 105q13 52 65 79v8q0 6 -7 6h-5l-37 -25.5l-37 -25.5q-51 -33 -78 -33q-6 0 -19.5 6t-20.5 6l-4 2q3 -5 -1 -18q36 -15 46 -46q6 -18 6 -67v-353q0 -35 -9 -45
q-1 -3 -38 -27q-6 -5 -6 -9q0 -5 6 -5q26 0 52 -32q10 -13 18 -26.5t14 -29.5h16q22 80 83 97v9q-53 23 -53 64l1 239q18 14 36 25.5l35 22.5q45 -36 45 -87v-270q0 -20 -29 -75q-28 -53 -28 -97q0 -24 7.5 -44.5t21.5 -36.5t33 -25t42 -9q38 0 66 28q30 28 30 65
q0 29 -18.5 47.5t-46.5 18.5q-24 0 -40.5 -16.5t-16.5 -40.5q0 -9 11 -22.5t20 -16.5l27 -3q18 -3 18 -16q0 -6 -5.5 -12t-13 -10t-17 -6.5t-16.5 -2.5q-33 0 -59 29q-25 28 -25 64q0 24 21 60q19 34 39 53q56 53 115 65q11 0 11 6v7q-38 4 -48 11q-15 10 -15 45l1 224
q0 31 18 52q11 14 44 36z" />
    <glyph glyph-name="i" unicode="i" horiz-adv-x="269" 
d="M259 89q6 11 -10 11q-5 -3 -17 -17q-8 -8 -21 -8q-32 0 -32 64v237q0 9 19 37q2 4 20 18q17 14 17 15q0 2 -4.5 6t-4.5 7q-20 -17 -34 -17q-12 0 -46 25q-17 13 -25.5 19l-8.5 6q-8 0 -12 -7l-95 -95l16 -9q28 33 32 33q5 0 37 -27v-304q0 -42 62 -81q16 -10 15 -10
q5 0 12 7q10 14 19 25t19 21q40 40 42 44zM202 605q-47 24 -69 73q-24 -40 -78 -76q28 -14 42 -30l16 -23l16 -23q31 54 73 79z" />
    <glyph glyph-name="j" unicode="j" horiz-adv-x="250" 
d="M222 -143q2 11 0 11t-11 -1t-12 -1q-4 0 -12 2q-16 7 -18 14q-11 39 -11 71v366q0 20 15 47q5 8 16 12q5 2 9.5 3t9.5 3q2 6 -1 10q-53 31 -60 54q-22 63 -26 209q-3 3 -5 1q-3 -4 -7 -4q-2 -5 -7 -85q-3 -76 -32 -130q-16 -30 -54 -44v-9q30 -11 33 -12q18 -12 25 -52
l1 -481q0 -19 -17 -30q-68 63 -68 70q0 3 20 29t20 28q0 7 -11 7q-18 -27 -49 -61l-51 -54q-7 -5 -13 -10.5t-13 -10.5q-25 -21 -25 -26q0 -6 11 -6q6 4 25 21q13 13 16 13q6 0 43 -37t41 -37q1 0 9 12q22 27 60 54q19 13 34 21.5t28 13.5q13 4 28.5 7.5t32.5 5.5q16 4 26 6
z" />
    <glyph glyph-name="k" unicode="k" horiz-adv-x="473" 
d="M461 102q-5 6 -11 6l-24 -21q-17 -14 -27 -14q-25 0 -29 57q-6 71 -9 77q-13 23 -39 29t-50 11l30 12.5l30 13.5q31 15 31 50v50t1 26q2 15 22 34q31 30 32 32q-1 7 -9 7q-35 -26 -49 -26q-21 0 -43 22l-26.5 24.5t-11.5 9.5l-123 -92v96q2 21 3.5 42t3.5 43q4 43 37 72
q4 3 24 15q16 10 19 17q-6 9 -8 9q-7 0 -75 -47t-94 -47q-19 0 -34.5 9l-15.5 9l-11 -15q40 -28 50 -50q11 -21 12 -70v-348q0 -4 -0.5 -8.5t-1.5 -9.5q-1 -6 1 -10.5t2 -8.5q0 -23 -43 -42q2 -6 1 -7l18.5 -9l16.5 -8q16 -8 33 -38q19 -31 20 -31l9 2q21 30 36 56
q26 28 48 29q0 12 1 9q-33 26 -47 44q-1 7 -1.5 15.5t-0.5 19.5l-1 72q10 6 37 6q60 0 74 -14q13 -13 13 -75v-53q3 -30 17 -49l26 -30l23 -26zM276 371q0 -65 -10 -86q-16 -37 -71 -37h-39v139q0 9 64 49q53 -38 55 -46q1 -2 1 -19z" />
    <glyph glyph-name="l" unicode="l" horiz-adv-x="241" 
d="M241 85q0 13 -12 13q-37 -43 -43 -43q-5 0 -42 42v431q0 21 3.5 37t11 29.5t20 25.5t30.5 25q8 7 14 11.5t9 7.5q0 14 -9 14l-37 -21l-37 -21l-21.5 -12l-21.5 -12q-26 -14 -42 -14q-3 0 -20 7q-15 7 -20 7q-8 0 -8 -13l5 -3.5t16 -10.5q22 -14 23 -27q1 -34 1.5 -62.5
t-0.5 -52.5v-303q0 -26 -14 -51q-19 -30 -50 -40q-7 -4 -7 -10t10 -6q3 0 23 11t32 11q25 0 76 -75q110 99 110 105z" />
    <glyph glyph-name="m" unicode="m" horiz-adv-x="676" 
d="M675 109q0 7 -9 7q-38 -38 -43 -38q-37 0 -37 76v173q0 47 10 68q14 33 58 53q6 2 5 2q-2 3 -3 5.5t-2 4.5l-13.5 -6t-13.5 -7q-20 -9 -31 -9q-13 0 -23 6q-11 6 -20 14.5t-16.5 16.5l-13.5 14.5t-9 9.5l-130 -100q-3 0 -4 1q-2 13 -4 21t-3 10q-7 15 -29 42
q-24 30 -37 30q-4 0 -10 -3l-27 -21.5l-42 -33.5q-50 -38 -54 -38q-1 0 -5 6q-1 8 -3.5 17.5t-7.5 22.5q-3 5 -26 27q-23 21 -33 21q-9 0 -11 -5l-45.5 -45.5l-36.5 -33.5q-12 -11 -12 -12q0 -16 8 -16q4 0 20 16t31 16q23 0 28 -20q1 -4 1.5 -13t0.5 -24v-218
q9 -40 -52 -77v-7q62 -18 78 -55l5.5 -12.5t4.5 -9.5h12q9 25 37 48t52 31v7q-28 14 -35 24q-12 16 -12 48v242q53 46 77 46q34 0 43 -64l-1 -227q-8 -68 -42 -68v-12q47 -18 57 -34q11 -17 18.5 -27t10.5 -13h7q8 13 17 25.5t17 25.5q11 11 49 23v9q-45 7 -45 77v27
q0 20 -1 50q-1 46 0 77q1 25 1 43v30q58 52 63 52q11 0 56 -45v-49v-228q0 -30 21 -73q24 -48 45 -48l12 12l27 31l27 31q43 49 43 53z" />
    <glyph glyph-name="n" unicode="n" horiz-adv-x="491" 
d="M176 152v222l10.5 8l32.5 24q43 33 47 30q24 -9 37 -34l4 -10.5t3 -11.5v-49v-228q0 -48 23 -83q24 -35 49 -35q2 0 10 9q2 2 3 5t3 5q87 106 87 105q0 7 -9 7q-38 -38 -43 -38q-37 0 -37 76v173q0 47 10 68q14 33 58 53q6 2 5 2q-2 3 -3 5.5t-2 4.5l-13.5 -6t-13.5 -7
q-20 -9 -31 -9q-13 0 -23 6q-11 6 -20 15t-16.5 17.5l-13.5 15.5t-9 10q-3 0 -77 -53t-75 -52q-1 23 -14 56q-3 5 -26 27q-23 21 -33 21q-9 0 -11 -5l-45.5 -45.5l-36.5 -33.5q-12 -11 -12 -12q0 -16 8 -16q4 0 20 16t31 16q23 0 28 -20q1 -4 1.5 -13t0.5 -24v-218
q9 -40 -52 -77v-7q62 -18 78 -55l5.5 -12.5t4.5 -9.5h12q9 25 37 48t52 31v7q-44 23 -44 81z" />
    <glyph glyph-name="o" unicode="o" horiz-adv-x="411" 
d="M404 445l-5 10q-46 -25 -64 -25q-9 0 -15.5 2t-14 7t-18 13.5l-26.5 21.5q-27 21 -29 21t-17 -22l-17 -26q-10 -11 -30 -22.5t-34 -11.5q-35 0 -75 70v-324q0 -59 -10 -72l-19.5 -19t-13.5 -12q-24 -20 -24 -17q0 -4 8 -12q10 5 33 23q11 10 26 10q25 0 80 -40t54 -40
q4 0 6 2q13 31 53 65t71 40q8 2 15.5 2.5t15.5 1.5q-5 15 -7.5 26t-3.5 18q-1 78 -0.5 138t1.5 105q3 30 24 47zM261 76l-24 -20l-91 60v279q10 0 21.5 7l23.5 14q2 2 70 -48q-1 -72 0 -292z" />
    <glyph glyph-name="p" unicode="p" horiz-adv-x="472" 
d="M456 435l-4 9q-46 -20 -49 -20q-9 0 -40 29q-30 30 -38 33l-140 -106q-1 33 -8 51q-3 8 -25 30q-26 24 -35 24q-1 0 -30 -23q-32 -27 -45 -36l-22.5 -15l-18.5 -12q0 -4 4 -10t8 -6q2 0 20 15q19 15 28 15t16 -6.5t12 -16t8 -21.5t3 -23q2 -68 0 -208q-72 -33 -79 -76
l-1.5 -6.5t-3.5 -20.5q-5 -28 -4 -29l14 -2q0 23 15 45t37 24q10 1 24 -6q1 -94 0.5 -143t-2.5 -56q-15 -65 -70 -101q-6 -4 11 -11l130 94q13 -4 21 -7.5t12 -5.5l27 -16q2 -4 5 7q-49 36 -49 107q-1 87 0 97q5 5 61 -40q67 84 158 102q-14 16 -14 36q-1 87 -0.5 145
t1.5 87q2 25 32 51q7 5 14.5 11t16.5 11zM310 77q-4 -2 -10.5 -8t-9.5 -6q-4 0 -103 63l1 237l41.5 29l33.5 24l47 -38v-301z" />
    <glyph glyph-name="q" unicode="q" horiz-adv-x="436" 
d="M418 428q0 8 -7 9l-24 -16t-20 -8q-19 0 -77 39q-59 39 -57 39l-39 -30q-41 -34 -90 -41q-20 -2 -35.5 -3t-26.5 -1q-5 -3 6 -20v-302l-42 -33l9 -11l35 28q79 -70 86 -70q3 0 50 47q50 50 74 63v-168q0 -102 -64 -148l-15 -11l9 -15q103 90 151 90q10 0 30 -14
q11 -7 16 -10.5l5 -3.5q1 0 6 11q-34 34 -43 60q-8 24 -8 71l1 350q0 2 1 11.5t1 10.5q0 27 36 51q9 5 20.5 12t11.5 13zM261 140q-10 -18 -71 -64q-4 0 -60 44q1 100 1 171v117q1 3 18 12q16 9 21 9q6 0 37 -19q36 -24 47 -37q2 -4 4 -8.5t3 -10.5q0 -8 -1 -24t-1 -22z" />
    <glyph glyph-name="r" unicode="r" horiz-adv-x="372" 
d="M336 401q-63 70 -68 70q-2 0 -45 -33q-47 -36 -66 -45q-4 10 -9.5 20.5t-12.5 21.5q-5 8 -26 24q-24 18 -35 18q-29 -23 -48.5 -40t-30.5 -28q-3 -3 1 -6t4 -5q24 12 30 12q12 0 29 -18q15 -15 17 -28q1 -23 0 -210q0 -31 -20 -57q-12 -17 -36 -33q-20 -14 -20 -17
q0 -7 8 -9l25.5 18.5t25.5 9.5q19 0 62 -32l31 -24l31 -24l139 136q-5 8 -10 8q-4 0 -35 -33q-32 -33 -38 -33q-11 0 -81 55v242q3 11 25 27t27 16q7 0 63 -65z" />
    <glyph glyph-name="s" unicode="s" horiz-adv-x="479" 
d="M349 402l-59 -69q-62 -72 -72 -72q-5 0 -69 37v112l42 19q30 -38 91 -38q29 0 67 11zM315 85q0 -5 -7.5 -13.5t-14.5 -8.5q3 0 -43 24q-47 24 -83 24q-32 0 -69 -19l153 165l64 -38v-134zM447 93q-52 7 -52 27v115q0 46 52 65q-2 10 -5 13q-36 -27 -52 -27q-17 0 -85 41
l137 155l-8 9q-8 -8 -15 -16t-16 -14.5t-20.5 -10.5t-28.5 -4q-30 0 -71 26q-39 27 -35 27q-1 0 -33 -23l-25 -17t-11 -8q-72 -38 -172 -47l-2 -13q43 -1 56 -28q8 -18 8 -64q0 -63 -55 -100l9 -9q5 5 14 11.5t22 14.5q28 19 39 19q17 0 67 -39l-166 -191q4 -9 7 -9
q-4 0 30 23t60 23q64 0 131 -64q87 104 196 104h12q4 -1 6 -1h5z" />
    <glyph glyph-name="t" unicode="t" horiz-adv-x="329" 
d="M306 99l-6 6t-6 5q-44 -42 -48 -42q-57 32 -65 55v286h98v65h-98q1 25 1 48v46q1 16 20 52q10 18 38 37l13.5 8t14.5 8l-10 20q-22 -12 -35.5 -20t-18.5 -12q-68 -49 -97 -49q-20 0 -52 25q-10 0 -10 -10l21 -19q22 -20 23 -39q1 -26 1.5 -49.5t0.5 -43.5q-65 -2 -93 0
v-65h93v-245q-2 -47 -15 -66q-17 -23 -50 -42q-4 -2 -6.5 -3.5t-4.5 -2.5l6 -12l63 29l66.5 -57.5t33.5 -25.5z" />
    <glyph glyph-name="u" unicode="u" horiz-adv-x="505" 
d="M437 429q-26 -17 -30 -23q-12 -17 -12 -51q-4 0 -1 -227q0 -62 32 -62q16 0 32 16q17 17 19 17q8 0 8 -17q0 -4 -51 -50q-50 -45 -54 -45q-11 0 -34 22q-22 19 -25 25q-13 33 -14 56q-1 1 -75 -52t-77 -53q-3 3 -9 10l-13.5 16t-17 17.5t-19.5 14.5q-13 7 -23 7
q-11 0 -28 -14q-20 -17 -23 -18q-9 19 -7 21q43 19 55 53q7 18 7 68v174q0 19 -0.5 31t-1.5 17q-6 28 -29 28q-9 0 -42 -39q-10 0 -10 7q0 -2 87 105q2 2 3.5 5t3.5 5q6 9 9 9q25 0 48 -33q24 -38 24 -85v-227v-6t1 -15v-28q8 -42 43 -57q4 -2 50 35l35 28.5l12 9.5v247
q0 12 -47 54l12 7l84 69q49 -58 66 -58q8 0 25 11q11 7 18 11t9 5q5 -6 6 -10q-20 -14 -32 -21.5t-14 -9.5z" />
    <glyph glyph-name="v" unicode="v" horiz-adv-x="458" 
d="M446 459q1 4 -3 9q-44 -27 -57 -27q-24 0 -88 64l-122 -83q-2 7 -3.5 14t-3.5 14q-6 17 -23 31l-46.5 42.5t-29.5 42.5q-1 10 -1.5 16t-0.5 8q0 37 49 49l-6 8q-45 -2 -72 -30q-32 -32 -30 -89q7 -26 26 -49l38 -45q16 -15 16 -46l-1 -243q-9 -45 -45 -70l-28 -20l5 -11
l53 23l131 -80q13 11 21 19l12 12q44 48 125 65l39 14q-12 24 -12 42v231q0 14 6 34q9 30 51 55zM306 82q0 -5 -39 -17q-5 0 -87 51q-2 129 -3 200.5t-1 85.5l49 31l81 -63q-2 -54 0 -288z" />
    <glyph glyph-name="w" unicode="w" horiz-adv-x="676" 
d="M325 487q-116 -85 -120 -85t-29 -18l-2 24l-2 23q-4 37 -20 50l-51 42q-13 11 -20 22t-10 20t-3 15v10q0 37 49 49l-6 8q-45 -2 -72 -30q-32 -32 -30 -89q7 -26 26 -49l38 -45q16 -15 16 -46l-1 -253q-9 -45 -45 -70l-28 -20l5 -11l53 23l97 -70l44.5 52.5t19.5 22.5
q-5 0 -58 49v247q3 0 80 54q50 0 50 -78v-211q0 -11 -8 -25t-17 -18q-19 -8 -17 -16l39.5 -16.5l39.5 -16.5q47 -20 78 -50q2 -2 20 17l21.5 22t9.5 10q24 22 78 39q33 10 44 18q3 63 0 265q-1 19 15 32l42.5 31t16.5 13q-9 10 -12 15l-50 -31l-87 77l-125 -97q-1 0 -2.5 1
t-2.5 1q-5 32 -7 35q-33 39 -57 58zM509 366q1 -100 1 -171v-114q-34 -25 -41 -25t-41 21q-35 22 -38 26q-1 10 0 16v251q58 42 64 42t55 -46z" />
    <glyph glyph-name="x" unicode="x" horiz-adv-x="452" 
d="M452 112q-2 4 -4 6l-3 3q-41 -41 -62 -41q-30 0 -66 49q-31 41 -37 71q-1 3 -5.5 9t-4.5 8v6q1 1 0 3q30 1 96 0v49h-112q-9 4 -9 22q0 2 44 95l46 -29t30 -20l62 142l-10 8l-27 -56l-47 32.5l-30 21.5l-77 -172l-19.5 43l-19.5 43q-30 62 -78 86l-107 -118q0 -5 7 -9
l27 24q19 16 32 16q9 0 25 -10.5t21 -22.5l30.5 -65.5t12.5 -28.5h-102v-51h116l7 -20l-40 -92.5t-15 -33.5l-71 47l-72 -117l11 -5l29 45l49 -35l31 -22q6 0 88 190q35 -104 73 -141q39 -38 66 -45z" />
    <glyph glyph-name="y" unicode="y" horiz-adv-x="462" 
d="M457 414l-5 10q-42 -16 -50 -16q-30 0 -85 84l-83 -60.5t-58 -39.5q0 41 -11 58q-33 39 -44 39q-4 0 -115 -87l8 -10q27 24 40 24q37 0 37 -80v-310q0 -15 -6 -25l-27 -22.5t-17 -17.5q-19 -25 -19 -55q0 -44 36 -75q38 -32 82 -32q48 0 92 42q2 2 17.5 21.5l44.5 56.5
q33 42 60 42q24 0 37.5 -17t13.5 -41q0 -36 -24.5 -59t-61.5 -23q-5 0 -11.5 4t-10.5 4q-2 0 -5.5 -6t-5.5 -7q24 -11 45 -11q45 0 70.5 29.5t24.5 77.5q0 18 -8.5 34t-22.5 27.5t-32.5 18t-39.5 5.5q-56 -1 -103 -41l-22 -22.5l-45 -48.5q-35 -38 -60 -38q-23 0 -37.5 18
t-14.5 42q0 34 33 63q30 26 67 33l49 6l49 6q54 7 95 33q17 11 30.5 33t13.5 41l-1 215q0 24 29 48q24 19 51 29zM299 368v-258q0 -15 -6.5 -28.5t-18 -24t-26 -17t-29.5 -8.5q-6 -1 -19.5 -5t-21.5 -4v350l69 46l30.5 -30z" />
    <glyph glyph-name="z" unicode="z" horiz-adv-x="263" 
d="M254 433l-2 11q-1 0 -6 -2l-11 -4.5t-12.5 -4.5t-10.5 -2q-24 0 -58 32q-32 32 -34 32q-3 0 -50 -40q-53 -46 -56 -47q4 -9 9 -12q28 22 31 22q5 0 28 -20q25 -20 26 -25q3 -11 3 -33q0 -60 -10 -76q-18 -33 -88 -33l-1 -14q11 1 20 1h16q45 0 54 -20q6 -12 6 -79
q0 -57 -8 -76q-4 -11 -27 -46q-22 -36 -26 -48q-4 -14 -5.5 -24l-2.5 -17q0 -51 31 -82q28 -28 68 -28q72 0 89 84q-25 64 -59 64q-59 0 -59 -50q0 -16 14 -27t30 -11q25 0 29 -7q0 -2 1 -3v-3q0 -13 -14 -22.5t-27 -9.5q-34 0 -59 27q-25 26 -25 62q0 59 61 108
q55 46 117 51l-2 9q-7 2 -13 3.5t-12 3.5q-15 4 -15 18v59q0 46 -5 58q-9 18 -54 18q-23 0 -26 3l39 20l38 21q11 11 11 88q0 34 12 46q1 1 12 7.5t33 17.5z" />
    <glyph glyph-name="braceleft" unicode="{" horiz-adv-x="878" 
d="M381 593q29 23 68 23h35q88 0 88 54q0 8 -12 28h1q22 -7 22 -32q0 -41 -60 -54q-63 -7 -95 -9q-8 0 -22.5 -5t-21.5 -5h-3zM209 688q0 3 1 4q21 -6 24 -6q10 0 38 16q4 3 12 5q16 4 27 4q13 2 17.5 3.5t1.5 1.5q16 0 19 -8q-38 -23 -58 -52q4 -2 5 -2h3q4 0 7 3l2 2
q3 3 5 3h1l1 -2l2 -1q4 -6 11 -6t15.5 7t8.5 15v6q-1 3 -1 8t3 7q8 -8 8 -16q0 -14 -14 -26q-15 -17 -15 -31q0 -10 4 -17q5 -8 8.5 -14.5t6.5 -11.5q-2 11 -2.5 16.5t-1.5 9t-1 5.5v8q0 15 31 49q2 2 10.5 5t11.5 11q-15 5 -24 6.5t-9 12.5q0 2 4 1q17 0 67 -12
q8 -18 8 -27q0 -11 -10 -11q-3 0 -8.5 1t-7.5 1q-25 0 -43.5 -13t-18.5 -38q0 -27 32 -27q5 0 12 0.5t17 1.5q-11 -9 -32 -12q-9 -2 -18 -3l-18 -2q12 -12 46 -12q5 0 6 1q12 2 16.5 3t0.5 1q30 0 38 -20q-4 -1 -18 -1q-26 0 -48 7q-2 -2 -2 -5t2.5 -7.5t3.5 -6.5l-14 7
q-18 7 -21 7h-1q-4 0 -4 -3q0 -1 1 -4l1 -1q13 -16 27 -20q1 -1 33 -7q2 8 2 7q0 4 -4 8l-2 2q-3 1 -4 4h5q46 0 69 -27h-4q-11 0 -20 4q-15 5 -17 5q-4 0 -4 -5q0 -4 5.5 -10t9.5 -6h3l2 1h4q35 -12 35 -23q1 -2 0 -3q-18 9 -28 9q-4 0 -5 -4q47 -32 56 -64q-5 4 -11 4
t-13 -4l12 -26t7 -19q2 2 4 3.5t4 3.5q6 5 10 9.5t6 6.5q21 5 22 15q26 5 31 19q12 5 34 25l12.5 13l17.5 18q0 4 -2.5 10t-4.5 11.5t-4 9.5l-2 4q0 4 12 40l9.5 28.5t4.5 12.5q2 5 9 5q4 0 11 -1.5t10 -1.5q11 0 18 4q6 0 13 -2t13.5 -5.5t11 -7.5t4.5 -8q0 -6 -6 -13
q-5 9 -16 14q-11 -11 -12 -11q-8 0 -11 1q-6 0 -14 -2q4 -21 -10 -21q-7 0 -15 4v-12q4 -9 11 -16l-2 -1q-20 -5 -21 -6q4 -9 15 -17q-6 -1 -11 -2t-9 -2q5 -11 9.5 -17.5l6.5 -9.5l-136 -123q-2 4 -4 6.5t-3 4.5q-5 9 -14 15l-3 -8q0 1 17 -35h-1q-2 0 -7 2.5t-8 2.5h-2
q-3 0 -3 -3q0 -2 1 -3q0 -16 -1 -17q-1 -4 -17 -21q-15 -15 -19 -15q-14 0 -14 17q0 11 10 15q3 -2 7 -5t9 -5q5 20 9.5 34.5l7.5 24.5l-13 8q-2 -14 -4.5 -24.5t-6.5 -18.5q-10 10 -17.5 19.5t-14.5 17.5q-13 -8 -17 -29q-8 4 -19 18q-14 19 -21 30q-8 -17 -32 -17
q-6 0 -19 8q35 0 47 30l6 -8q22 -25 37 -25q5 0 5 10q1 3 1 11v12q-1 5 -1 12l24.5 -17l17.5 -12q5 20 5 28q0 6 -11 23q-3 -11 -3 -19q-1 -2 -1 -9q-3 1 -21 15q-17 14 -21 14q-4 -13 -3 -22v-26l-10.5 9t-6.5 7l-23 23q-4 -11 -8 -17q-14 -26 -32 -26q-10 0 -22 4l1 1
q6 4 10.5 6.5t6.5 4.5q13 2 23 19q4 8 8 15l8 14l39 -23v39l47 -27l-1 33q-1 5 -2.5 7t-9.5 8v-25l-48 27v-36q-19 7 -33 19l-5 -11.5t-4 -7.5q-14 -38 -31 -38q-6 0 -10 3q41 36 46 78q14 -11 21 -16l7 -5l3 21.5t2 9.5q28 -19 35 -19t7 13q0 11 -10 32q-2 -6 -3 -12
l-2 -12q-11 7 -20 11.5t-16 7.5q-6 -18 -6 -27q-4 2 -6.5 4t-4.5 4l-8.5 7t-7.5 7q-6 -10 -9 -23q-10 -40 -22 -50q-1 5 -1.5 9t-0.5 7q0 6 1.5 15.5t4 19.5t4.5 19t2 15q13 -13 18 -14q3 18 3 30q0 14 -9 17q-3 -22 -4 -24q-7 6 -19 25q-1 -52 -16 -76q-1 8 -1.5 13.5
t-0.5 8.5q0 7 3.5 18.5t3.5 17.5q0 8 -7 18q-2 -4 -4 -7.5t-3 -7.5q-6 -22 -8 -27q-1 40 -14 70q-1 9 -23 38q-17 31 -17 36q0 4 11 9q-39 16 -39 27zM27 501q0 8 7 16q44 -40 134 -55l9 7l-23.5 12l-13.5 7q-84 46 -84 86q0 2 2 12l2 8q17 -18 67 -55t59 -37h5l2 9
q-13 7 -30 22t-38 40q-45 52 -45 76q0 23 3 28q53 -86 124 -148l6 9q-26 31 -40 49.5l-18 23.5q-31 46 -31 82q0 20 7 23q19 -28 31.5 -49.5t20.5 -36.5l28 -39l28 -38q41 -58 41 -77q0 -22 -32 -30q-7 -3 -7 -8q0 -18 29 -49q30 -30 51 -36q29 -20 39 -20q22 0 30 8
q16 -25 47 -47q5 10 7.5 17t4.5 11l14 -19q-17 -14 -17 -27q0 -17 24 -26q0 -14 12 -36q11 -21 22 -26q0 -15 4 -19l32 -40.5t14 -16.5q3 -12 10 -16q2 0 7 -2.5t10 -13.5l9 -15q12 -20 24 -20q2 0 13 6q36 27 62 27q6 0 7 -7t1 -5q0 -5 4 -9l8 6v9q-1 4 -1 9q1 10 7 10
q2 0 6 -4l1 -2q6 -3 7 -3q3 0 4.5 1t2.5 1q7 0 14.5 -10.5t7.5 -18.5q0 -5 -4 -14v-1h-1l-1 4q-6 13 -16 13q-15 0 -15 -12q0 -2 1 -5t1 -4q-35 13 -42 13q-14 0 -35 -8l16.5 -6.5t10.5 -4.5q13 -5 19 -6v-1l-1 -3q-1 -1 -1 -7l2 -6q2 2 4 3.5l2 1.5q9 9 14 9q7 0 11 -7
q-6 -2 -8 -3t-9 -8q30 1 30 -21q0 -2 -1 -7.5t-1 -8.5q0 -7 3 -14l-9 3q-2 1 -3 6q-10 21 -16 22q-1 -2 -3.5 -5.5t-3.5 -4.5q-2 -2 -3.5 -3t-2.5 -2q-7 0 -17 10q-7 12 -8 17q-17 22 -48 39q-4 -4 -4 -10q0 -3 2 -8.5t2 -7.5q-9 0 -15 -9h14q19 0 19 -11v-2q-10 -1 -20 -8
q17 -2 20.5 -5t3.5 -15q0 -11 -8 -19l-5 -5l-1 1l-3 1l-3 3q1 3 1 9q0 16 -28 20q-4 4 -7 10q0 6 1 18t1 19q0 33 -22 33q-11 0 -15 -12l-9 9q-5 -8 -5 -10q0 -4 1 -5l1 -5v-3q-13 10 -13 22q0 17 10 24q1 1 2 1.5t2 1.5l5 2q8 5 11 9q-16 7 -72 83q-54 76 -54 91
q0 4 1.5 12t1.5 12v3l-8 7q-10 -21 -10 -39q0 -5 4.5 -14t4.5 -11q0 -7 -21 -20q-20 -14 -30 -15q-31 -7 -69 -7q-4 0 -33 20q-35 22 -54 30l-9 2l-12 5q4 5 9 8.5t10 5.5l55 16.5t49 32.5h-10q-66 -32 -88 -32q-7 0 -9 1h-1q41 17 59 38l-9 5q-7 -4 -12 -6.5l-9 -4.5
q-41 -25 -61 -25q-6 0 -7 1q50 24 62 38l-7 5q-58 -34 -83 -34q-10 0 -16 6q62 19 86 44l-8 10q-8 -14 -39 -24q-33 -11 -48 -11q-33 0 -45 15q20 2 35 4t24 4q41 8 65 32q-66 -17 -115 -17q-21 0 -40 18q31 10 140 10v4q0 6 -26 8h-18q-6 -1 -9 -1h-3q-30 0 -60 8
q-41 11 -39 34q38 -19 131 -19h7l2 11q-55 9 -83 18q-17 4 -39 23q-24 19 -24 34zM697 599q6 24 23 24q9 0 16.5 -8.5t7.5 -17.5v-4l4 2q-10 6 -29 8q-5 -1 -8 -2t-5 -2h-1q-1 -1 -1 -2q0 -4 2 -2q3 0 5 5l-6 -1l-2 -1q-2 0 -3 1h-3zM531 415q2 4 5 7l5 5q11 -8 11 -26
q0 -11 -11 -11h-3l-3.5 14t-3.5 11zM514 384q0 3 1 3v1h1l1 1l3 -1l4 -1l1 -1q1 0 2 -1q-2 -4 -3.5 -6.5t-3.5 -4.5l-4 4zM555 435q0 9 13 10q12 -24 12 -25q0 -8 -15 -12q-10 21 -10 27zM581 452q0 10 12 10q2 0 8 -7.5t6 -11.5q0 -7 -14 -15q-12 13 -12 24zM607 471
q0 4 8 9l3 1q12 -17 12 -21q0 -9 -10 -9q-4 0 -8.5 7.5t-4.5 12.5zM631 486q0 5 6 7q7 -11 7 -19q-2 -3 -6 -3q-7 13 -7 15zM44 129q0 44 27 77q27 34 70 34q25 0 67 -19q45 -18 63 -34q14 -11 25.5 -21l22.5 -20l26.5 -22.5l16.5 -13.5q7 0 10.5 5t4.5 8q5 11 22 11
q8 0 23 -7.5t28 -7.5q18 0 28 10q4 6 6 8l2 2q-2 -16 -18.5 -27.5t-33.5 -11.5q-9 0 -35 8q11 -23 34 -23q42 0 68 32q-6 -19 -26.5 -30t-42.5 -11l-6 0.5l-18 1.5q12 -17 30 -17q46 0 72 39q-6 -23 -29 -36.5t-50 -13.5t-41 11q-5 5 -9 9.5t-6 6.5l-61 49.5t-43 37.5
q-70 58 -119 58q-18 0 -32 -7.5t-24.5 -20t-16 -28.5t-5.5 -34q0 -24 8 -45q11 -26 33 -26q4 0 7 6l2 3q-3 15 11 66q14 48 27 65q61 -18 87 -43h-1q-15 -4 -20 -13q17 -2 24.5 -2.5t18.5 -3.5q10 -2 26 -17q15 -14 15 -22q0 -13 -23 -42q-18 -23 -36 -36q-35 -23 -54 -30
l13 -8q22 0 39 13q32 23 43 23q10 1 16 2t8 2q24 10 30 10t16.5 -1.5t15.5 -1.5q9 0 28 3.5t29 3.5q30 0 30 -23q0 -5 -2 -5q-14 8 -18 8q-24 0 -46 -11l12 -8q4 0 12 1.5t11 1.5q28 0 28 -22q0 -7 -3 -11q-1 2 -3 4q-5 4 -9 6q-4 -4 -4 -11q0 -3 1 -4v-4q-11 1 -18 6
q-15 6 -17 6h-2q-4 0 -4 -3t2 -5q13 -6 13 -21q0 -6 -1 -7q-8 2 -11 10h-9q-3 -6 -4.5 -10t-3.5 -5q-24 14 -34 23q-10 4 -17.5 6.5t-12.5 3.5l-22 8q-11 0 -27.5 -1.5l-39.5 -3.5q-44 -6 -66 -6q-35 0 -35 26v7q8 7 13 7q3 0 8 -4t9 -4q17 0 24 16q-37 19 -43 19
q-7 0 -11 -4l-2 -2q-5 -4 -12 -4q-37 0 -59 39q-20 34 -20 72zM684 497l12 3q-1 -2 -1 -4t-1 -3q-3 1 -5.5 2t-4.5 2zM694 523q4 0 9 3t9.5 6t7.5 6l3 3h27q12 0 20 1q5 -5 5 -14q0 -11 -8 -11t-23.5 -3t-22.5 -3q-15 0 -27 12zM679 474q2 1 6 2t9 2q0 -9 -1 -12q-7 2 -14 8
zM484 247q0 7 27 30q2 1 4.5 3.5l3.5 3.5q3 -8 5 -14t3 -10q-22 -21 -37 -29q-6 7 -6 16zM709 490q0 1 2 9q5 0 9 -2q20 7 42 7q13 0 13 -7q0 -6 -5 -11q-57 -3 -56 -3q-5 0 -5 7zM705 455q0 12 1 14q7 0 21 2t21 2q11 0 16 -3v-9q-35 -13 -48 -13q-2 0 -5.5 2.5t-5.5 4.5z
M497 217l19.5 14t17.5 14q1 -3 3 -9.5t3 -9.5q-20 -26 -32 -26q-8 0 -11 17zM516 184l1 5l29 23l8 -17l-29 -24q-4 0 -5 3l-2 1q-2 8 -2 9zM618 354q0 28 1 31q23 -4 39 -4q10 0 42 8v28q-1 9 -1 15v12l4 -3q4 -4 10 -4q5 0 15 2.5t15 2.5h4v-8q0 -4 1 -9v-18q0 -12 -1 -17
q18 -5 37 -5q21 0 42 6q1 -4 1 -18q0 -80 -108 -80q-38 0 -65 13q-36 16 -36 48zM532 158q0 3 3 3q9 7 15.5 11.5l10.5 7.5l8 -12l-29 -23q-8 11 -8 14v-1zM551 133l11 11l8 6.5t5 4.5l6 -11q-17 -20 -22 -20q-8 0 -8 9zM569 111v3q3 4 8 8t12 9l8 -11q-11 -18 -20 -18
q-8 0 -8 9zM586 92l18 17l7 -12q-10 -10 -17 -12h-2l-4 4zM599 74q13 9 19 11l2 -5q-14 -14 -17 -14h-1v2zM611 55q7 9 16 15l2 -5q-14 -10 -16 -10h-2zM206 505q0 -15 16 -19q-1 22 20 38h-14q-22 0 -22 -19zM189 459q0 -19 17 -19q4 0 9 3q-11 8 -11 16q0 7 20 16
q-11 4 -16 4q-19 0 -19 -20zM187 410q0 -22 35 -22q-20 11 -20 21q0 9 19 22q-34 0 -34 -21zM208 373q0 -3 1 -6v-8q7 -7 15 -7h7q1 1 26 1q-36 9 -36 25q0 6 2 8l-4 3q-2 -3 -6 -7q-5 -7 -5 -9zM243 345q0 -20 21 -20q16 0 22 20q-7 -2 -12 -4t-8 -2q-6 0 -10 10q-1 3 -2 5
l-2 4l-4 -4q-2 -2 -3 -2q-2 -6 -2 -7zM290 327q0 -7 7 -13.5t14 -6.5q16 0 22 20q-9 -3 -12 -4.5t-8 -1.5q-6 0 -10 9t-4 10l-6 -6q-3 -3 -3 -7zM354 -4q8 -17 23 -21q10 -2 18 -2.5t13 -1.5q-3 10 -16 14q1 0 -22 5q-7 1 -16 6zM332 667q-5 0 -7 8q10 5 13 7l1 -10
q-2 -5 -7 -5z" />
    <glyph glyph-name="bar" unicode="|" horiz-adv-x="182" 
d="M74 0h44v674h-44v-674z" />
    <glyph glyph-name="braceright" unicode="}" horiz-adv-x="878" 
d="M473 593q-29 23 -67 23h-35q-88 0 -88 54q0 4 11 28q-22 -7 -22 -32q0 -41 60 -54q63 -7 95 -9q8 0 22.5 -5t21.5 -5h2zM646 688q0 3 -1 4q-21 -6 -25 -6q-9 0 -38 16q-27 9 -38 9q-13 2 -17.5 3.5t-1.5 1.5q-16 0 -19 -8q20 -11 34 -24.5t24 -27.5l-5 -2h-3q-4 0 -7 3
l-2 2l-6 3h-1l-1 -2l-1 -1q-5 -6 -11 -6q-8 0 -16 6.5t-8 15.5q0 3 1 6v8q0 6 -4 7q-7 -7 -7 -16q0 -14 14 -26q15 -17 15 -31q0 -9 -4 -17q-5 -8 -8.5 -14.5t-7.5 -11.5q2 9 3 15.5t2 10.5q0 4 1 7v6q0 12 -31 49q-3 3 -11 5t-12 11q17 5 25.5 6.5t8.5 12.5q0 2 -4 1
q-18 0 -67 -12q-9 -18 -9 -27q0 -11 11 -11q3 0 8.5 1t7.5 1q25 0 43.5 -13t18.5 -38q0 -27 -33 -27q-5 0 -12 0.5t-16 1.5q8 -8 26 -11q27 -5 42 -6q-12 -12 -46 -12q-6 0 -7 1q-10 2 -14 3t-2 1q-30 0 -39 -20q4 -1 18 -1q27 0 48 7q3 -3 3 -5q0 -1 -2 -9l-5 -5l15 7
q14 7 21 7h1q4 0 4 -3q0 -2 -2 -4v-1h-1q-11 -15 -26 -20q-1 -1 -33 -7q-2 4 -2 7q0 4 4 8l2 2q3 3 3 4h-4q-48 0 -70 -27h4q10 0 22.5 4.5t14.5 4.5q5 0 5 -5q0 -4 -5.5 -10t-9.5 -6h-3l-3 1h-3q-36 -11 -36 -23q-2 -2 0 -3q18 9 28 9h1q4 0 5 -4q-47 -32 -56 -64q5 4 10 4
q6 0 13 -4q-7 -15 -11.5 -26t-7.5 -19q-3 3 -5 4.5t-3 2.5q-11 10 -15 16q-20 5 -23 15q-25 4 -30 19q-17 5 -65 56q2 6 4 11l4 10l4.5 10.5l1.5 3.5q0 4 -12 40l-9.5 28.5t-4.5 12.5q-2 5 -10 5q-3 0 -9.5 -1.5t-10.5 -1.5q-11 0 -18 4q-6 0 -13 -2t-14 -5.5t-11.5 -7.5
t-4.5 -8q0 -5 7 -13q5 9 16 14q11 -11 12 -11q8 0 10 1q6 0 14 -2q-5 -21 10 -21q8 0 16 4v-12l-4.5 -7t-6.5 -9l2 -1q19 -6 20 -6q-5 -9 -14 -17q8 -2 12.5 -2.5t6.5 -1.5q-5 -11 -15 -27l136 -123q2 4 4 6.5t3 4.5q4 7 14 15l3 -8q-2 -6 -4 -10.5t-4 -8.5q-4 -7 -6 -11
t-3 -5h1q2 0 7 2.5t8 2.5h1q4 0 4 -3v-1q-1 -1 -1 -2q0 -16 1 -17q1 -5 17 -21q15 -15 19 -15q14 0 14 17q0 9 -10 15q-6 -6 -16 -10l-11 39.5t-6 19.5l12 8q7 -37 12 -43q20 20 31 37q14 -8 18 -29q9 5 20 19.5t19 28.5q11 -17 33 -17q6 0 19 8q-34 0 -47 30l-6 -8
q-22 -25 -37 -25q-5 0 -6 10v11q0 7 1 12v12l-24.5 -17l-17.5 -12q-5 20 -5 28q0 9 11 23q2 -10 2.5 -16.5t1.5 -11.5q7 5 11.5 8.5t7.5 5.5q16 15 23 15q3 -14 3 -22v-26q27 25 39 39q7 -14 9 -17q12 -26 32 -26q10 0 22 4l-2 1q-5 4 -9 6.5l-7 4.5q-13 2 -23 19
q-4 8 -8 15l-8 14l-39 -23v39l-47 -27l1 33q1 4 3 7t8 8l1 -25l48 27v-36q10 4 17.5 9l14.5 10q5 -7 10 -19l10 -24q9 -14 21 -14q4 0 9 3q-41 37 -45 78l-16 -12t-12 -9q-2 7 -3 14.5t-2 16.5q-32 -19 -35 -19q-8 0 -8 13q0 12 11 32q2 -6 3 -12l2 -12l20 10.5t16 8.5
l6 -27q3 1 10 8q14 11 16 14q7 -13 9 -23q12 -41 23 -50q1 3 1 16q0 11 -2 19q-3 17 -5 29.5t-4 20.5q-13 -13 -18 -14q-4 15 -4 30q0 13 10 17q3 -23 4 -24q7 6 19 25q1 -52 16 -76q1 8 1.5 13.5t0.5 8.5q0 7 -4 18.5t-4 17.5q0 8 8 18q5 -8 7 -15q7 -24 7 -27
q2 24 5.5 41.5t8.5 28.5l23 38q18 30 18 36q0 4 -11 9q39 16 39 27zM827 501q0 8 -6 16q-44 -40 -134 -55l-9 7q11 5 20 10l16 9q84 48 84 86q0 9 -1 12l-2 8q-10 -10 -27 -23.5l-40 -30.5q-52 -38 -60 -38h-4l-3 9q26 13 70 63q44 52 44 75q0 24 -4 28q-52 -84 -123 -148
l-7 9q49 61 57 72q32 47 32 83q0 21 -6 23q-19 -28 -31.5 -49.5t-20.5 -36.5l-28 -39l-28 -38q-41 -58 -41 -77q0 -20 19 -27q20 -6 20 -11q0 -19 -30 -49t-50 -36q-28 -20 -40 -20q-21 0 -29 8q-19 -28 -48 -47q-4 10 -6.5 17t-4.5 11l-14 -19q16 -12 16 -27q0 -18 -23 -26
q0 -13 -12 -35q-12 -23 -22 -27q-3 -18 -4 -19q-19 -26 -30.5 -40t-15.5 -17q-3 -12 -10 -16q-1 0 -5.5 -1t-12.5 -15q-3 -8 -9 -15q-12 -20 -24 -20q-3 0 -13 6.5l-16 10.5q-26 16 -45 16q-6 0 -7 -6q-1 -1 -2 -6t-3 -9l-8 6q0 5 1 9v9q-1 10 -7 10q-2 0 -6 -4l-2 -2l-6 -3
q-3 0 -4.5 1t-2.5 1q-7 0 -14.5 -10.5t-7.5 -18.5q0 1 3 -14l1 -1l2 4q4 13 15 13q15 0 15 -12q0 -10 -1 -9q35 13 41 13q15 0 36 -8l-16.5 -6.5t-10.5 -4.5q-3 -1 -9.5 -3t-10.5 -3v-1l1 -3q2 -6 2 -7l-2 -6l-7 5q-9 9 -13 9q-7 0 -11 -7l8 -4q1 0 8 -7q-30 1 -30 -21
q0 -2 1.5 -7.5t1.5 -8.5q0 -7 -3 -14l9 3q1 1 6 15q4 10 13 13q6 -9 7 -10q3 -5 6 -5q7 0 17 10q2 5 4 9.5t3 7.5q16 22 49 39q4 -7 4 -10t-2 -8.5t-2 -7.5q7 0 15 -9h-14q-19 0 -19 -11v-2q9 -1 19 -8q-16 -2 -20 -5.5t-4 -14.5q0 -10 9 -19l5 -5l1 1l2 1q1 1 2 1.5t2 1.5
q-1 3 -1 9q0 16 28 20q4 4 7 10q0 6 -1 18t-1 19q0 33 22 33q9 0 15 -12l9 9q5 -8 5 -10q0 -1 -1 -5l-1 -5v-3q12 12 12 22q0 16 -9 24q0 3 -4 3l-5 2q-9 6 -12 9q17 8 71 83q55 76 55 91q0 4 -1 12t-1 12v3l8 7q9 -26 9 -39q0 -7 -4 -15t-4 -10q0 -6 20 -20q21 -14 31 -15
q16 -4 33 -5.5t35 -1.5q1 0 33 20q41 26 55 30l8 2q6 2 9 3.5l3 1.5q-7 10 -19 14q-27 8 -54.5 17t-49.5 32h11q66 -32 88 -32q7 0 9 1q-35 14 -59 38l9 5l13 -6.5t8 -4.5q41 -25 61 -25q7 0 8 1q-49 22 -62 38l7 5q58 -34 83 -34q10 0 16 6q-62 19 -86 44l8 10
q7 -13 40 -25q29 -10 47 -10q33 0 45 15q-22 2 -37 4t-23 4q-40 8 -64 32q66 -17 114 -17q22 0 40 18q-29 10 -139 10l-1 4q0 6 27 8h18q6 -1 9 -1h3q30 0 60 8q41 11 39 34q-38 -19 -132 -19h-7l-1 11q50 9 83 18q16 4 40 23q22 19 22 34zM157 599q-5 24 -22 24
q-9 0 -16.5 -8.5t-7.5 -17.5v-4l-4 2q9 6 28 8q4 -1 7.5 -2t6.5 -2q2 0 2 -2q0 -4 -3 -2q-3 0 -5 5l7 -1l2 -1q2 0 3 1h2zM323 415q-3 7 -9 12q-12 -8 -12 -26q0 -11 12 -11h2q7 17 7 25zM341 384q0 2 -1 3l-1 1h-1l-1 1l-2 -1h-2q-1 -1 -3 -1.5t-2 -1.5q2 -6 7 -11l1 1l2 3
q3 3 3 6zM299 435q0 8 -12 10q-12 -24 -12 -25q0 -7 14 -12q10 17 10 27zM273 452q0 10 -11 10q-3 0 -8.5 -7.5t-5.5 -11.5q0 -8 13 -15q12 13 12 24zM248 471q0 4 -9 9l-2 1q-13 -13 -13 -21q0 -9 11 -9q4 0 8.5 7.5t4.5 12.5zM224 486q0 5 -6 7q-7 -8 -7 -19q1 -3 5 -3
q8 11 8 15zM810 129q0 44 -27 77q-27 34 -70 34q-24 0 -66 -19q-44 -18 -64 -34l-24.5 -21l-22.5 -20q-41 -36 -44 -36q-7 0 -10 5q-3 3 -4 8q-8 11 -22 11q-8 0 -24 -7.5t-27 -7.5q-17 0 -35 18q0 2 -2 2q3 -16 19.5 -27.5t33.5 -11.5q10 0 34 8q-9 -23 -34 -23
q-41 0 -67 32q5 -19 26 -30t43 -11l6 0.5l18 1.5q-12 -17 -31 -17q-46 0 -71 39q5 -23 28 -36.5t50 -13.5q25 0 42 11q5 5 9 9.5t6 6.5l29.5 22.5t20.5 17.5l52 46t28 22q50 37 93 37q18 0 32 -7.5t24.5 -20t16 -28.5t5.5 -34q0 -26 -9 -45q-11 -26 -33 -26q-1 0 -7 6l-1 3
q3 16 -12 66q-14 48 -27 65q-61 -18 -87 -43h2q14 -5 19 -13q-17 -2 -24 -2.5t-18 -3.5q-10 -1 -26 -16q-15 -14 -15 -23q0 -30 59 -78q17 -11 30 -18l23 -12l-12 -8q-10 0 -20.5 4.5t-20 10t-17.5 11.5t-14 9q-2 1 -10 1q-10 1 -16 2t-8 2q-24 10 -30 10q-5 0 -16 -1.5
t-17 -1.5q-9 0 -27.5 3.5t-28.5 3.5q-30 0 -30 -23v-3q0 -2 2 -2q14 8 18 8q24 0 46 -11l-12 -8q-5 0 -12.5 1.5t-10.5 1.5q-28 0 -28 -22q0 -7 3 -11q1 2 4 5t7 5q4 -4 4 -11q0 -6 -1 -8q12 2 19 6q15 6 17 6h2q3 0 3 -3t-2 -5q-13 -7 -13 -21q0 -5 2 -7q7 2 11 10h9
q1 -3 3 -7.5t5 -7.5q21 12 33 23q11 4 18.5 6t12.5 4l22 8q11 0 27.5 -1.5l38.5 -3.5q45 -6 67 -6q35 0 35 26q0 6 -1 7q-7 7 -12 7q-3 0 -8.5 -4t-9.5 -4q-16 0 -23 16q15 7 21 12q11 7 22 7q7 0 11 -4l2 -2q5 -4 12 -4q36 0 59 39q19 32 19 72zM170 497q-3 1 -11 3
q1 -2 1 -7q3 1 5.5 2t4.5 2zM160 523q-8 0 -24 16l-3 1.5l-1 0.5h-28q-11 0 -19 1q-6 -6 -6 -14q0 -11 8 -11t24 -3t23 -3q15 0 26 12zM176 474q-3 1 -7 2t-9 2q0 -9 1 -12q8 2 15 8zM371 247q0 7 -27 30q-2 1 -8 7q-6 -17 -9 -24q36 -28 38 -29q6 7 6 16zM146 490q0 1 -2 9
q-7 0 -9 -2q-20 7 -42 7q-14 0 -14 -7q0 -5 6 -11q54 -3 56 -3q5 0 5 7zM150 455q0 12 -1 14q-8 0 -22 2t-21 2q-12 0 -16 -3v-9q35 -13 49 -13q3 0 6 3.5t5 3.5zM358 217l-19.5 14t-17.5 14q-2 -6 -4 -10.5t-3 -8.5q20 -26 33 -26q8 0 11 17zM338 184v5l-29 23l-8 -17
q24 -24 29 -24q3 0 5 3l1 1q2 8 2 9zM237 354q0 10 -0.5 18t-1.5 13q-12 -2 -21.5 -3t-16.5 -1q-10 0 -42 8v32q0 14 1 23l-4 -3q-4 -4 -10 -4t-15.5 2.5t-14.5 2.5h-4v-17q-1 -6 -1 -11v-7q0 -12 1 -17q-18 -5 -37 -5q-21 0 -42 6q-1 -6 -1.5 -10.5t-0.5 -7.5
q0 -80 109 -80q37 0 64 13q37 16 37 48zM323 158q0 3 -3 3q-9 7 -15.5 11.5l-10.5 7.5l-8 -12l28 -23q9 9 9 14v-1zM304 133q0 -3 -25 22l-5 -11q14 -20 21 -20q9 0 9 9zM286 111v3q-7 6 -11.5 10.5t-8.5 6.5l-8 -11q9 -18 20 -18q8 0 8 9zM268 92l-17 17l-7 -12
q7 -10 16 -12h3q1 1 2 2.5l1 1.5zM255 74l-12 7.5t-6 3.5l-3 -5q14 -14 18 -14h1l-1 2zM244 55q-7 9 -16 15l-3 -5q19 -10 17 -10h2zM649 505q0 -15 -16 -19q1 22 -21 38h15q22 0 22 -19zM666 459q0 -19 -17 -19q-4 0 -10 3q11 6 11 16q0 7 -19 16q11 4 16 4q19 0 19 -20z
M668 410q0 -22 -35 -22q19 10 19 21q0 9 -19 22q35 0 35 -21zM646 373v-14q-7 -7 -15 -7h-7q-1 1 -26 1q36 9 36 25q0 2 -2 8l4 3q1 -2 5.5 -7.5t4.5 -8.5zM612 345q0 -7 -7 -13.5t-14 -6.5q-17 0 -22 20q18 -6 19 -6q7 0 10.5 9t4.5 10l6 -6q3 -3 3 -7zM564 327
q0 -20 -21 -20q-16 0 -21 20q10 -3 12.5 -4.5t6.5 -1.5q9 0 10 10q1 2 2 4.5t2 4.5q5 -3 6 -4.5l1 -1.5q2 -6 2 -7zM501 -4q-3 -9 -9.5 -13.5t-14.5 -7t-16 -3.5t-14 -1q3 10 15 13.5t23 5.5q7 1 16 6zM523 667q4 0 7 8q-7 2 -14 7l-1 -10q5 -5 8 -5z" />
    <glyph glyph-name="asciitilde" unicode="~" horiz-adv-x="291" 
d="M-8 859q23 23 86 23q15 0 43 -14q27 -13 44 -13q87 0 127 82q-15 -10 -41 -17q-29 -8 -44 -8q-18 0 -49 14q-30 14 -46 14q-41 0 -75 -21q-38 -23 -45 -60z" />
    <glyph glyph-name="quotesinglbase" unicode="&#x201a;" horiz-adv-x="214" 
d="M90 -24q19 37 35 53q14 12 53 34q-29 6 -49 21q-25 22 -37 63q-17 -39 -31 -55q-15 -16 -52 -34q34 -20 47 -32l-10 -44q-6 -26 -6 -84h34q2 28 6.5 47.5t9.5 30.5z" />
    <glyph glyph-name="florin" unicode="&#x192;" horiz-adv-x="488" 
d="M324 444h76l13 55h-77l28 117l84 -21l34 82l-87 23q-23 -17 -55.5 -38l-74.5 -46l-27 -117h-46l-13 -55h46l-108 -466l-65 -42l-31 30l-14 -13l92 -92q73 55 141 75l6 12q-23 17 -23 47q0 10 3 25z" />
    <glyph glyph-name="quotedblbase" unicode="&#x201e;" horiz-adv-x="409" 
d="M290 -24q19 37 35 53q14 12 53 34q-29 6 -49 21q-25 22 -37 63q-17 -39 -31 -55q-15 -16 -52 -34q34 -20 47 -32l-10 -44q-6 -26 -6 -84h34q2 28 6.5 47.5t9.5 30.5zM90 -24q19 37 35 53q14 12 53 34q-29 6 -49 21q-25 22 -37 63q-17 -39 -31 -55q-15 -16 -52 -34
q34 -20 47 -32l-10 -44q-6 -26 -6 -84h34q2 28 6.5 47.5t9.5 30.5z" />
    <glyph glyph-name="ellipsis" unicode="&#x2026;" horiz-adv-x="865" 
d="M78 36q33 -50 83 -50q54 0 95 84q-24 -8 -30 -8q-36 0 -77 59zM371 36q33 -50 83 -50q54 0 95 84q-24 -8 -30 -8q-36 0 -77 59zM665 36q33 -50 83 -50q54 0 95 84q-24 -8 -30 -8q-36 0 -77 59z" />
    <glyph glyph-name="dagger" unicode="&#x2020;" horiz-adv-x="510" 
d="M414 380l70 74l-70 74q-62 -53 -145 -61q3 108 65 179l-78 75l-78 -73q34 -51 45 -83q8 -22 13 -46t7 -52q-76 7 -146 61l-72 -73l72 -76q73 61 147 63q-4 -85 -67 -141q17 -43 29 -83.5t18 -79.5q8 -51 12.5 -126t6.5 -177h26q-1 8 -1 14v10q0 292 66 442
q-64 57 -65 141q83 -5 145 -62z" />
    <glyph glyph-name="daggerdbl" unicode="&#x2021;" horiz-adv-x="510" 
d="M413 380l70 74l-70 75q-68 -58 -145 -62q4 116 65 181l-78 73l-78 -73q56 -74 64 -181q-81 5 -144 62l-72 -75l72 -74q66 57 144 62q-7 -98 -64 -161q57 -69 64 -166q-76 3 -144 62l-72 -74l72 -74q70 55 144 61q-7 -110 -64 -180l78 -75l80 75q-61 70 -67 180
q78 -9 145 -61l72 74l-72 74q-72 -57 -145 -62q9 104 65 166q-61 74 -65 161q80 -5 145 -62z" />
    <glyph glyph-name="circumflex" unicode="&#x2c6;" horiz-adv-x="335" 
d="M51 515l120 48l122 -50l3 6l-128 102l-119 -100z" />
    <glyph glyph-name="perthousand" unicode="&#x2030;" horiz-adv-x="794" 
d="M761 332q11 11 11 15l-4 10q-5 0 -24 -12l-40 39q-8 8 -11 8h1l-4 -1q-22 -25 -42 -34q-33 -14 -72 -14q-2 1 -4 1q-1 0 -3 1q-5 1 -8.5 1.5t-7.5 1.5q0 -4 -1 -5q-3 -9 -3 -13q14 -17 14 -40q-1 -53 -1 -106v-108q-15 -24 -25 -36q-3 -3 1.5 -6.5t7.5 -3.5q33 0 49 -22
q9 -13 12 -13q2 0 24 16q24 16 30 18q11 4 33.5 4.5t57.5 -3.5q-11 25 -11 64v195q0 21 11 35l2 2zM520 332q11 11 11 15l-3 10q-6 0 -25 -12l-40 39q-8 8 -11 8h1l-4 -1q-22 -25 -42 -34q-33 -14 -72 -14q-2 1 -4 1q-1 0 -3 1q-4 1 -8 1.5t-8 1.5v-5q-4 -8 -4 -13
q16 -17 14 -40v-214q-12 -21 -26 -36q-2 -3 2 -6.5t8 -3.5q33 0 49 -22q9 -13 11 -13q3 0 25 16t29 18q11 4 33.5 4.5t57.5 -3.5q-11 25 -11 64v195q0 21 11 35l2 2zM277 307l177 309q-2 7 -12 15q-16 10 -20 4l-177 -309l-182 -320l31 -19zM224 589q11 11 11 15l-3 9
q-5 0 -25 -11l-40 39q-8 8 -11 8h1l-4 -1q-22 -25 -42 -34q-33 -14 -66 -14q-1 0 -3.5 0.5l-7.5 1.5q-12 1 -18 3q0 -4 2 -9.5t2 -7.5q7 -19 6 -41v-214q-13 -23 -26 -36q-3 -4 0 -8q3 -5 7 -5q31 0 52 -23q10 -12 15 -12q2 0 21 16q21 16 26 18q29 10 94 4q-11 25 -11 64
v195q0 20 11 34q0 1 2 3zM676 297l1 -234l-11.5 -8t-6.5 -5q-1 0 -33 32v241q20 11 26 11q2 0 24 -37zM435 297l1 -234l-11.5 -8t-6.5 -5q-1 0 -33 32v241q20 11 26 11q2 0 24 -37zM115 591q2 0 26 -37l-1 -239l-11.5 -5t-6.5 -3q-2 0 -33 31v242q20 11 26 11z" />
    <glyph glyph-name="Scaron" unicode="&#x160;" horiz-adv-x="661" 
d="M604 258q0 31 -13 66q-7 19 -43 60l-22 24l-22 24q-8 18 -9 30l-215 -95v255q6 6 23 6q21 0 52 -49q33 -49 34 -49t42 24l40.5 23.5l25.5 14.5l69 33l-11 13q-50 -26 -68 -26q-33 0 -73 42l-30 31.5l-10 10.5q-1 0 -32 -17l-28.5 -16.5t-18.5 -9.5q-96 -44 -212 -76
q-19 -5 -33 -8l-24 -5q0 -9 4 -16q13 1 21 5t9 4q32 0 32 -22v-139q0 -10 -7 -18q-9 -14 -31 -18l-36 -6v-7q94 -24 122 -70q4 -9 21 -26q17 29 34 43q9 7 25.5 17t41.5 23v-211q-5 -2 -30 25q-25 28 -27 28l-19.5 -27.5l-15.5 -22.5q-55 -30 -73 -33q-29 -14 -68 -42
q-59 -41 -59 -58q0 -10 18 -10q-2 23 50 52q52 31 90 31q29 0 64 -20q21 -12 49 -36l23 -20q-1 0 17 19q19 21 52 31l93.5 31.5t49.5 19.5q81 40 116 116q12 27 12 51zM497 269q-108 -49 -107 -48v8t-1 21q-2 26 1 27q53 37 70 37q3 0 19 -22q8 -11 12.5 -16.5t5.5 -6.5z
M262 364q0 -12 -27 -12q-45 0 -45 50v128q0 33 1 38q5 23 20 30q36 18 51 18v-252zM448 325l-168 -83v101q60 22 89 22q35 0 58 -22q16 -15 21 -18zM508 219q0 -67 -39 -102t-105 -35q-50 0 -84 26q-2 7 0 51l118.5 51.5l94.5 43.5h7q8 -21 8 -35zM345 200q-7 4 -65 -27v54
q20 17 65 30q1 -6 0 -57zM460 838l-120 -48l-122 50l-3 -6l127 -110l120 108z" />
    <glyph glyph-name="guilsinglleft" unicode="&#x2039;" horiz-adv-x="231" 
d="M84 308l98 161l-21 29l-156 -190l153 -179l21 25z" />
    <glyph glyph-name="OE" unicode="&#x152;" horiz-adv-x="1120" 
d="M875 323q0 -2 -2 -5t-2 -5v-104q-1 -35 -1 -61v-43q1 1 -76 1q-36 0 -88 15q-62 18 -79 41q42 28 108 53l28.5 10t30.5 10v74q-1 25 -1 43v30q14 8 20 8q12 0 37 -28q25 -26 25 -39zM613 657q-94 -67 -134 -138q-48 -83 -48 -196q0 -76 30 -139q-22 -74 -81 -100
l-13.5 -5t-9.5 -4v489l32.5 -25.5l29.5 -23.5q2 0 28 24q26 25 40 34zM-2 322q0 -45 20 -102q16 -44 54 -90q4 -5 28 -32l69 -76q14 -27 18 -41l15 9q37 21 90 40q78 26 86 30q45 19 78.5 31t56.5 18q106 -112 293 -112q73 0 85 -4l16.5 -9.5t12.5 -8.5l89 113q76 97 76 102
q0 -1 -8 7q-25 -25 -110 -60q-17 -7 -37 -14l-42 -15v208l117.5 65l55.5 30q0 9 -8 12q-55 -35 -78 -35q-19 0 -41 30q-32 40 -34 43l-109 -64v235q7 5 11.5 8.5l8.5 6.5q100 -83 102 -83q-2 0 57 33q62 20 97 24v9q-94 28 -160 93q-3 2 -34 -17q-9 -5 -18 -11t-19 -11
q-24 -13 -53 -25.5l-64 -26.5q-2 -1 -32 -12l-88 -32l3 -12q13 -1 40 8q26 10 37 10q17 0 17 -34v-284q0 -33 -9 -49q-16 -34 -72 -55q-2 0 -3 1q-72 55 -78 170q-1 43 0 92q3 67 28 116q30 56 102 115q29 19 41 26l-11 17q-24 -7 -35 -15l-21 -8l-23 -13l-35 -20l-36 -21
q-24 -12 -53 -12q-39 0 -79 24q-14 8 -28.5 19.5t-30.5 25.5q-26 24 -27 24q-4 0 -8 -4q-20 -23 -48 -45q-18 -13 -56 -35l-35.5 -20l-26.5 -15q-154 -102 -154 -272zM243 104q-34 47 -58.5 77.5t-38.5 45.5l118.5 63t77.5 37v-258q-1 -7 -31 -13l-18 -4l-18 -4
q-16 36 -32 56zM96 295l120 61v-76l-79 -41q-11 13 -21 26.5t-20 29.5zM254 298v79q29 16 50.5 26t37.5 15q0 -84 2 -74l-2 -2zM75 396q0 79 57 147t128 68q11 0 82 -38v-140l-149 -76.5l-100 -50.5q-4 4 -12 44q-6 36 -6 46z" />
    <glyph glyph-name="quoteleft" unicode="&#x2018;" horiz-adv-x="182" 
d="M120 599q-51 -55 -49 -128q1 -23 9 -54q-71 50 -74 131q-2 61 42 141z" />
    <glyph glyph-name="quoteright" unicode="&#x2019;" horiz-adv-x="188" 
d="M2 589q51 -55 49 -128q-2 -27 -10 -54q72 50 75 131q2 62 -43 141z" />
    <glyph glyph-name="quotedblleft" unicode="&#x201c;" horiz-adv-x="300" 
d="M115 589q-51 -55 -49 -128q2 -27 10 -54q-72 50 -75 131q-2 62 43 141zM265 589q-51 -55 -49 -128q2 -27 10 -54q-72 50 -75 131q-2 62 43 141z" />
    <glyph glyph-name="quotedblright" unicode="&#x201d;" horiz-adv-x="300" 
d="M142 589q51 -55 49 -128q-2 -27 -10 -54q72 50 75 131q2 62 -43 141zM-8 589q51 -55 49 -128q-2 -27 -10 -54q72 50 75 131q2 62 -43 141z" />
    <glyph glyph-name="bullet" unicode="&#x2022;" horiz-adv-x="362" 
d="M163 192l112 112l-67 66t-45 47l-70.5 -72t-41.5 -41l71 -70.5t41 -41.5z" />
    <glyph glyph-name="endash" unicode="&#x2013;" horiz-adv-x="412" 
d="M0 215h407v54h-407v-54z" />
    <glyph glyph-name="emdash" unicode="&#x2014;" horiz-adv-x="785" 
d="M0 215h780v54h-780v-54z" />
    <glyph glyph-name="tilde" unicode="&#x2dc;" 
d="M82 517q18 18 69 18q10 0 34 -11q21 -10 35 -10q32 0 60 18t42 47q-8 -5 -33 -13q-22 -7 -35 -7t-38 11q-24 12 -38 12q-16 0 -32 -4.5t-29 -13t-22.5 -20.5t-12.5 -27z" />
    <glyph glyph-name="trademark" unicode="&#x2122;" horiz-adv-x="620" 
d="M248 708h-223l-5 -97h22q14 74 54 74l6 -2q2 -10 2 -9v-166q0 -5 -0.5 -11.5t-1.5 -13.5q-8 -4 -37 -4v-23h143v23q-28 0 -36 4q-1 7 -1.5 13.5t-0.5 11.5v166l1 8l6 3q40 0 54 -74h23zM410 708h-114v-23q24 0 32 -4q1 -7 1.5 -13.5t0.5 -11.5v-126q0 -29 -4 -36
q-8 -15 -31 -15h-2v-23h102v23q-25 0 -32 15q-4 7 -4 36v132l72 -206h16l72 208v-156q0 -5 -0.5 -11.5t-1.5 -13.5q-8 -4 -33 -4v-23h136v23q-25 0 -33 4q-1 7 -1.5 13.5t-0.5 11.5v148q0 5 0.5 11.5t1.5 13.5q8 4 33 4v23h-116l-46 -135z" />
    <glyph glyph-name="scaron" unicode="&#x161;" horiz-adv-x="479" 
d="M349 402l-59 -69q-62 -72 -72 -72q-5 0 -69 37v112l42 19q30 -38 91 -38q29 0 67 11zM315 85q0 -5 -7.5 -13.5t-14.5 -8.5q3 0 -43 24q-47 24 -83 24q-32 0 -69 -19l153 165l64 -38v-134zM447 93q-52 7 -52 27v115q0 46 52 65q-2 10 -5 13q-36 -27 -52 -27q-17 0 -85 41
l137 155l-8 9q-8 -8 -15 -16t-16 -14.5t-20.5 -10.5t-28.5 -4q-30 0 -71 26q-39 27 -35 27q-1 0 -33 -23l-25 -17t-11 -8q-72 -38 -172 -47l-2 -13q43 -1 56 -28q8 -18 8 -64q0 -63 -55 -100l9 -9q5 5 14 11.5t22 14.5q28 19 39 19q17 0 67 -39l-166 -191q4 -9 7 -9
q-4 0 30 23t60 23q64 0 131 -64q87 104 196 104h12q4 -1 6 -1h5zM360 658l-120 -48l-122 50l-3 -6l127 -110l120 108z" />
    <glyph glyph-name="guilsinglright" unicode="&#x203a;" horiz-adv-x="231" 
d="M103 308l-98 161l22 29l155 -190l-153 -179l-21 25z" />
    <glyph glyph-name="oe" unicode="&#x153;" horiz-adv-x="538" 
d="M430 314q0 -4 -46 -34q-53 -35 -54 -36q3 55 0 162q16 14 20 14q6 0 10 -8t7 -15q63 -86 63 -83zM225 58l-89 58v279q10 0 21.5 7l23.5 14q2 2 70 -48v-13q-1 -4 -1 -8v-5v-9v-38t1 -76q2 -71 0 -113q-2 -28 -26 -48zM512 347q0 3 -34 49l-40 54q-10 15 -23 41
q-7 -16 -42 -40q-35 -23 -52 -23q-9 0 -26 11l-17 13.5l-27 21.5q-27 21 -29 21t-17 -22l-17 -26q-10 -11 -30 -22.5t-34 -11.5q-35 0 -75 70v-324q0 -59 -11 -73q-9 -12 -21 -22q-23 -18 -23 -17q0 -5 7 -12q15 8 27 19q7 6 21 6q25 0 80 -40t54 -40q4 0 6 2q12 28 46 56
q23 14 25 14q37 0 126 -60l123 148q-8 7 -16 7q-56 -72 -60 -72q-6 0 -48 21q-20 11 -33.5 17.5t-18.5 10.5q-1 28 -1.5 49.5t-0.5 35.5q0 5 90 68q91 63 91 70z" />
    <glyph glyph-name="Ydieresis" unicode="&#x178;" horiz-adv-x="638" 
d="M604 330q0 86 -37 151q-8 14 -27 39t-50 60q-49 58 -66 107l-221 -127q2 33 -25 76q-26 45 -57 46l-127 -83l9 -16q7 19 37 19q64 0 64 -90v-375q0 -30 -20 -53q-11 -13 -42 -32l7 -9q154 88 154 184v193q0 78 1 120l43.5 24l31.5 17v-479l-61 36q-123 -92 -186 -135
l13 -7q48 48 105 48q61 0 113 -52l36.5 35.5t42.5 37.5q3 2 24 18.5l61 47.5l-9 11q-49 -49 -102 -49q-1 0 -21 5v140l214 115q10 -14 10 -62q0 -106 -57 -184l-52.5 -57.5l-52.5 -57.5q-57 -65 -57 -134q0 -46 35 -76q31 -27 80 -27q45 0 74.5 26.5t29.5 71.5
q0 33 -18.5 56t-50.5 23q-13 0 -26.5 -4.5t-24 -12.5t-17 -19t-6.5 -24q0 -24 12 -40q12 -19 35 -19q5 0 14 2.5t13 2.5l15 -15q0 -8 -5.5 -14t-13.5 -10t-17.5 -6.5t-18.5 -2.5q-42 0 -67 27.5t-25 69.5q0 63 74 131q132 121 138 129q74 91 74 203zM461 441l-166 -95v247
q15 10 26 16.5t18 8.5q21 -43 56 -92l22.5 -29.5zM501 367l-97 -55v78l64 37zM362 293l-67 -36v73l67 37v-74zM319 768q0 -18 13 -31.5t31 -13.5q19 0 32 13t13 32t-13 32t-32 13t-31.5 -13t-12.5 -32zM179 768q0 -18 13 -31.5t31 -13.5q19 0 32 13t13 32t-13 32t-32 13
t-31.5 -13t-12.5 -32z" />
    <glyph glyph-name="exclamdown" unicode="&#xa1;" horiz-adv-x="262" 
d="M126 336h-17q-5 -94 -11.5 -180t-14.5 -165q-1 -13 -1 -26t-1 -27q-5 -26 -24 -39q-13 -8 -23 -13.5t-18 -9.5l12 -14q25 11 38.5 17.5t16.5 8.5q43 22 81 22q5 0 21 -4t20 -4q8 0 8 14q0 3 -16 16q-16 14 -20 21q-13 19 -22 108zM118 400q20 45 66 67q-45 26 -65 65
q-22 -41 -66 -67q50 -11 65 -65z" />
    <glyph glyph-name="cent" unicode="&#xa2;" horiz-adv-x="410" 
d="M184 225l-34 3v309l34 6v-318zM219 4v101q9 -6 10 -7l112 97l-10 12l-29 -23q-27 21 -83 34v288q21 -15 52 -15q55 0 98 64l-16.5 -1.5t-6.5 -0.5q-45 0 -78 53q-18 -18 -49 -31v97h-35v-111q-65 -21 -119 -21h-22q-8 0 -13 1q27 -30 27 -83v-240q-51 -24 -51 -75
q28 12 57 12q58 0 121 -30v-121h35z" />
    <glyph glyph-name="sterling" unicode="&#xa3;" horiz-adv-x="461" 
d="M8 4l12 -3l21 3q12 1 22 8q82 39 115 39q89 0 172 -50q14 30 30.5 58.5t33.5 54.5l-8 9l-14 -19q-70 37 -131 37q-41 0 -201 -60q10 15 74 88q55 62 56 80l8 69l130 1v39h-135l-41 139q-7 22 -7 48q0 65 56 73q17 2 50 -30l63 -63q37 58 84 99l-10 9l-17 -16
q-41 36 -87 36q-82 0 -144 -40q-74 -47 -74 -124q0 -20 8 -44l32 -87h-84v-39l93 -1v-72q0 -21 -93 -199q-12 -23 -14 -43z" />
    <glyph glyph-name="currency" unicode="&#xa4;" horiz-adv-x="715" 
d="M385 291v35h-223q-2 14 -2.5 31t1.5 38l224 -1v32h-220q12 84 49 142q40 63 102 81q10 2 19 3.5t19 1.5q52 0 102 -37l26 -22.5l26 -22.5q9 -2 12 -29q4 -28 6 -28t25 17q24 18 28 19q10 5 19 11t19 11q26 15 39 16l-77 24q-25 25 -76 48q-62 28 -126 28q-36 0 -74 -11
q-169 -55 -220 -252h-84v-30l77 -1q-7 -35 -7 -69h-70v-35h70q8 -122 100 -207q94 -86 215 -86h17t24 -1t23.5 -1.5t16.5 -0.5q33 0 56 -17l135 184v6q0 4 -7 5q-45 -35 -83 -48.5t-66 -20.5q-14 -3 -68 -2q-114 3 -170 45q-54 25 -92 144h215z" />
    <glyph glyph-name="currency" unicode="&#x20ac;" horiz-adv-x="715" 
d="M385 291v35h-223q-2 14 -2.5 31t1.5 38l224 -1v32h-220q12 84 49 142q40 63 102 81q10 2 19 3.5t19 1.5q52 0 102 -37l26 -22.5l26 -22.5q9 -2 12 -29q4 -28 6 -28t25 17q24 18 28 19q10 5 19 11t19 11q26 15 39 16l-77 24q-25 25 -76 48q-62 28 -126 28q-36 0 -74 -11
q-169 -55 -220 -252h-84v-30l77 -1q-7 -35 -7 -69h-70v-35h70q8 -122 100 -207q94 -86 215 -86h17t24 -1t23.5 -1.5t16.5 -0.5q33 0 56 -17l135 184v6q0 4 -7 5q-45 -35 -83 -48.5t-66 -20.5q-14 -3 -68 -2q-114 3 -170 45q-54 25 -92 144h215z" />
    <glyph glyph-name="yen" unicode="&#xa5;" horiz-adv-x="476" 
d="M79 284l23 -26h86v-41h-109l22 -25h87v-106q-8 -26 -43 -43q59 -20 97 -56q31 40 82 57q-32 18 -38 42l-1 106h96l21 25h-116v41h99l17 26h-116l1 34l25 46l25 46l46.5 90.5t30.5 64.5l31 25t30 17q-42 19 -69 44q-7 -10 -35 -27q-25 -16 -37 -18q29 -9 46 -41
q-20 -53 -54 -123q-35 -72 -49 -87l-122 297q-10 -8 -26.5 -17.5t-39.5 -19.5q-26 -11 -43 -20t-25 -14q-32 -21 -30 -50q2 -65 53 -65q12 0 27 33q-45 16 -45 43q0 41 49 41q5 0 58 -132l54 -138l1 -29h-109z" />
    <glyph glyph-name="brokenbar" unicode="&#xa6;" horiz-adv-x="566" 
d="M236 696v-356h91v356h-91zM236 220v-355h91v355h-91z" />
    <glyph glyph-name="section" unicode="&#xa7;" horiz-adv-x="510" 
d="M92 -92l206 -73l50 52.5t27 31.5q40 53 40 104q0 45 -37 83q84 78 84 151q0 61 -51 111q-30 30 -86 67l-39 24l-55 33q-88 52 -88 97q0 19 23 54l204 -74l48 79l-203 73q-118 -103 -118 -185q0 -47 35 -85q-84 -74 -84 -147q0 -74 65 -130q12 -10 35.5 -25.5l58.5 -37.5
l76.5 -48.5t34.5 -22.5q50 -36 50 -72q0 -22 -24 -53l-205 73zM364 122q-26 22 -56 42.5t-63 40.5l-55.5 34.5t-34.5 24.5q-56 47 -56 87q0 39 48 84l78.5 -55t56.5 -37q57 -35 82 -57q48 -44 48 -83q0 -38 -48 -81z" />
    <glyph glyph-name="dieresis" unicode="&#xa8;" horiz-adv-x="335" 
d="M189 568q0 -18 13 -31.5t31 -13.5q19 0 32 13t13 32t-13 32t-32 13t-31.5 -13t-12.5 -32zM49 568q0 -18 13 -31.5t31 -13.5q19 0 32 13t13 32t-13 32t-32 13t-31.5 -13t-12.5 -32z" />
    <glyph glyph-name="copyright" unicode="&#xa9;" horiz-adv-x="760" 
d="M380 677q-86 0 -169 -44q-81 -43 -130 -127q-47 -83 -47 -175q0 -90 45 -172t126 -128q82 -46 175 -46q90 0 171 45q82 45 129 126q47 83 47 175q0 89 -47 174q-44 78 -127 125q-82 47 -173 47zM380 647q79 0 155 -41q37 -20 67 -49.5t51 -65.5t32 -77t11 -83
q0 -81 -41 -157q-40 -73 -116 -117q-74 -42 -159 -42q-81 0 -157 41q-37 21 -66.5 50.5t-50 65.5t-31.5 76.5t-11 82.5q0 82 42 159q40 71 115 114q74 43 159 43zM551 554h-19q-9 -22 -24 -22q-7 0 -18 4q-56 18 -91 18q-100 0 -170 -62q-73 -64 -73 -164q0 -95 67 -156
q64 -61 159 -61q119 0 187 99l-18 10q-57 -79 -152 -79q-86 0 -126 60q-36 52 -36 141q0 82 34 129q43 61 123 61q114 0 148 -115h19z" />
    <glyph glyph-name="ordfeminine" unicode="&#xaa;" horiz-adv-x="302" 
d="M278 494q-7 -4 -8 -4q-11 -8 -14 -8q-18 0 -18 63v68q0 26 5 48q1 9 14 30q4 6 6.5 11l4.5 9l-14 10q-15 -19 -26 -19q-5 0 -12 3l-64 24q-33 -21 -53 -21q-15 0 -35 7l-12 -19l33 -78q-65 -56 -65 -111q0 -42 53 -80l99 62q5 -41 36 -62l79 52zM172 595l-71 34l-28 63
l99 -31v-66zM172 510l-54 -34q-33 34 -33 75q0 19 17 59l70 -34v-66z" />
    <glyph glyph-name="guillemotleft" unicode="&#xab;" horiz-adv-x="397" 
d="M84 308l98 161l-21 29l-156 -190l153 -179l21 25zM244 308l98 161l-21 29l-156 -190l153 -179l21 25z" />
    <glyph glyph-name="logicalnot" unicode="&#xac;" horiz-adv-x="667" 
d="M63 494v-90h450v-238h90v328h-540z" />
    <glyph glyph-name="registered" unicode="&#xae;" horiz-adv-x="760" 
d="M380 677q-86 0 -169 -44q-81 -43 -130 -127q-47 -83 -47 -175q0 -90 45 -172t126 -128q82 -46 175 -46q90 0 171 45q82 45 129 126q47 83 47 175q0 89 -47 174q-44 78 -127 125q-82 47 -173 47zM380 647q79 0 155 -41q37 -20 67 -49.5t51 -65.5t32 -77t11 -83
q0 -81 -41 -157q-40 -73 -116 -117q-74 -42 -159 -42q-81 0 -157 41q-37 21 -66.5 50.5t-50 65.5t-31.5 76.5t-11 82.5q0 82 42 159q40 71 115 114q74 43 159 43zM188 544v-18q36 0 44 -23q1 -3 1 -43v-255q0 -34 -2 -42q-7 -25 -48 -25v-16h179v16q-52 0 -58 30v151h37
l144 -197h90v16q-30 1 -59 43l-102 145q108 28 108 109q0 55 -47 84q-40 25 -98 25h-189zM304 340v175q21 7 41 7q42 0 70 -25.5t28 -67.5q0 -89 -124 -89h-15z" />
    <glyph glyph-name="macron" unicode="&#xaf;" horiz-adv-x="305" 
d="M281 543v56l-253 -1v-56z" />
    <glyph glyph-name="degree" unicode="&#xb0;" horiz-adv-x="400" 
d="M198 676q-71 0 -120 -49t-49 -120t49 -120t120 -49q70 0 119 49q50 50 50 120q0 71 -49 120t-120 49zM198 612q45 0 75 -30t30 -75q0 -43 -31 -74q-30 -31 -74 -31t-75 31q-30 31 -30 74q0 45 30 75t75 30z" />
    <glyph glyph-name="plusminus" unicode="&#xb1;" horiz-adv-x="667" 
d="M63 458v-90h225v-224h90v224h225v90h-225v225h-90v-225h-225zM63 64v-90h540v90h-540z" />
    <glyph glyph-name="twosuperior" unicode="&#xb2;" horiz-adv-x="333" 
d="M46 310q48 20 97 20q41 0 109 -20l56 68q-45 17 -94 17q-65 0 -137 -32q17 23 34 36q19 14 80 41q59 25 80 46q37 34 37 88q0 6 -1 14t-3 18l-171 70l-113 -73l57 -52l120 75q21 -21 21 -44q0 -39 -24 -75q-15 -24 -62 -56q-102 -71 -112 -132z" />
    <glyph glyph-name="threesuperior" unicode="&#xb3;" horiz-adv-x="333" 
d="M83 311q217 10 217 115q0 60 -92 83q64 19 81 110l-203 55l-66 -45l52 -56l71 50q16 11 25 11q24 0 24 -36q0 -79 -106 -79v-25h18q49 0 69 -15q32 -23 32 -71q0 -38 -26 -64l-122 94l-61 -57z" />
    <glyph glyph-name="acute" unicode="&#xb4;" 
d="M305 585q1 -4 1 -11q0 -28 -34 -28q-11 0 -156 -26l-2 7l142 79q11 7 22 7q20 0 27 -28z" />
    <glyph glyph-name="mu" unicode="&#xb5;" horiz-adv-x="500" 
d="M42 462v-369v-41q1 -30 -6 -82q-1 -7 -4.5 -19.5l-9.5 -32.5q-17 -60 -17 -81q0 -53 54 -53q23 0 39 15.5t16 38.5q0 19 -8 51q-20 78 -20 116v9q0 6 1 14q34 -42 86 -42q40 0 81 32q4 2 20.5 17.5l45.5 43.5q10 -93 90 -93q97 0 103 114h-24q-8 -60 -44 -60
q-22 0 -26 37v51v334h-99v-350l-48 -42q-35 -26 -58 -26q-48 0 -64 52q-9 30 -9 91v275h-99z" />
    <glyph glyph-name="paragraph" unicode="&#xb6;" horiz-adv-x="448" 
d="M390 635h65v27h-242q-77 0 -123 -24q-97 -49 -97 -159q0 -54 25 -97q28 -51 91 -72q21 -7 51 -11t68 -6v-509h35v851h91v-851h36v851z" />
    <glyph glyph-name="periodcentered" unicode="&#xb7;" horiz-adv-x="292" 
d="M55 262q0 -36 25.5 -61t61.5 -25q18 0 33.5 6.5t27 18.5t18.5 27.5t7 33.5t-7 33.5t-18.5 27.5t-27 18.5t-33.5 6.5q-36 0 -61.5 -25t-25.5 -61z" />
    <glyph glyph-name="periodcentered" unicode="&#x2219;" horiz-adv-x="292" 
d="M55 262q0 -36 25.5 -61t61.5 -25q18 0 33.5 6.5t27 18.5t18.5 27.5t7 33.5t-7 33.5t-18.5 27.5t-27 18.5t-33.5 6.5q-36 0 -61.5 -25t-25.5 -61z" />
    <glyph glyph-name="cedilla" unicode="&#xb8;" horiz-adv-x="187" 
d="M97 -2l-2 3h-24l-1 -79q23 14 46 12l13 -1q14 -20 14 -34q0 -16 -14 -39l-20 -4q-19 22 -43 22q-22 0 -40 -15t-19 -37l8 -2q5 23 23 23q24 0 50 -35q29 35 59 35q33 0 53 -5q-9 7 -9 32q0 50 -3 59q-9 28 -45 28q-23 0 -45 -7z" />
    <glyph glyph-name="onesuperior" unicode="&#xb9;" horiz-adv-x="333" 
d="M265 371l-13 18l-26 -18q-2 2 -3.5 3t-2.5 2q-9 8 -10 13v182q0 51 -10 70q-13 25 -47 35l-80 -53l12 -19q20 16 27 16q13 0 13 -53v-192l-18 -19l76 -43z" />
    <glyph glyph-name="ordmasculine" unicode="&#xba;" horiz-adv-x="281" 
d="M243 696q-29 2 -55.5 11t-51.5 23q-46 -34 -99 -44v-142q0 -48 -19 -70l7 -13h10q36 0 109 -32q52 31 99 45v222zM178 484l-75 27v159q42 -6 75 -23v-163z" />
    <glyph glyph-name="guillemotright" unicode="&#xbb;" horiz-adv-x="382" 
d="M263 308l-98 161l22 29l155 -190l-153 -179l-21 25zM103 308l-98 161l22 29l155 -190l-153 -179l-21 25z" />
    <glyph glyph-name="onequarter" unicode="&#xbc;" horiz-adv-x="1010" 
d="M312 -33l444 712h-64l-444 -712h64zM355 371l-12 18l-27 -18l-5 5q-9 8 -10 13l-1 182q0 50 -9 70q-13 25 -47 35l-80 -53l12 -19q20 16 27 16q13 0 13 -53v-192l-18 -19l75 -43zM805 0l79 51l-13 19l-24 -12l-16 23v16h64l-16 60h-48v111q0 44 -14 65.5t-56 30.5
l-169 -200l17 -67h138v-35l-14 -20zM747 157l-131 4l103 123q13 16 20 16t9 -15q-1 -8 -1 -16v-13v-99z" />
    <glyph glyph-name="onehalf" unicode="&#xbd;" horiz-adv-x="1010" 
d="M312 -33l444 712h-64l-444 -712h64zM355 371l-12 18l-27 -18l-5 5q-9 8 -10 13l-1 182q0 50 -9 70q-13 25 -47 35l-80 -53l12 -19q20 16 27 16q13 0 13 -53v-192l-18 -19l75 -43zM633 0q48 20 96 20q42 0 110 -20l57 68q-44 16 -95 16q-66 0 -137 -31q17 23 34 36
q20 15 80 40q59 26 81 47q36 34 36 88q0 6 -1 14t-3 18l-171 70l-114 -74l58 -50l121 74q20 -22 20 -45q0 -37 -24 -74q-16 -25 -62 -56q-101 -71 -113 -132z" />
    <glyph glyph-name="threequarters" unicode="&#xbe;" horiz-adv-x="1010" 
d="M312 -33l444 712h-64l-444 -712h64zM173 311q218 11 218 115q0 60 -93 83q64 19 81 110l-202 55l-67 -45l52 -56l71 50q17 11 26 11q24 0 24 -36q0 -79 -106 -79v-25h17q49 0 69 -15q32 -23 32 -71q0 -38 -26 -64l-122 94l-61 -57zM805 0l79 51l-14 19l-23 -12l-17 23v16
h65l-16 60h-49v111q0 44 -12 64q-15 23 -57 32l-169 -200l17 -67h138v-35l-14 -20zM747 157l-131 4l103 123q13 16 20 16t9 -15q-1 -8 -1 -16v-13v-99z" />
    <glyph glyph-name="questiondown" unicode="&#xbf;" horiz-adv-x="414" 
d="M147 467q45 -22 70 -73q23 42 77 76q-28 13 -43.5 33.5t-30.5 42.5q-16 -26 -34 -46t-39 -33zM233 356l-34 -3v-73q-3 0 -44 -25q-34 -21 -68 -19h-34q-19 1 -36 17q-1 1 -2.5 -3.5t-2.5 -4.5q15 -35 15 -41q3 -147 0 -171v-33q-4 -29 -22 -28l3 -10q79 0 129 -24.5
t85 -59.5q2 -2 4 -2t27 25q26 26 56 27h55q-5 31 -38 56q-34 25 -66 25q-46 0 -83 -20t-34 -20q-11 0 -17.5 12.5t-6.5 23.5l1 190q100 51 127 57z" />
    <glyph glyph-name="Agrave" unicode="&#xc0;" horiz-adv-x="694" 
d="M680 68l-6 15q-17 -14 -34 -14q-12 0 -22 6t-17.5 15.5t-11.5 21t-4 22.5v300q0 79 64 97q3 1 -1 10q-128 65 -186 154l-72 -39l-48 -25l-38.5 -19l-27.5 -13l-141 -60t-100 -40v-10q2 -2 8 -2q3 0 33 11t38 11q10 0 18 -8t8 -17v-344q0 -24 -30 -43q-36 -25 -41 -31
l8 -6q5 2 12.5 6.5t18.5 9.5t18.5 9.5t12.5 6.5q27 15 60 40q41 33 41 49v129h91v-223l-85 56q-34 -37 -127 -84q-80 -41 -80 -47q0 -4 10 -14l38 24q37 25 73 25q24 0 53.5 -15.5t46.5 -37.5l45 27q31 19 48 26l32 12l32 12q20 8 36 16.5t29 18.5q0 -6 8 -40q3 -12 46 -47
q9 -8 19.5 -16t23.5 -17zM481 529l-127 -68q1 58 1 96v57q0 4 10 9t13 5zM484 511v-115h-129l-1 44zM333 608l1 -212h-94q2 98 0 115q-1 60 93 97zM482 310l1 -89l-132 -58v149zM483 203l-1 -69q-21 -20 -30 -27q-41 -29 -100 -29q-1 4 0 65zM362 673q-4 16 -13 16
q-58 -49 -120 -49q-31 0 -56 21q-6 6 -18 22q-14 18 -16 18q-3 0 -37 -21l-35 -21.5t-22 -12.5q-42 -25 -55 -36l9 -14q8 1 19 12q8 8 22 6q16 -2 45 -18q25 -15 60 -15q17 0 56 13q17 5 27.5 9.5t14.5 6.5l66.5 35.5zM220 797q-2 -8 -2 -12q0 -31 39 -31q-4 0 39.5 -7
l134.5 -21l2 7l-158 88q-13 7 -24 7q-24 0 -31 -31z" />
    <glyph glyph-name="Aacute" unicode="&#xc1;" horiz-adv-x="694" 
d="M680 68l-6 15q-17 -14 -34 -14q-12 0 -22 6t-17.5 15.5t-11.5 21t-4 22.5v300q0 79 64 97q3 1 -1 10q-128 65 -186 154l-72 -39l-48 -25l-38.5 -19l-27.5 -13l-141 -60t-100 -40v-10q2 -2 8 -2q3 0 33 11t38 11q10 0 18 -8t8 -17v-344q0 -24 -30 -43q-36 -25 -41 -31
l8 -6q5 2 12.5 6.5t18.5 9.5t18.5 9.5t12.5 6.5q27 15 60 40q41 33 41 49v129h91v-223l-85 56q-34 -37 -127 -84q-80 -41 -80 -47q0 -4 10 -14l38 24q37 25 73 25q24 0 53.5 -15.5t46.5 -37.5l45 27q31 19 48 26l32 12l32 12q20 8 36 16.5t29 18.5q0 -6 8 -40q3 -12 46 -47
q9 -8 19.5 -16t23.5 -17zM481 529l-127 -68q-1 57 -1 94v56q0 4 11 10.5t14 6.5zM484 511v-115h-129l-1 44zM335 605l-1 -209h-94q2 98 0 115q-1 60 95 94zM482 310l1 -89l-132 -58v149zM483 203l-1 -69q-21 -20 -30 -27q-41 -29 -100 -29q-1 4 0 65zM362 673q-4 16 -13 16
q-58 -49 -120 -49q-31 0 -56 21q-6 6 -18 22q-14 18 -16 18q-3 0 -37 -21l-35 -21.5t-22 -12.5q-42 -25 -55 -36l9 -14q8 1 19 12q8 8 22 6q16 -2 45 -18q25 -15 60 -15q17 0 56 13q17 5 27.5 9.5t14.5 6.5l66.5 35.5zM446 807q2 -8 2 -12q0 -31 -39 -31q4 0 -39.5 -7
l-134.5 -21l-2 7l158 88q13 7 24 7q24 0 31 -31z" />
    <glyph glyph-name="Acircumflex" unicode="&#xc2;" horiz-adv-x="694" 
d="M680 68l-6 15q-17 -14 -34 -14q-12 0 -22 6t-17.5 15.5t-11.5 21t-4 22.5v300q0 79 64 97q3 1 -1 10q-128 65 -186 154l-72 -39l-48 -25l-38.5 -19l-27.5 -13l-141 -60t-100 -40v-10q2 -2 8 -2q3 0 33 11t38 11q10 0 18 -8t8 -17v-344q0 -24 -30 -43q-36 -25 -41 -31
l8 -6q5 2 12.5 6.5t18.5 9.5t18.5 9.5t12.5 6.5q27 15 60 40q41 33 41 49v129h91v-223l-85 56q-34 -37 -127 -84q-80 -41 -80 -47q0 -4 10 -14l38 24q37 25 73 25q24 0 53.5 -15.5t46.5 -37.5l45 27q31 19 48 26l32 12l32 12q20 8 36 16.5t29 18.5q0 -6 8 -40q3 -12 46 -47
q9 -8 19.5 -16t23.5 -17zM481 529l-127 -68q1 58 1 96v57q0 4 10 9t13 5zM484 511v-115h-129l-1 44zM333 608l1 -212h-94q2 98 0 115q-1 60 93 97zM482 310l1 -89l-132 -58v149zM483 203l-1 -69q-21 -20 -30 -27q-41 -29 -100 -29q-1 4 0 65zM362 673q-4 16 -13 16
q-58 -49 -120 -49q-31 0 -56 21q-6 6 -18 22q-14 18 -16 18q-3 0 -37 -21l-35 -21.5t-22 -12.5q-42 -25 -55 -36l9 -14q8 1 19 12q8 8 22 6q16 -2 45 -18q25 -15 60 -15q17 0 56 13q17 5 27.5 9.5t14.5 6.5l66.5 35.5zM221 725l120 48l122 -50l3 6l-128 102l-119 -100z" />
    <glyph glyph-name="Atilde" unicode="&#xc3;" horiz-adv-x="694" 
d="M680 68l-6 15q-17 -14 -34 -14q-12 0 -22 6t-17.5 15.5t-11.5 21t-4 22.5v300q0 79 64 97q3 1 -1 10q-128 65 -186 154l-72 -39l-48 -25l-38.5 -19l-27.5 -13l-141 -60t-100 -40v-10q2 -2 8 -2q3 0 33 11t38 11q10 0 18 -8t8 -17v-344q0 -24 -30 -43q-36 -25 -41 -31
l8 -6q5 2 12.5 6.5t18.5 9.5t18.5 9.5t12.5 6.5q27 15 60 40q41 33 41 49v129h91v-223l-85 56q-34 -37 -127 -84q-80 -41 -80 -47q0 -4 10 -14l38 24q37 25 73 25q24 0 53.5 -15.5t46.5 -37.5l45 27q31 19 48 26l32 12l32 12q20 8 36 16.5t29 18.5q0 -6 8 -40q3 -12 46 -47
q9 -8 19.5 -16t23.5 -17zM481 529l-127 -68q1 58 1 96v57q0 4 10 9t13 5zM484 511v-115h-129l-1 44zM333 608l1 -212h-94q2 98 0 115q-1 60 93 97zM482 310l1 -89l-132 -58v149zM483 203l-1 -69q-21 -20 -30 -27q-41 -29 -100 -29q-1 4 0 65zM362 673q-4 16 -13 16
q-58 -49 -120 -49q-31 0 -56 21q-6 6 -18 22q-14 18 -16 18q-3 0 -37 -21l-35 -21.5t-22 -12.5q-42 -25 -55 -36l9 -14q8 1 19 12q8 8 22 6q16 -2 45 -18q25 -15 60 -15q17 0 56 13q17 5 27.5 9.5t14.5 6.5l66.5 35.5zM172 729q23 23 86 23q15 0 43 -14q27 -13 44 -13
q87 0 127 82q-15 -10 -41 -17q-29 -8 -44 -8q-18 0 -49 14q-30 14 -46 14q-41 0 -75 -21q-38 -23 -45 -60z" />
    <glyph glyph-name="Adieresis" unicode="&#xc4;" horiz-adv-x="694" 
d="M680 68l-6 15q-17 -14 -34 -14q-12 0 -22 6t-17.5 15.5t-11.5 21t-4 22.5v300q0 79 64 97q3 1 -1 10q-128 65 -186 154l-72 -39l-48 -25l-38.5 -19l-27.5 -13l-141 -60t-100 -40v-10q2 -2 8 -2q3 0 33 11t38 11q10 0 18 -8t8 -17v-344q0 -24 -30 -43q-36 -25 -41 -31
l8 -6q5 2 12.5 6.5t18.5 9.5t18.5 9.5t12.5 6.5q27 15 60 40q41 33 41 49v129h91v-223l-85 56q-34 -37 -127 -84q-80 -41 -80 -47q0 -4 10 -14l38 24q37 25 73 25q24 0 53.5 -15.5t46.5 -37.5l45 27q31 19 48 26l32 12l32 12q20 8 36 16.5t29 18.5q0 -6 8 -40q3 -12 46 -47
q9 -8 19.5 -16t23.5 -17zM481 529l-127 -68q1 58 1 96v57q0 4 10 9t13 5zM484 511v-115h-129l-1 44zM333 608l1 -212h-94q2 98 0 115q-1 60 93 97zM482 310l1 -89l-132 -58v149zM483 203l-1 -69q-21 -20 -30 -27q-41 -29 -100 -29q-1 4 0 65zM362 673q-4 16 -13 16
q-58 -49 -120 -49q-31 0 -56 21q-6 6 -18 22q-14 18 -16 18q-3 0 -37 -21l-35 -21.5t-22 -12.5q-42 -25 -55 -36l9 -14q8 1 19 12q8 8 22 6q16 -2 45 -18q25 -15 60 -15q17 0 56 13q17 5 27.5 9.5t14.5 6.5l66.5 35.5zM379 768q0 -18 13 -31.5t31 -13.5q19 0 32 13t13 32
t-13 32t-32 13t-31.5 -13t-12.5 -32zM239 768q0 -18 13 -31.5t31 -13.5q19 0 32 13t13 32t-13 32t-32 13t-31.5 -13t-12.5 -32z" />
    <glyph glyph-name="Aring" unicode="&#xc5;" horiz-adv-x="694" 
d="M680 68l-6 15q-17 -14 -34 -14q-12 0 -22 6t-17.5 15.5t-11.5 21t-4 22.5v300q0 79 64 97q3 1 -1 10q-128 65 -186 154l-72 -39l-48 -25l-38.5 -19l-27.5 -13l-141 -60t-100 -40v-10q2 -2 8 -2q3 0 33 11t38 11q10 0 18 -8t8 -17v-344q0 -24 -30 -43q-36 -25 -41 -31
l8 -6q5 2 12.5 6.5t18.5 9.5t18.5 9.5t12.5 6.5q27 15 60 40q41 33 41 49v129h91v-223l-85 56q-34 -37 -127 -84q-80 -41 -80 -47q0 -4 10 -14l38 24q37 25 73 25q24 0 53.5 -15.5t46.5 -37.5l45 27q31 19 48 26l32 12l32 12q20 8 36 16.5t29 18.5q0 -6 8 -40q3 -12 46 -47
q9 -8 19.5 -16t23.5 -17zM481 529l-127 -68q-1 58 -1 95v57q0 5 10.5 10t14.5 5zM484 511v-115h-129l-1 44zM335 608l-1 -212h-94q2 98 0 115q-1 60 95 97zM482 310l1 -89l-132 -58v149zM483 203l-1 -69q-21 -20 -30 -27q-41 -29 -100 -29q-1 4 0 65zM362 673q-4 16 -13 16
q-58 -49 -120 -49q-31 0 -56 21q-6 6 -18 22q-14 18 -16 18q-3 0 -37 -21l-35 -21.5t-22 -12.5q-42 -25 -55 -36l9 -14q8 1 19 12q8 8 22 6q16 -2 45 -18q25 -15 60 -15q17 0 56 13q17 5 27.5 9.5t14.5 6.5l66.5 35.5zM343 861q-30 0 -50.5 -21t-20.5 -51q0 -26 21 -47
t50 -21t49.5 20.5t20.5 49.5t-20.5 49.5t-49.5 20.5zM343 841q20 0 33.5 -13.5t13.5 -34.5q0 -19 -14 -33q-15 -17 -33 -17t-33 17q-14 14 -14 33q0 21 13.5 34.5t33.5 13.5z" />
    <glyph glyph-name="AE" unicode="&#xc6;" horiz-adv-x="1170" 
d="M1135 190q0 -1 -8 7q-25 -25 -110 -60q-17 -7 -37 -14l-42 -15v208l117.5 65l55.5 30q0 9 -8 12q-55 -35 -78 -35q-19 0 -41 30q-32 40 -34 43l-109 -64v235q7 5 11.5 8.5l8.5 6.5q100 -83 102 -83q-2 0 57 33q62 20 97 24v9q-94 28 -160 93q-3 2 -34 -17q-9 -5 -18 -11
t-19 -11q-24 -13 -53 -25.5l-64 -26.5q-2 -1 -32 -12l-88 -32l3 -12q13 -1 40 8q26 10 37 10q17 0 17 -34v-284q0 -33 -9 -49q-16 -34 -72 -55q-2 0 -3 1q-67 52 -77 158v103l-1 1q5 70 29 116q28 57 101 115q29 19 41 26q5 2 0 8t-9 6q-11 0 -56 -30q-38 -26 -67.5 -50.5
t-51.5 -48.5q-26 17 -53.5 46.5t-55.5 71.5l-72 -39l-48 -25l-38.5 -19l-27.5 -13l-141 -60t-100 -40v-10q2 -2 8 -2q3 0 33 11t38 11q10 0 18 -8t8 -17v-344q0 -24 -30 -43q-36 -25 -41 -31l8 -6q5 2 12.5 6.5t18.5 9.5t18.5 9.5t12.5 6.5q27 15 60 40q41 33 41 49v129h91
v-223l-85 56q-34 -37 -127 -84q-80 -41 -80 -47q0 -4 10 -14l38 24q37 25 73 25q24 0 53.5 -15.5t46.5 -37.5l45 27q31 19 48 26l32 12l32 12q20 8 36 16.5t29 18.5v-39q2 -8 1 -23.5t-5 -38.5h108v82q106 -90 270 -90q73 0 85 -4l16.5 -9.5t12.5 -8.5l89 113q76 97 76 102z
M925 323q0 -2 -2 -5t-2 -5v-104q-1 -35 -1 -61v-43q1 1 -76 1q-36 0 -88 15q-62 18 -79 41q42 28 108 53l28.5 10t30.5 10v74q-1 25 -1 43v30q14 8 20 8q12 0 37 -28q25 -26 25 -39zM481 529l-127 -68q1 58 1 96v57q0 4 10 9t13 5zM484 511v-115h-129l-1 44zM333 608l1 -212
h-94q2 98 0 115q-1 60 93 97zM481 310l1 -6l1 -83l-132 -58v149zM483 203l-1 -69q-21 -20 -30 -27q-41 -29 -100 -29q-1 4 0 65zM362 673q-4 16 -13 16q-58 -49 -120 -49q-31 0 -56 21q-6 6 -18 22q-14 18 -16 18q-3 0 -37 -21l-35 -21.5t-22 -12.5q-42 -25 -55 -36l9 -14
q8 1 19 12q8 8 22 6q16 -2 45 -18q25 -15 60 -15q17 0 56 13q17 5 27.5 9.5t14.5 6.5l66.5 35.5z" />
    <glyph glyph-name="Ccedilla" unicode="&#xc7;" horiz-adv-x="715" 
d="M705 183v6q0 5 -7 6q-27 -22 -53 -41q-36 -28 -56 -35q-39 -13 -71 -21v469q10 -2 17 -9.5t10 -7.5q4 0 30 19q27 20 31 21q17 8 37 14.5t42 10.5v7q-37 9 -60 15.5t-34 10.5q-50 20 -80 53q0 1 -1 1q-5 0 -52 -28q-26 -15 -41.5 -23l-19.5 -10q-114 -44 -171 -63
q1 -4 1.5 -7t1.5 -7l59 20q30 -2 30 -36v-370q-51 -35 -53 -33q-39 19 -76 97q-33 72 -33 118q0 208 175 334q3 11 2 12q0 2 -10 1q-123 -41 -195 -151q-69 -107 -69 -240q0 -127 92 -224q91 -94 220 -105v-84q24 13 46 12l13 -1q14 -17 14 -34q0 -16 -14 -39l-20 -4
q-19 22 -43 22q-21 0 -38.5 -14.5t-20.5 -37.5l8 -2q5 23 23 23q27 0 50 -35q29 35 59 35q38 0 53 -5q-9 7 -9 32q0 48 -3 59q-7 28 -45 28q-21 0 -45 -7l-1 51q18 -3 83 -3q36 0 60 -18zM494 581v-483q-5 -1 -17 -1.5t-31 0.5q-49 1 -89.5 10.5t-74.5 26.5q10 12 67 34
t65 30q1 26 1.5 65.5t0.5 93.5v133q-1 45 -1 77v56q26 -1 79 -42z" />
    <glyph glyph-name="Egrave" unicode="&#xc8;" horiz-adv-x="743" 
d="M715 190q0 -1 -8 7q-25 -25 -110 -60q-17 -7 -37 -14l-42 -15v208l117.5 65l55.5 30q0 9 -8 12q-55 -35 -78 -35q-19 0 -41 30q-32 40 -34 43l-109 -64v235l35 23q100 -87 104 -87q2 0 18 13q8 7 14 10.5t8 5.5q62 20 97 24v9q-94 28 -160 93q-3 2 -34 -17q-9 -5 -18 -11
t-19 -11q-24 -13 -53 -25.5l-64 -26.5q-2 -1 -32 -12l-88 -32l3 -12q13 -1 40 8q26 10 37 10q17 0 17 -34v-284q0 -33 -9 -49q-16 -34 -72 -55q-2 0 -3 1q-80 63 -80 204q0 98 20 150q28 72 112 139q29 19 41 26q5 2 0 8t-9 6q-11 0 -56 -30q-54 -36 -92.5 -72t-61.5 -73
q-55 -85 -55 -208q0 -154 116 -244q103 -82 259 -82q73 0 85 -4l16.5 -9.5t12.5 -8.5l89 113q76 97 76 102zM505 323q0 -2 -2 -5t-2 -5v-104q-1 -35 -1 -61v-43q1 1 -76 1q-36 0 -88 15q-62 18 -79 41q42 28 108 53l28.5 10t30.5 10v74q-1 25 -1 43v30q14 8 20 8
q12 0 37 -28q25 -26 25 -39zM300 807q-2 -8 -2 -12q0 -31 39 -31q-4 0 39.5 -7l134.5 -21l2 7l-158 88q-13 7 -24 7q-24 0 -31 -31z" />
    <glyph glyph-name="Eacute" unicode="&#xc9;" horiz-adv-x="743" 
d="M715 190q0 -1 -8 7q-25 -25 -110 -60q-17 -7 -37 -14l-42 -15v208l117.5 65l55.5 30q0 9 -8 12q-55 -35 -78 -35q-19 0 -41 30q-32 40 -34 43l-109 -64v235q7 5 11.5 8.5l8.5 6.5q100 -83 102 -83q-2 0 57 33q62 20 97 24v9q-94 28 -160 93q-3 2 -34 -17q-9 -5 -18 -11
t-19 -11q-24 -13 -53 -25.5l-64 -26.5q-2 -1 -32 -12l-88 -32l3 -12q13 -1 40 8q26 10 37 10q17 0 17 -34v-284q0 -33 -9 -49q-16 -34 -72 -55q-2 0 -3 1q-80 63 -80 204q0 98 20 150q28 72 112 139q29 19 41 26q5 2 0 8t-9 6q-11 0 -56 -30q-54 -36 -92.5 -72t-61.5 -73
q-55 -85 -55 -208q0 -154 116 -244q103 -82 259 -82q73 0 85 -4l16.5 -9.5t12.5 -8.5l89 113q76 97 76 102zM505 323q0 -2 -2 -5t-2 -5v-104q-1 -35 -1 -61v-43q1 1 -76 1q-36 0 -88 15q-62 18 -79 41q42 28 108 53l28.5 10t30.5 10v74q-1 25 -1 43v30q14 8 20 8
q12 0 37 -28q25 -26 25 -39zM536 807q2 -8 2 -12q0 -31 -39 -31q4 0 -39.5 -7l-134.5 -21l-2 7l158 88q13 7 24 7q24 0 31 -31z" />
    <glyph glyph-name="Ecircumflex" unicode="&#xca;" horiz-adv-x="743" 
d="M715 190q0 -1 -8 7q-25 -25 -110 -60q-17 -7 -37 -14l-42 -15v208l117.5 65l55.5 30q0 9 -8 12q-55 -35 -78 -35q-19 0 -41 30q-32 40 -34 43l-109 -64v235q7 5 11.5 8.5l8.5 6.5q100 -83 102 -83q-2 0 57 33q62 20 97 24v9q-94 28 -160 93q-3 2 -34 -17q-9 -5 -18 -11
t-19 -11q-24 -13 -53 -25.5l-64 -26.5q-2 -1 -32 -12l-88 -32l3 -12q13 -1 40 8q26 10 37 10q17 0 17 -34v-284q0 -33 -9 -49q-16 -34 -72 -55q-2 0 -3 1q-80 63 -80 204q0 98 20 150q28 72 112 139q29 19 41 26q5 2 0 8t-9 6q-11 0 -56 -30q-54 -36 -92.5 -72t-61.5 -73
q-55 -85 -55 -208q0 -154 116 -244q103 -82 259 -82q73 0 85 -4l16.5 -9.5t12.5 -8.5l89 113q76 97 76 102zM505 323q0 -2 -2 -5t-2 -5v-104q-1 -35 -1 -61v-43q1 1 -76 1q-36 0 -88 15q-62 18 -79 41q42 28 108 53l28.5 10t30.5 10v74q-1 25 -1 43v30q14 8 20 8
q12 0 37 -28q25 -26 25 -39zM321 745l120 48l122 -50l3 6l-128 102l-119 -100z" />
    <glyph glyph-name="Edieresis" unicode="&#xcb;" horiz-adv-x="743" 
d="M715 190q0 -1 -8 7q-25 -25 -110 -60q-17 -7 -37 -14l-42 -15v208l117.5 65l55.5 30q0 9 -8 12q-55 -35 -78 -35q-19 0 -41 30q-32 40 -34 43l-109 -64v235q7 5 11.5 8.5l8.5 6.5q100 -83 102 -83q-2 0 57 33q62 20 97 24v9q-94 28 -160 93q-3 2 -34 -17q-9 -5 -18 -11
t-19 -11q-24 -13 -53 -25.5l-64 -26.5q-2 -1 -32 -12l-88 -32l3 -12q13 -1 40 8q26 10 37 10q17 0 17 -34v-284q0 -33 -9 -49q-16 -34 -72 -55q-2 0 -3 1q-80 63 -80 204q0 98 20 150q28 72 112 139q29 19 41 26q5 2 0 8t-9 6q-11 0 -56 -30q-54 -36 -92.5 -72t-61.5 -73
q-55 -85 -55 -208q0 -154 116 -244q103 -82 259 -82q73 0 85 -4l16.5 -9.5t12.5 -8.5l89 113q76 97 76 102zM505 323q0 -2 -2 -5t-2 -5v-104q-1 -35 -1 -61v-43q1 1 -76 1q-36 0 -88 15q-62 18 -79 41q42 28 108 53l28.5 10t30.5 10v74q-1 25 -1 43v30q14 8 20 8
q12 0 37 -28q25 -26 25 -39zM449 778q0 -18 13 -31.5t31 -13.5q19 0 32 13t13 32t-13 32t-32 13t-31.5 -13t-12.5 -32zM309 778q0 -18 13 -31.5t31 -13.5q19 0 32 13t13 32t-13 32t-32 13t-31.5 -13t-12.5 -32z" />
    <glyph glyph-name="Igrave" unicode="&#xcc;" horiz-adv-x="493" 
d="M468 120q-1 -1 -10 -1q-61 0 -58 70l1 354q0 25 7 52q13 62 52 82q-8 7 -11 8l-183.5 -104l-132.5 -73l5 -17l57 25q-2 -438 -1 -439q-11 5 -33 29q-22 25 -24 25t-81 -57l-60 -42.5t-22 -16.5q-4 -3 -4 -5q0 -11 11 -9q5 0 27 16q23 16 49 16q37 0 81 -36q43 -37 39 -37
q59 43 141 83q86 43 150 62v15zM303 517v-451l-6 -10q-9 -9 -32 -9q-20 0 -52 20l1 462q23 10 34.5 16t21.5 6q14 0 33 -34zM372 673q-4 16 -13 16q-58 -49 -120 -49q-31 0 -56 21q-6 6 -18 22q-14 18 -16 18q-3 0 -37 -21l-35 -21.5t-22 -12.5q-42 -25 -55 -36l9 -14
q8 1 19 12q8 8 22 6q16 -2 45 -18q25 -15 60 -15q17 0 56 13q17 5 27.5 9.5t14.5 6.5l66.5 35.5zM130 807q-2 -8 -2 -12q0 -31 39 -31q-4 0 39.5 -7l134.5 -21l2 7l-158 88q-13 7 -24 7q-24 0 -31 -31z" />
    <glyph glyph-name="Iacute" unicode="&#xcd;" horiz-adv-x="493" 
d="M468 120q-1 -1 -10 -1q-61 0 -58 70l1 354q0 25 7 52q13 62 52 82q-8 7 -11 8l-183.5 -104l-132.5 -73l5 -17l57 25q-2 -438 -1 -439q-11 5 -33 29q-22 25 -24 25t-81 -57l-60 -42.5t-22 -16.5q-4 -3 -4 -5q0 -11 11 -9q5 0 27 16q23 16 49 16q37 0 81 -36q43 -37 39 -37
q59 43 141 83q86 43 150 62v15zM303 517v-451l-6 -10q-9 -9 -32 -9q-20 0 -52 20l1 462q23 10 34.5 16t21.5 6q14 0 33 -34zM372 673q-4 16 -13 16q-58 -49 -120 -49q-31 0 -56 21q-6 6 -18 22q-14 18 -16 18q-3 0 -37 -21l-35 -21.5t-22 -12.5q-42 -25 -55 -36l9 -14
q8 1 19 12q8 8 22 6q16 -2 45 -18q25 -15 60 -15q17 0 56 13q17 5 27.5 9.5t14.5 6.5l66.5 35.5zM356 807q2 -8 2 -12q0 -31 -39 -31q4 0 -39.5 -7l-134.5 -21l-2 7l158 88q13 7 24 7q24 0 31 -31z" />
    <glyph glyph-name="Icircumflex" unicode="&#xce;" horiz-adv-x="493" 
d="M468 120q-1 -1 -10 -1q-61 0 -58 70l1 354q0 25 7 52q13 62 52 82q-8 7 -11 8l-183.5 -104l-132.5 -73l5 -17l57 25q-2 -438 -1 -439q-11 5 -33 29q-22 25 -24 25t-81 -57l-60 -42.5t-22 -16.5q-4 -3 -4 -5q0 -11 11 -9q5 0 27 16q23 16 49 16q37 0 81 -36q43 -37 39 -37
q59 43 141 83q86 43 150 62v15zM303 517v-451l-6 -10q-9 -9 -32 -9q-20 0 -52 20l1 462q23 10 34.5 16t21.5 6q14 0 33 -34zM372 673q-4 16 -13 16q-58 -49 -120 -49q-31 0 -56 21q-6 6 -18 22q-14 18 -16 18q-3 0 -37 -21l-35 -21.5t-22 -12.5q-42 -25 -55 -36l9 -14
q8 1 19 12q8 8 22 6q16 -2 45 -18q25 -15 60 -15q17 0 56 13q17 5 27.5 9.5t14.5 6.5l66.5 35.5zM131 715l120 48l122 -50l3 6l-128 102l-119 -100z" />
    <glyph glyph-name="Idieresis" unicode="&#xcf;" horiz-adv-x="764" 
d="M705 370q0 128 -104 221q-101 90 -230 90h-129q1 0 -53 12q-28 -42 -81 -94l-45 -43l-45 -43q-3 -9 6 -9q87 49 141 61q56 13 152 13q88 0 101 -19q-50 -24 -136 -51l-141 -42q-8 -5 1 -17q40 12 46 12q25 1 37 -15v-286q-1 -7 -7 -7q2 0 -29 16l-33 -45q-15 -20 -46 -41
l-105 -70q0 -6 4 -10l47 22q30 16 63 24q21 6 39 4q10 -2 19.5 -3.5t19.5 -3.5q30 -4 98 -42q65 -35 68 -35q36 54 133 111q107 64 142 102q67 71 67 188zM602 411l-92 -39t-73 -29q-2 138 0 200q0 9 12 9q31 0 86 -52q57 -52 67 -89zM616 331l-73 -32l-1 65q39 18 63 27
q4 -17 6.5 -32zM499 349q1 -46 0 -65q-20 -8 -35.5 -15l-26.5 -12v69q25 8 40 14zM622 291q-2 -15 -3.5 -30t-3.5 -30q-13 -58 -63 -97q-11 -8 -27 -17.5t-36 -19.5q-41 -20 -53 -18v151q13 8 37.5 19l59.5 27q74 34 85 34q3 0 3 -9t1 -10zM410 531l1 -455q-129 35 -174 67
q9 11 49 24q8 2 18 5l21 6v294q12 37 40 46q39 13 45 13z" />
    <glyph glyph-name="Eth" unicode="&#xd0;" horiz-adv-x="764" 
d="M602 411l-92 -39t-73 -29q-2 138 0 200q0 9 12 9q31 0 86 -52q57 -52 67 -89zM410 290l1 -214q-129 35 -174 67q9 11 49 24q8 2 18 5l21 6v112h85zM499 290v-6q-20 -8 -35.5 -15l-26.5 -12v33h62zM622 290q-2 -16 -3.5 -31t-3.5 -30q-15 -58 -63 -95q-11 -8 -27 -17.5
t-36 -19.5q-41 -20 -53 -18v151q38 22 128 60h58zM543 328l-1 36q39 18 63 27q4 -17 6.5 -32l4.5 -28l-7 -3h-66zM443 328q42 14 56 21v-11q0 -5 1 -10h-57zM325 328v144q12 37 40 46q39 13 45 13v-203h-85zM141 328v-38h84v-130q-1 -7 -7 -7q2 0 -29 16l-33 -45
q-15 -20 -46 -41l-105 -70q0 -6 4 -10l47 22q30 16 63 24q21 6 39 4q10 -2 19.5 -3.5t19.5 -3.5q30 -4 98 -42q65 -35 68 -35q36 54 133 111q107 64 142 102q67 71 67 188q0 128 -104 221q-101 90 -230 90h-129q1 0 -53 12q-28 -42 -81 -94l-45 -43l-45 -43q-3 -9 6 -9
q87 49 141 61q56 13 152 13q88 0 101 -19q-50 -24 -136 -51l-141 -42q-8 -5 1 -17q40 12 46 12q25 1 37 -15v-118h-84z" />
    <glyph glyph-name="Ntilde" unicode="&#xd1;" horiz-adv-x="712" 
d="M696 107q0 7 -10 7q-25 -34 -60 -34q-4 0 -10.5 4.5l-15.5 10.5t-21.5 11.5t-28.5 7.5q25 39 41.5 69t25.5 50q28 60 28 119q0 115 -125 264l-10 14.5t-10 17.5q-10 28 -13 46q0 -4 -162 -74l-159.5 -65t-117.5 -41q2 -8 4 -12q0 -1 1 0q3 3 13 6q15 6 41 9q26 0 33 -25
q3 -11 3 -49l1 -292q-11 -50 -39 -66q-38 -23 -38 -29l1.5 -4t4.5 -4t22 13q11 8 18.5 12.5t9.5 6.5q71 39 98 80q4 6 11 30q8 27 8 37v338l75 31v-512q-74 45 -78 45q-2 0 -30 -22q-32 -26 -45 -33l-76.5 -44.5l-54.5 -31.5l10 -11q69 51 119 51q59 0 101 -57h8
q15 27 47 50l28 18l28 18l15 9l14 8l-3 10q-38 -21 -43 -23q-8 -3 -17 -1q-8 3 -8 8v127l165 85l71 36q8 -19 8 -60q0 -153 -179 -260q-7 -4 -7 -8l5 -5q10 5 19 11t19 11q25 15 41 15q28 0 48 -12q2 -2 12.5 -9.5t27.5 -21.5zM525 429l-117.5 -56l-77.5 -38v265
q49 27 61 29q16 -43 62 -104q17 -20 33 -41l33 -42q6 -8 6 -13zM560 340l-54.5 -30t-39.5 -21q-2 1 0 96q62 35 67 31q23 -41 27 -76zM416 264l-86 -42v98l50.5 24t35.5 18v-98zM362 673q-4 16 -13 16q-58 -49 -120 -49q-31 0 -56 21q-6 6 -18 22q-14 18 -16 18
q-3 0 -37 -21l-35 -21.5t-22 -12.5q-42 -25 -55 -36l9 -14q8 1 19 12q8 8 22 6q16 -2 45 -18q25 -15 60 -15q17 0 56 13q17 5 27.5 9.5t14.5 6.5l66.5 35.5zM172 729q23 23 86 23q15 0 43 -14q27 -13 44 -13q87 0 127 82q-15 -10 -41 -17q-29 -8 -44 -8q-18 0 -49 14
q-30 14 -46 14q-41 0 -75 -21q-38 -23 -45 -60z" />
    <glyph glyph-name="Ograve" unicode="&#xd2;" horiz-adv-x="697" 
d="M643 373q0 50 -19 101q-17 43 -54 90q-2 3 -26.5 30l-71.5 78q-7 13 -11 23t-6 18q-6 0 -15 -9q-19 -11 -42 -21t-49 -19l-58.5 -20.5t-26.5 -9.5q-55 -23 -96 -37t-68 -19q-38 -7 -60.5 -10.5t-30.5 -3.5q-4 0 2 -16l51 6q33 0 40 -25q1 -2 3 -16.5t4 -40.5
q-1 -87 -1 -155q0 -67 2 -118q1 -34 -14 -56q-22 -22 -38 -36.5t-27 -21.5l5 -11q166 91 178 163q-4 291 0 304q-6 47 47 70q8 2 13.5 4t9.5 4v-489l-61 49q-4 0 -27 -22q-29 -27 -42 -36l-156 -104l5 -10q22 13 23 14l36 20t35 21q25 12 54 12q38 0 79 -24
q14 -8 28.5 -19.5t30.5 -25.5q25 -24 27 -24q3 0 7 4q16 20 42 40t61 42q42 24 64 33q153 102 153 273zM399 590q29 -42 53.5 -72.5t43.5 -50.5l-119 -63t-78 -37v258q1 7 31 13q10 2 19 4l18 4q16 -34 32 -56zM545 399l-120 -61v76l79 41q11 -13 21 -26.5t20 -29.5z
M387 397v-80q-62 -32 -88 -41v77zM566 298q0 -81 -57 -148q-55 -67 -128 -67q-11 0 -82 38v141l249 126q4 -4 12 -44q6 -35 6 -46zM190 797q-2 -8 -2 -12q0 -31 39 -31q-4 0 39.5 -7l134.5 -21l2 7l-158 88q-13 7 -24 7q-24 0 -31 -31z" />
    <glyph glyph-name="Oacute" unicode="&#xd3;" horiz-adv-x="697" 
d="M643 373q0 50 -19 101q-17 43 -54 90q-2 3 -26.5 30l-71.5 78q-7 13 -11 23t-6 18q-6 0 -15 -9q-19 -11 -42 -21t-49 -19l-58.5 -20.5t-26.5 -9.5q-55 -23 -96 -37t-68 -19q-38 -7 -60.5 -10.5t-30.5 -3.5q-4 0 2 -16l51 6q33 0 40 -25q1 -2 3 -16.5t4 -40.5
q-2 -201 0 -275q2 -36 -15 -59q-13 -17 -39 -37q-5 -4 -11 -8t-13 -8l5 -11q164 89 176 161q-4 290 -1 302q-6 48 50 74q8 2 13.5 4t9.5 4v-489l-61 49q-4 0 -27 -22q-29 -27 -42 -36l-156 -104l5 -10q22 13 23 14l36 20t35 21q25 12 54 12q38 0 79 -24q14 -8 28.5 -19.5
t30.5 -25.5q25 -24 27 -24q3 0 7 4q16 20 42 40t61 42q42 24 64 33q153 102 153 273zM399 590q29 -42 53.5 -72.5t43.5 -50.5l-119 -63t-78 -37v258q1 7 31 13q10 2 19 4l18 4q16 -34 32 -56zM545 399l-120 -61v76l79 41q11 -13 21 -26.5t20 -29.5zM387 397v-80
q-62 -32 -88 -41v77zM566 298q0 -81 -57 -148q-55 -67 -128 -67q-11 0 -82 38v141l249 126q4 -4 12 -44q6 -35 6 -46zM426 787q2 -8 2 -12q0 -31 -39 -31q4 0 -39.5 -7l-134.5 -21l-2 7l158 88q13 7 24 7q24 0 31 -31z" />
    <glyph glyph-name="Ocircumflex" unicode="&#xd4;" horiz-adv-x="697" 
d="M643 373q0 50 -19 101q-17 43 -54 90q-2 3 -26.5 30l-71.5 78q-7 13 -11 23t-6 18q-6 0 -15 -9q-19 -11 -42 -21t-49 -19l-58.5 -20.5t-26.5 -9.5q-55 -23 -96 -37t-68 -19q-38 -7 -60.5 -10.5t-30.5 -3.5q-4 0 2 -16l51 6q33 0 40 -25q1 -2 3 -16.5t4 -40.5
q-2 -201 0 -275q2 -36 -15 -59q-13 -17 -39 -37q-5 -4 -11 -8t-13 -8l5 -11q164 89 176 161q-4 290 -1 302q-6 48 50 74q8 2 13.5 4t9.5 4v-489l-61 49q-4 0 -27 -22q-29 -27 -42 -36l-156 -104l5 -10q22 13 23 14l36 20t35 21q25 12 54 12q38 0 79 -24q14 -8 28.5 -19.5
t30.5 -25.5q25 -24 27 -24q3 0 7 4q16 20 42 40t61 42q42 24 64 33q153 102 153 273zM399 590q29 -42 53.5 -72.5t43.5 -50.5l-119 -63t-78 -37v258q1 7 31 13q10 2 19 4l18 4q16 -34 32 -56zM545 399l-120 -61v76l79 41q11 -13 21 -26.5t20 -29.5zM387 397v-80
q-62 -32 -88 -41v77zM566 298q0 -81 -57 -148q-55 -67 -128 -67q-11 0 -82 38v141l249 126q4 -4 12 -44q6 -35 6 -46zM191 725l120 48l122 -50l3 6l-128 102l-119 -100z" />
    <glyph glyph-name="Otilde" unicode="&#xd5;" horiz-adv-x="697" 
d="M643 373q0 50 -19 101q-17 43 -54 90q-2 3 -26.5 30l-71.5 78q-7 13 -11 23t-6 18q-6 0 -15 -9q-19 -11 -42 -21t-49 -19l-58.5 -20.5t-26.5 -9.5q-55 -23 -96 -37t-68 -19q-38 -7 -60.5 -10.5t-30.5 -3.5q-4 0 2 -16l51 6q32 0 40 -20q0 -3 6 -52q-1 -91 -1 -162t2 -123
q2 -36 -15 -59q-13 -17 -39 -37q-5 -4 -11 -8t-13 -8l5 -11q164 89 176 161q-4 290 -1 302q-6 48 50 74q8 2 13.5 4t9.5 4v-489l-61 49q-4 0 -27 -22q-29 -27 -42 -36l-156 -104l5 -10q22 13 23 14l36 20t35 21q25 12 54 12q38 0 79 -24q14 -8 28.5 -19.5t30.5 -25.5
q25 -24 27 -24q3 0 7 4q16 20 42 40t61 42q42 24 64 33q153 102 153 273zM399 590q29 -42 53.5 -72.5t43.5 -50.5l-119 -63t-78 -37v258q1 7 31 13q10 2 19 4l18 4q16 -34 32 -56zM545 399l-120 -61v76l79 41q11 -13 21 -26.5t20 -29.5zM387 397v-80q-62 -32 -88 -41v77z
M566 298q0 -81 -57 -148q-55 -67 -128 -67q-11 0 -82 38v141l249 126q4 -4 12 -44q6 -35 6 -46zM172 729q23 23 86 23q15 0 43 -14q27 -13 44 -13q87 0 127 82q-15 -10 -41 -17q-29 -8 -44 -8q-18 0 -49 14q-30 14 -46 14q-41 0 -75 -21q-38 -23 -45 -60z" />
    <glyph glyph-name="Odieresis" unicode="&#xd6;" horiz-adv-x="697" 
d="M643 373q0 50 -19 101q-17 43 -54 90q-2 3 -26.5 30l-71.5 78q-7 13 -11 23t-6 18q-6 0 -15 -9q-19 -11 -42 -21t-49 -19l-58.5 -20.5t-26.5 -9.5q-55 -23 -96 -37t-68 -19q-38 -7 -60.5 -10.5t-30.5 -3.5q-4 0 2 -16l51 6q33 0 40 -25q1 -2 3 -16.5t4 -40.5
q-2 -201 0 -275q2 -36 -15 -59q-13 -17 -39 -37q-5 -4 -11 -8t-13 -8l5 -11q164 89 176 161q-4 290 -1 302q-6 48 50 74q8 2 13.5 4t9.5 4v-489l-61 49q-4 0 -27 -22q-29 -27 -42 -36l-156 -104l5 -10q22 13 23 14l36 20t35 21q25 12 54 12q38 0 79 -24q14 -8 28.5 -19.5
t30.5 -25.5q25 -24 27 -24q3 0 7 4q16 20 42 40t61 42q42 24 64 33q153 102 153 273zM399 590q29 -42 53.5 -72.5t43.5 -50.5l-119 -63t-78 -37v258q1 7 31 13q10 2 19 4l18 4q16 -34 32 -56zM545 399l-120 -61v76l79 41q11 -13 21 -26.5t20 -29.5zM387 397v-80
q-62 -32 -88 -41v77zM566 298q0 -81 -57 -148q-55 -67 -128 -67q-11 0 -82 38v141l249 126q4 -4 12 -44q6 -35 6 -46zM359 768q0 -18 13 -31.5t31 -13.5q19 0 32 13t13 32t-13 32t-32 13t-31.5 -13t-12.5 -32zM219 768q0 -18 13 -31.5t31 -13.5q19 0 32 13t13 32t-13 32
t-32 13t-31.5 -13t-12.5 -32z" />
    <glyph glyph-name="multiply" unicode="&#xd7;" horiz-adv-x="667" 
d="M82 516l189 -189l-188 -187l63 -63l188 186l187 -186l63 63l-186 187l188 189l-64 64l-188 -190l-189 190z" />
    <glyph glyph-name="Oslash" unicode="&#xd8;" horiz-adv-x="697" 
d="M299 368l158 144q27 -32 39 -45l28 -41t20 -32q6 -6 13 -45q9 -41 9 -51q0 -81 -57 -148q-55 -67 -128 -67q-11 0 -82 38v247zM109 197v-1v1zM284 385l-71 -66q-3 201 3 219q-8 50 45 73q8 2 13.5 4t9.5 4v-234zM444 529l-145 -131l1 226q1 6 31 14l18 4l18 4
q16 -34 32 -56l25.5 -35zM624 662v30l-93 -84l-33.5 37t-25.5 27q-7 13 -11 23t-6 18q-6 0 -15 -9q-19 -11 -42 -21t-49 -19l-58.5 -20.5t-26.5 -9.5q-55 -23 -96 -37t-68 -19q-38 -7 -60.5 -10.5t-30.5 -3.5q-4 0 2 -16l51 6q33 0 40 -25q1 -2 3 -16.5t4 -40.5
q-1 -85 -1.5 -147t0.5 -100l-107 -97v-29l108 97q0 -36 -15 -58q-11 -17 -39 -37q-5 -4 -11 -8t-13 -8l5 -11q164 89 176 160l1 56l71 65v-225l-61 49q-4 0 -27 -22q-29 -27 -42 -36l-89.5 -60l-66.5 -44l5 -10q22 13 23 14l36 20t35 21q25 12 54 12q38 0 79 -24
q14 -8 28.5 -19.5t30.5 -25.5q25 -24 27 -24q3 0 7 4q16 20 42 40t61 42q42 24 64 33q153 102 153 273q0 24 -4 49t-15 51.5t-29.5 56t-48.5 62.5z" />
    <glyph glyph-name="Ugrave" unicode="&#xd9;" horiz-adv-x="705" 
d="M693 87l-8 15q-8 -7 -17 -13t-18 -13q-22 -16 -39 -13q-27 5 -31 57v68v330q0 28 30 51l16 12t16 11q-70 7 -125 89q-23 -42 -70 -74l-21.5 -14l-21.5 -14q19 -4 41 -20q31 -21 31 -44l1 -72l-150 -85l-0.5 -0.5t-2.5 -1.5q-2 0 -2 305h-17q-1 -418 0 -577q-51 22 -64 40
q-24 -30 -98 -76q-25 -14 -49 -29l-49 -30l9 -16q58 55 117 55q31 0 65 -26q34 -25 39 -25q19 16 46 35t63 41l61.5 40t39.5 30q0 -74 6 -90q9 -30 57 -64zM225 187l1 199q0 176 -19 210q-49 87 -81 88l-81 -64.5t-49 -33.5q0 -5 9 -11l28.5 17t25.5 9q58 0 72 -89v-368
q-2 -20 -9.5 -34.5t-18 -26t-23 -21.5l-24.5 -19q-3 -15 8 -15q90 56 100 64q60 47 61 95zM477 352q-59 -35 -59 -36l1 74q53 35 58 33v-71zM379 301q-18 -13 -32 -21.5t-24 -13.5l1 71l57 30zM477 331v-137q0 -44 -41 -74q-18 -14 -57 -28q-35 -13 -51 -13q-5 0 -5 2v167
q10 13 73 45l46 22.5t35 15.5zM230 807q-2 -8 -2 -12q0 -31 39 -31q-4 0 39.5 -7l134.5 -21l2 7l-158 88q-13 7 -24 7q-24 0 -31 -31z" />
    <glyph glyph-name="Uacute" unicode="&#xda;" horiz-adv-x="705" 
d="M693 87l-8 15q-8 -7 -17 -13t-18 -13q-22 -16 -39 -13q-27 5 -31 57v68v330q0 28 30 51l16 12t16 11q-70 7 -125 89q-23 -42 -70 -74l-21.5 -14l-21.5 -14q19 -4 41 -20q31 -21 31 -44l1 -72l-150 -85l-0.5 -0.5t-2.5 -1.5q-2 0 -2 305h-17q-1 -418 0 -577q-51 22 -64 40
q-24 -30 -98 -76q-25 -14 -49 -29l-49 -30l9 -16q58 55 117 55q31 0 65 -26q34 -25 39 -25q19 16 46 35t63 41l61.5 40t39.5 30q0 -74 6 -90q9 -30 57 -64zM225 187l1 199q0 176 -19 210q-49 87 -81 88l-81 -64.5t-49 -33.5q0 -5 9 -11l28.5 17t25.5 9q58 0 72 -89v-368
q-2 -20 -9.5 -34.5t-18 -26t-23 -21.5l-24.5 -19q-3 -15 8 -15q90 56 100 64q60 47 61 95zM477 352q-59 -35 -59 -36l1 74q53 35 58 33v-71zM379 301q-18 -13 -32 -21.5t-24 -13.5l1 71l57 30zM477 331v-137q0 -44 -41 -74q-18 -14 -57 -28q-35 -13 -51 -13q-5 0 -5 2v167
q10 13 73 45l46 22.5t35 15.5zM446 807q2 -8 2 -12q0 -31 -39 -31q4 0 -39.5 -7l-134.5 -21l-2 7l158 88q13 7 24 7q24 0 31 -31z" />
    <glyph glyph-name="Ucircumflex" unicode="&#xdb;" horiz-adv-x="705" 
d="M693 87l-8 15q-8 -7 -17 -13t-18 -13q-22 -16 -39 -13q-27 5 -31 57v68v330q0 28 30 51l16 12t16 11q-70 7 -125 89q-23 -42 -70 -74l-21.5 -14l-21.5 -14q19 -4 41 -20q31 -21 31 -44l1 -72l-150 -85l-0.5 -0.5t-2.5 -1.5q-2 0 -2 305h-17q-1 -418 0 -577q-51 22 -64 40
q-24 -30 -98 -76q-25 -14 -49 -29l-49 -30l9 -16q58 55 117 55q31 0 65 -26q34 -25 39 -25q19 16 46 35t63 41l61.5 40t39.5 30q0 -74 6 -90q9 -30 57 -64zM225 187l1 199q0 176 -19 210q-49 87 -81 88l-81 -64.5t-49 -33.5q0 -5 9 -11l28.5 17t25.5 9q58 0 72 -89v-368
q-2 -20 -9.5 -34.5t-18 -26t-23 -21.5l-24.5 -19q-3 -15 8 -15q90 56 100 64q60 47 61 95zM477 352q-59 -35 -59 -36l1 74q53 35 58 33v-71zM379 301q-18 -13 -32 -21.5t-24 -13.5l1 71l57 30zM477 331v-137q0 -44 -41 -74q-18 -14 -57 -28q-35 -13 -51 -13q-5 0 -5 2v167
q10 13 73 45l46 22.5t35 15.5zM211 705l120 48l122 -50l3 6l-128 102l-119 -100z" />
    <glyph glyph-name="Udieresis" unicode="&#xdc;" horiz-adv-x="705" 
d="M693 87l-8 15q-8 -7 -17 -13t-18 -13q-22 -16 -39 -13q-27 5 -31 57v68v330q0 28 30 51l16 12t16 11q-70 7 -125 89q-23 -42 -70 -74l-21.5 -14l-21.5 -14q19 -4 41 -20q31 -21 31 -44l1 -72l-150 -85l-0.5 -0.5t-2.5 -1.5q-2 0 -2 305h-17q-1 -418 0 -577q-51 22 -64 40
q-24 -30 -98 -76q-25 -14 -49 -29l-49 -30l9 -16q58 55 117 55q31 0 65 -26q34 -25 39 -25q19 16 46 35t63 41l61.5 40t39.5 30q0 -74 6 -90q9 -30 57 -64zM225 187l1 199q0 176 -19 210q-49 87 -81 88l-81 -64.5t-49 -33.5q0 -5 9 -11l28.5 17t25.5 9q58 0 72 -89v-368
q-2 -20 -9.5 -34.5t-18 -26t-23 -21.5l-24.5 -19q-3 -15 8 -15q90 56 100 64q60 47 61 95zM477 352q-59 -35 -59 -36l1 74q53 35 58 33v-71zM379 301q-18 -13 -32 -21.5t-24 -13.5l1 71l57 30zM477 331v-137q0 -44 -41 -74q-18 -14 -57 -28q-35 -13 -51 -13q-5 0 -5 2v167
q10 13 73 45l46 22.5t35 15.5zM359 768q0 -18 13 -31.5t31 -13.5q19 0 32 13t13 32t-13 32t-32 13t-31.5 -13t-12.5 -32zM219 768q0 -18 13 -31.5t31 -13.5q19 0 32 13t13 32t-13 32t-32 13t-31.5 -13t-12.5 -32z" />
    <glyph glyph-name="Yacute" unicode="&#xdd;" horiz-adv-x="638" 
d="M604 330q0 86 -37 151q-8 14 -27 39t-50 60q-49 58 -66 107l-221 -127q2 33 -25 76q-26 45 -57 46l-127 -83l9 -16q7 19 37 19q64 0 64 -90v-375q0 -30 -20 -53q-11 -13 -42 -32l7 -9q154 88 154 184v193q0 78 1 120l43.5 24l31.5 17v-479l-61 36q-123 -92 -186 -135
l13 -7q48 48 105 48q61 0 113 -52l36.5 35.5t42.5 37.5q3 2 24 18.5l61 47.5l-9 11q-49 -49 -102 -49q-1 0 -21 5v140l214 115q10 -14 10 -62q0 -106 -57 -184l-52.5 -57.5l-52.5 -57.5q-57 -65 -57 -134q0 -46 35 -76q31 -27 80 -27q45 0 74.5 26.5t29.5 71.5
q0 33 -18.5 56t-50.5 23q-13 0 -26.5 -4.5t-24 -12.5t-17 -19t-6.5 -24q0 -24 12 -40q12 -19 35 -19q5 0 14 2.5t13 2.5l15 -15q0 -8 -5.5 -14t-13.5 -10t-17.5 -6.5t-18.5 -2.5q-42 0 -67 27.5t-25 69.5q0 63 74 131q132 121 138 129q74 91 74 203zM461 441l-166 -95v247
q15 10 26 16.5t18 8.5q21 -43 56 -92l22.5 -29.5zM501 367l-97 -55v78l64 37zM362 293l-67 -36v73l67 37v-74zM396 787q2 -8 2 -12q0 -31 -39 -31q4 0 -39.5 -7l-134.5 -21l-2 7l158 88q13 7 24 7q24 0 31 -31z" />
    <glyph glyph-name="Thorn" unicode="&#xde;" horiz-adv-x="751" 
d="M693 289q0 89 -31 144q-11 19 -30.5 40t-47.5 46q-73 61 -103 97q-13 -8 -44 -23.5l-80 -38.5t-80.5 -36.5t-45.5 -18.5q-4 25 -6.5 48t-4.5 45q-17 42 -32 60q-23 28 -66 42l-128 -97l9 -10q26 23 46 23q76 0 76 -143v-337v-36q-82 -53 -111 -110q4 -7 11 -7
q7 14 18.5 27.5t25 25t28 19t28.5 9.5v-205q0 -18 -9.5 -41t-22.5 -33q49 8 72 31q65 50 141 62q-27 13 -52 23q-21 15 -21 51l-1 90q80 -57 109 -68q46 44 151 90q105 45 139 76q62 56 62 155zM562 415l-117.5 -56.5l-106.5 -49.5v199q142 3 224 -93zM601 336l-106 -52
l1 80l73 37zM419 249l-82 -38l1 84l81 38v-84zM615 237q-14 -68 -43 -96q-30 -28 -107 -39q-5 -1 -11 -1h-14q-41 0 -102 9v84l267 128q11 -44 11 -70q0 -11 -1 -15zM322 125q-45 31 -66 36q-12 -8 -27 -12v319q1 5 93 37v-380z" />
    <glyph glyph-name="germandbls" unicode="&#xdf;" horiz-adv-x="463" 
d="M346 665v9q-2 1 -9 3q-38 -32 -39 -32q-6 0 -30 32q-23 32 -27 28q-57 -57 -125 -88q-39 -19 -97 -17q-11 0 -11 1v-18h38q23 0 26 -12l2 -20l2 -21v-55q-2 -3 -74 0l1 -63q74 3 76 1q-2 -51 1.5 -120.5t12.5 -157.5q10 -96 14.5 -162.5t4.5 -106.5v-27q0 -14 -1 -27
q1 -1 11 -1q9 0 10 1q0 101 15 298q15 198 15 299l65 1h15q7 0 30 -16q25 -15 26 -21q3 -11 3 -33q0 -60 -10 -76q-18 -33 -88 -33l-1 -14q11 1 20 1h16q45 0 54 -20q6 -12 6 -79q0 -57 -8 -76q-4 -11 -27 -46q-22 -36 -26 -48q-4 -14 -5.5 -24l-2.5 -17q0 -51 31 -82
q28 -28 68 -28q72 0 89 84q-25 64 -59 64q-59 0 -59 -50q0 -16 14 -27t30 -11q25 0 29 -7q0 -2 1 -3v-3q0 -13 -14 -22.5t-27 -9.5q-34 0 -59 27q-25 26 -25 62q0 59 61 108q55 46 117 51l-2 9q-7 2 -13 3.5t-12 3.5q-15 4 -15 18v59q0 46 -5 58q-9 18 -54 18q-23 0 -26 3
l39 20l38 21q11 11 11 88q0 34 12 46q1 1 12 7.5t33 17.5l-2 11q-1 0 -6 -2l-11 -4.5t-12.5 -4.5t-10.5 -2q-24 0 -58 32q-32 32 -34 32q-17 0 -83 -22q0 2 -1 2q-67 0 -65 -2l1 143q1 3 15 12q12 10 14 8l47 -55q-6 -14 -10.5 -23.5t-6.5 -14.5q2 0 7 -6.5t5 -5.5
q17 37 45.5 70t67.5 64z" />
    <glyph glyph-name="agrave" unicode="&#xe0;" 
d="M322 409q-23 0 -81 31l-42.5 24.5t-35.5 22.5q-7 -8 -19 -19.5t-31 -25.5q-37 -28 -50 -44q-24 -29 -24 -59q0 -61 57 -106q-33 -17 -58 -47q-32 -35 -32 -65q0 -71 77 -130l144 105v-17q0 -3 3 -12q7 -23 31 -47q7 -6 18 -14.5t27 -19.5q16 20 42 49l62 67q-1 10 -11 8
q-32 -32 -50 -32q-20 0 -32 31q-9 24 -9 49v36t1 51v88q0 41 18 58q8 8 55 30q-1 0 -5 8q-2 3 -8 3q-28 -23 -47 -23zM229 292q-5 -3 -19.5 -9.5l-37.5 -16.5q-48 -20 -53 -20q-25 0 -46 36q-18 31 -18 58q0 16 18 43q18 28 33 28q7 0 60 -29l39 -22.5l24 -14.5v-53z
M224 118l-39 -30q-32 -24 -38 -24q-14 0 -33 37q-18 34 -18 51q0 55 60 87q33 16 68 31v-152zM110 585q-1 -3 -1 -10q0 -29 35 -29q10 0 155 -26l3 7l-143 79q-12 6 -21 6q-21 0 -28 -27z" />
    <glyph glyph-name="aacute" unicode="&#xe1;" 
d="M322 409q-23 0 -81 31l-42.5 24.5t-35.5 22.5q-7 -8 -19 -19.5t-31 -25.5q-37 -28 -50 -44q-24 -29 -24 -59q0 -61 57 -106q-33 -17 -58 -47q-32 -35 -32 -65q0 -71 77 -130l144 105v-17q0 -3 3 -12q7 -23 31 -47q7 -6 18 -14.5t27 -19.5q16 20 42 49l62 67q-1 10 -11 8
q-32 -32 -50 -32q-20 0 -32 31q-9 24 -9 49v36t1 51v88q0 41 18 58q8 8 55 30q-1 0 -5 8q-2 3 -8 3q-28 -23 -47 -23zM229 292q-5 -3 -19.5 -9.5l-37.5 -16.5q-48 -20 -53 -20q-25 0 -46 36q-18 31 -18 58q0 16 18 43q18 28 33 28q7 0 60 -29l39 -22.5l24 -14.5v-53z
M224 118l-39 -30q-32 -24 -38 -24q-14 0 -33 37q-18 34 -18 51q0 55 60 87q33 16 68 31v-152zM305 585q1 -4 1 -11q0 -28 -34 -28q-11 0 -156 -26l-2 7l142 79q11 7 22 7q20 0 27 -28z" />
    <glyph glyph-name="acircumflex" unicode="&#xe2;" 
d="M322 409q-23 0 -81 31l-42.5 24.5t-35.5 22.5q-7 -8 -19 -19.5t-31 -25.5q-37 -28 -50 -44q-24 -29 -24 -59q0 -61 57 -106q-33 -17 -58 -47q-32 -35 -32 -65q0 -71 77 -130l144 105v-17q0 -3 3 -12q7 -23 31 -47q7 -6 18 -14.5t27 -19.5q16 20 42 49l62 67q-1 10 -11 8
q-32 -32 -50 -32q-20 0 -32 31q-9 24 -9 49v36t1 51v88q0 41 18 58q8 8 55 30q-1 0 -5 8q-2 3 -8 3q-28 -23 -47 -23zM229 292q-5 -3 -19.5 -9.5l-37.5 -16.5q-48 -20 -53 -20q-25 0 -46 36q-18 31 -18 58q0 16 18 43q18 28 33 28q7 0 60 -29l39 -22.5l24 -14.5v-53z
M224 118l-39 -30q-32 -24 -38 -24q-14 0 -33 37q-18 34 -18 51q0 55 60 87q33 16 68 31v-152zM81 505l120 48l122 -50l3 6l-128 102l-119 -100z" />
    <glyph glyph-name="atilde" unicode="&#xe3;" 
d="M322 409q-23 0 -81 31l-42.5 24.5t-35.5 22.5q-7 -8 -19 -19.5t-31 -25.5q-37 -28 -50 -44q-24 -29 -24 -59q0 -61 57 -106q-33 -17 -58 -47q-32 -35 -32 -65q0 -71 77 -130l144 105v-17q0 -3 3 -12q7 -23 31 -47q7 -6 18 -14.5t27 -19.5q16 20 42 49l62 67q-1 10 -11 8
q-32 -32 -50 -32q-20 0 -32 31q-9 24 -9 49v36t1 51v88q0 41 18 58q8 8 55 30q-1 0 -5 8q-2 3 -8 3q-28 -23 -47 -23zM229 292q-5 -3 -19.5 -9.5l-37.5 -16.5q-48 -20 -53 -20q-25 0 -46 36q-18 31 -18 58q0 16 18 43q18 28 33 28q7 0 60 -29l39 -22.5l24 -14.5v-53z
M224 118l-39 -30q-32 -24 -38 -24q-14 0 -33 37q-18 34 -18 51q0 55 60 87q33 16 68 31v-152zM82 517q18 18 69 18q10 0 34 -11q21 -10 35 -10q32 0 60 18t42 47q-8 -5 -33 -13q-22 -7 -35 -7t-38 11q-24 12 -38 12q-16 0 -32 -4.5t-29 -13t-22.5 -20.5t-12.5 -27z" />
    <glyph glyph-name="adieresis" unicode="&#xe4;" 
d="M322 409q-23 0 -81 31l-42.5 24.5t-35.5 22.5q-7 -8 -19 -19.5t-31 -25.5q-37 -28 -50 -44q-24 -29 -24 -59q0 -61 57 -106q-33 -17 -58 -47q-32 -35 -32 -65q0 -71 77 -130l144 105v-17q0 -3 3 -12q7 -23 31 -47q7 -6 18 -14.5t27 -19.5q16 20 42 49l62 67q-1 10 -11 8
q-32 -32 -50 -32q-20 0 -32 31q-9 24 -9 49v36t1 51v88q0 41 18 58q8 8 55 30q-1 0 -5 8q-2 3 -8 3q-28 -23 -47 -23zM229 292q-5 -3 -19.5 -9.5l-37.5 -16.5q-48 -20 -53 -20q-25 0 -46 36q-18 31 -18 58q0 16 18 43q18 28 33 28q7 0 60 -29l39 -22.5l24 -14.5v-53z
M224 118l-39 -30q-32 -24 -38 -24q-14 0 -33 37q-18 34 -18 51q0 55 60 87q33 16 68 31v-152zM229 568q0 -18 13 -31.5t31 -13.5q19 0 32 13t13 32t-13 32t-32 13t-31.5 -13t-12.5 -32zM89 568q0 -18 13 -31.5t31 -13.5q19 0 32 13t13 32t-13 32t-32 13t-31.5 -13t-12.5 -32
z" />
    <glyph glyph-name="aring" unicode="&#xe5;" 
d="M322 409q-23 0 -81 31l-42.5 24.5t-35.5 22.5q-7 -8 -19 -19.5t-31 -25.5q-37 -28 -50 -44q-24 -29 -24 -59q0 -61 57 -106q-33 -17 -58 -47q-32 -35 -32 -65q0 -71 77 -130l144 105v-17q0 -3 3 -12q7 -23 31 -47q7 -6 18 -14.5t27 -19.5q16 20 42 49l62 67q-1 10 -11 8
q-32 -32 -50 -32q-20 0 -32 31q-9 24 -9 49v36t1 51v88q0 41 18 58q8 8 55 30q-1 0 -5 8q-2 3 -8 3q-28 -23 -47 -23zM229 292q-5 -3 -19.5 -9.5l-37.5 -16.5q-48 -20 -53 -20q-25 0 -46 36q-18 31 -18 58q0 16 18 43q18 28 33 28q7 0 60 -29l39 -22.5l24 -14.5v-53z
M224 118l-39 -30q-32 -24 -38 -24q-14 0 -33 37q-18 34 -18 51q0 55 60 87q33 16 68 31v-152zM203 664q-29 0 -50 -22t-21 -51q0 -12 6 -24.5t15.5 -22t22.5 -15.5t27 -6q28 0 49 21t21 49q0 29 -20.5 50t-49.5 21zM203 641q20 0 33.5 -13.5t13.5 -34.5q0 -20 -13.5 -33.5
t-33.5 -13.5t-33.5 13.5t-13.5 33.5q0 21 13.5 34.5t33.5 13.5z" />
    <glyph glyph-name="ae" unicode="&#xe6;" horiz-adv-x="522" 
d="M229 292q-5 -3 -19.5 -9.5l-37.5 -16.5q-48 -20 -53 -20q-25 0 -46 36q-18 31 -18 58q0 16 18 43q18 28 33 28q7 0 60 -29l39 -22.5l24 -14.5v-53zM410 314q0 -4 -46 -34q-53 -35 -54 -36q3 55 0 162q16 14 20 14q6 0 10 -8t7 -15q63 -86 63 -83zM231 119
q-70 -55 -84 -55t-33 37q-18 34 -18 51q0 53 58 84l38 15.5l38 15.5q1 -25 1 -62v-86zM492 347q0 3 -34 49l-40 54q-10 15 -23 41q-16 -34 -107 -71q-25 8 -56 25t-69 42q-7 -8 -19 -19.5t-31 -25.5q-37 -28 -50 -44q-24 -29 -24 -59q0 -61 57 -106q-33 -17 -58 -47
q-32 -35 -32 -65q0 -71 77 -130l149 107q2 -24 0 -47q1 -7 59 -28q66 -25 75 -31l123 148q-8 7 -16 7l-60 -72l-102 31v103q0 5 90 68q91 63 91 70z" />
    <glyph glyph-name="ccedilla" unicode="&#xe7;" horiz-adv-x="355" 
d="M186 -13q5 2 10 3l10 2l130 136q-3 10 -11 15q-13 -15 -46 -46q-41 -38 -46 -38q-4 0 -35 28q-32 29 -38 32v270q0 42 21 42q4 0 28 -38q8 -11 15 -22.5l14 -22.5q4 1 18 8.5t37 23.5q48 33 52 39l-5 12q-37 -26 -39 -26q-18 0 -58 79l-15 -1q-44 -46 -132 -62
q-22 -4 -44 -7t-44 -7v-8q5 -4 21 -4q23 0 27 -1q14 -5 14 -20v-170q0 -72 -1 -120q-15 -25 -26 -28q-17 -5 -29 -14q-4 -13 8 -13l20 13q23 14 37 14q20 0 46 -24l39 -39l-1 -70q22 12 32 11l11 -1q7 -8 7 -32q0 -8 -17 -34l-8 -4q-17 20 -38 20t-36.5 -13t-16.5 -34l7 -1
q3 20 21 20q23 0 45 -31q24 31 43 31q36 0 47 -4q-8 6 -8 29q0 17 4 34t4 19q-8 24 -41 25q-2 0 -25 -5z" />
    <glyph glyph-name="egrave" unicode="&#xe8;" horiz-adv-x="352" 
d="M240 314q0 -4 -46 -34q-53 -35 -54 -36q3 55 0 162q16 14 20 14q6 0 10 -8t7 -15q63 -86 63 -83zM322 347q0 3 -34 49l-40 54q-10 15 -23 41q-19 -40 -121 -76q-34 -7 -59 -11t-42 -5l-3 -3l7 -14l21 3q32 0 32 -47v-47t1 -66v-114q0 -32 -27 -54q-26 -23 -26 -22
q0 -10 13 -10q3 0 19 13q17 14 30 14q37 0 126 -60l123 148q-8 7 -16 7q-56 -72 -60 -72q-6 0 -48 21q-42 22 -52 29q-1 28 -1.5 49t-0.5 35q0 5 90 68q91 63 91 70zM70 585q-1 -3 -1 -10q0 -29 35 -29q10 0 155 -26l3 7l-143 79q-12 6 -21 6q-21 0 -28 -27z" />
    <glyph glyph-name="eacute" unicode="&#xe9;" horiz-adv-x="352" 
d="M240 314q0 -4 -46 -34q-53 -35 -54 -36q3 55 0 162q16 14 20 14q6 0 10 -8t7 -15q63 -86 63 -83zM322 347q0 3 -34 49l-40 54q-10 15 -23 41q-19 -40 -121 -76q-34 -7 -59 -11t-42 -5l-3 -3l7 -14l21 3q32 0 32 -47v-47t1 -66v-114q0 -32 -27 -54q-26 -23 -26 -22
q0 -10 13 -10q3 0 19 13q17 14 30 14q37 0 126 -60l123 148q-8 7 -16 7q-56 -72 -60 -72q-6 0 -48 21q-42 22 -52 29q-1 28 -1.5 49t-0.5 35q0 5 90 68q91 63 91 70zM265 585q1 -4 1 -11q0 -28 -34 -28q-11 0 -156 -26l-2 7l142 79q11 7 22 7q20 0 27 -28z" />
    <glyph glyph-name="ecircumflex" unicode="&#xea;" horiz-adv-x="352" 
d="M240 314q0 -4 -46 -34q-53 -35 -54 -36q3 55 0 162q16 14 20 14q6 0 10 -8t7 -15q63 -86 63 -83zM322 347q0 3 -34 49l-40 54q-10 15 -23 41q-19 -40 -121 -76q-34 -7 -59 -11t-42 -5l-3 -3l7 -14l21 3q32 0 32 -47v-47t1 -66v-114q0 -32 -27 -54q-26 -23 -26 -22
q0 -10 13 -10q3 0 19 13q17 14 30 14q37 0 126 -60l123 148q-8 7 -16 7q-56 -72 -60 -72q-6 0 -48 21q-42 22 -52 29q-1 28 -1.5 49t-0.5 35q0 5 90 68q91 63 91 70zM41 505l120 48l122 -50l3 6l-128 102l-119 -100z" />
    <glyph glyph-name="edieresis" unicode="&#xeb;" horiz-adv-x="352" 
d="M240 314q0 -4 -46 -34q-53 -35 -54 -36q3 55 0 162q16 14 20 14q6 0 10 -8t7 -15q63 -86 63 -83zM322 347q0 3 -34 49l-40 54q-10 15 -23 41q-19 -40 -121 -76q-34 -7 -59 -11t-42 -5l-3 -3l7 -14l21 3q32 0 32 -47v-47t1 -66v-114q0 -32 -27 -54q-26 -23 -26 -22
q0 -10 13 -10q3 0 19 13q17 14 30 14q37 0 126 -60l123 148q-8 7 -16 7q-56 -72 -60 -72q-6 0 -48 21q-42 22 -52 29q-1 28 -1.5 49t-0.5 35q0 5 90 68q91 63 91 70zM189 568q0 -18 13 -31.5t31 -13.5q19 0 32 13t13 32t-13 32t-32 13t-31.5 -13t-12.5 -32zM49 568
q0 -18 13 -31.5t31 -13.5q19 0 32 13t13 32t-13 32t-32 13t-31.5 -13t-12.5 -32z" />
    <glyph glyph-name="igrave" unicode="&#xec;" horiz-adv-x="269" 
d="M259 89q6 11 -10 11q-5 -3 -17 -17q-8 -8 -21 -8q-32 0 -32 64v237q0 9 19 37q2 4 20 18q17 14 17 15q0 2 -4.5 6t-4.5 7q-20 -17 -34 -17q-12 0 -46 25q-17 13 -25.5 19l-8.5 6q-8 0 -12 -7l-95 -95l16 -9q28 33 32 33q5 0 37 -27v-304q0 -42 62 -81q16 -10 15 -10
q5 0 12 7q10 14 19 25t19 21q40 40 42 44zM30 585q-1 -3 -1 -10q0 -29 35 -29q10 0 155 -26l3 7l-143 79q-12 6 -21 6q-21 0 -28 -27z" />
    <glyph glyph-name="iacute" unicode="&#xed;" horiz-adv-x="269" 
d="M259 89q6 11 -10 11q-5 -3 -17 -17q-8 -8 -21 -8q-32 0 -32 64v237q0 9 19 37q2 4 20 18q17 14 17 15q0 2 -4.5 6t-4.5 7q-20 -17 -34 -17q-12 0 -46 25q-17 13 -25.5 19l-8.5 6q-8 0 -12 -7l-95 -95l16 -9q28 33 32 33q5 0 37 -27v-304q0 -42 62 -81q16 -10 15 -10
q5 0 12 7q10 14 19 25t19 21q40 40 42 44zM215 585q1 -4 1 -11q0 -28 -34 -28q-11 0 -156 -26l-2 7l142 79q11 7 22 7q20 0 27 -28z" />
    <glyph glyph-name="icircumflex" unicode="&#xee;" horiz-adv-x="269" 
d="M259 89q6 11 -10 11q-5 -3 -17 -17q-8 -8 -21 -8q-32 0 -32 64v237q0 9 19 37q2 4 20 18q17 14 17 15q0 2 -4.5 6t-4.5 7q-20 -17 -34 -17q-12 0 -46 25q-17 13 -25.5 19l-8.5 6q-8 0 -12 -7l-95 -95l16 -9q28 33 32 33q5 0 37 -27v-304q0 -42 62 -81q16 -10 15 -10
q5 0 12 7q10 14 19 25t19 21q40 40 42 44zM1 505l120 48l122 -50l3 6l-128 102l-119 -100z" />
    <glyph glyph-name="idieresis" unicode="&#xef;" horiz-adv-x="269" 
d="M259 89q6 11 -10 11q-5 -3 -17 -17q-8 -8 -21 -8q-32 0 -32 64v237q0 9 19 37q2 4 20 18q17 14 17 15q0 2 -4.5 6t-4.5 7q-20 -17 -34 -17q-12 0 -46 25q-17 13 -25.5 19l-8.5 6q-8 0 -12 -7l-95 -95l16 -9q28 33 32 33q5 0 37 -27v-304q0 -42 62 -81q16 -10 15 -10
q5 0 12 7q10 14 19 25t19 21q40 40 42 44zM159 568q0 -18 13 -31.5t31 -13.5q19 0 32 13t13 32t-13 32t-32 13t-31.5 -13t-12.5 -32zM19 568q0 -18 13 -31.5t31 -13.5q19 0 32 13t13 32t-13 32t-32 13t-31.5 -13t-12.5 -32z" />
    <glyph glyph-name="eth" unicode="&#xf0;" 
d="M261 81l-21 -27l-86 62v274q40 22 50 23q20 -11 34 -19.5t23 -14.5v-298zM29 426l30 -18l39 66q26 -14 44.5 -25t30.5 -19v-8l-66 -28.5l-47 -19.5l9 -21v-212q0 -11 -5 -23t-12.5 -23t-18 -20t-20.5 -13q3 -15 10 -15q2 0 7 3t12 6.5t14 6.5t13 3q19 0 63 -36
q34 -29 55 -54h1l4 -1h4q44 55 156 100v285q-2 6 -2 11q0 35 60 70q0 10 -8 10q-3 0 -9.5 -2t-13.5 -5t-13.5 -5t-10.5 -2q-17 0 -78 31l-45 23.5l-36 19.5l-33 18.5l-24 12.5l38 62l-30 18l-39 -64q-83 46 -112 98q-15 4 -15 -8q0 -7 19 -33q18 -27 18 -57q0 -14 -12 -39
q-11 -25 -11 -28q0 -11 9 -11q5 0 13.5 6t20.5 6q10 0 27 -5z" />
    <glyph glyph-name="ntilde" unicode="&#xf1;" horiz-adv-x="491" 
d="M176 152v222l10.5 8l32.5 24q43 33 47 30q24 -9 37 -34l4 -10.5t3 -11.5v-49v-228q0 -48 23 -83q24 -35 49 -35q2 0 10 9q2 2 3 5t3 5q87 106 87 105q0 7 -9 7q-38 -38 -43 -38q-37 0 -37 76v173q0 47 10 68q14 33 58 53q6 2 5 2q-2 3 -3 5.5t-2 4.5l-13.5 -6t-13.5 -7
q-20 -9 -31 -9q-13 0 -23 6q-11 6 -20 15t-16.5 17.5l-13.5 15.5t-9 10q-3 0 -77 -53t-75 -52q-1 23 -14 56q-3 5 -26 27q-23 21 -33 21q-9 0 -11 -5l-45.5 -45.5l-36.5 -33.5q-12 -11 -12 -12q0 -16 8 -16q4 0 20 16t31 16q23 0 28 -20q1 -4 1.5 -13t0.5 -24v-218
q9 -40 -52 -77v-7q62 -18 78 -55l5.5 -12.5t4.5 -9.5h12q9 25 37 48t52 31v7q-44 23 -44 81zM122 527q18 18 69 18q10 0 34 -11q21 -10 35 -10q32 0 60 18t42 47q-8 -5 -33 -13q-22 -7 -35 -7t-38 11q-24 12 -38 12q-16 0 -32 -4.5t-29 -13t-22.5 -20.5t-12.5 -27z" />
    <glyph glyph-name="ograve" unicode="&#xf2;" horiz-adv-x="411" 
d="M404 445l-5 10q-46 -25 -64 -25q-9 0 -15.5 2t-14 7t-18 13.5l-26.5 21.5q-27 21 -29 21t-17 -22l-17 -26q-10 -11 -30 -22.5t-34 -11.5q-35 0 -75 70v-324q0 -59 -10 -72l-19.5 -19t-13.5 -12q-24 -20 -24 -17q0 -4 8 -12q10 5 33 23q11 10 26 10q25 0 80 -40t54 -40
q4 0 6 2q13 31 53 65t71 40q8 2 15.5 2.5t15.5 1.5q-5 15 -7.5 26t-3.5 18q-1 78 -0.5 138t1.5 105q3 30 24 47zM261 76l-24 -20l-91 60v279q10 0 21.5 7l23.5 14q2 2 70 -48q-1 -72 0 -292zM110 585q-1 -3 -1 -10q0 -29 35 -29q10 0 155 -26l3 7l-143 79q-12 6 -21 6
q-21 0 -28 -27z" />
    <glyph glyph-name="oacute" unicode="&#xf3;" horiz-adv-x="411" 
d="M404 445l-5 10q-46 -25 -64 -25q-9 0 -15.5 2t-14 7t-18 13.5l-26.5 21.5q-27 21 -29 21t-17 -22l-17 -26q-10 -11 -30 -22.5t-34 -11.5q-35 0 -75 70v-324q0 -59 -10 -72l-19.5 -19t-13.5 -12q-24 -20 -24 -17q0 -4 8 -12q10 5 33 23q11 10 26 10q25 0 80 -40t54 -40
q4 0 6 2q13 31 53 65t71 40q8 2 15.5 2.5t15.5 1.5q-5 15 -7.5 26t-3.5 18q-1 78 -0.5 138t1.5 105q3 30 24 47zM261 76l-24 -20l-91 60v279q10 0 21.5 7l23.5 14q2 2 70 -48q-1 -72 0 -292zM305 585q1 -4 1 -11q0 -28 -34 -28q-11 0 -156 -26l-2 7l142 79q11 7 22 7
q20 0 27 -28z" />
    <glyph glyph-name="ocircumflex" unicode="&#xf4;" horiz-adv-x="411" 
d="M404 445l-5 10q-46 -25 -64 -25q-9 0 -15.5 2t-14 7t-18 13.5l-26.5 21.5q-27 21 -29 21t-17 -22l-17 -26q-10 -11 -30 -22.5t-34 -11.5q-35 0 -75 70v-324q0 -59 -10 -72l-19.5 -19t-13.5 -12q-24 -20 -24 -17q0 -4 8 -12q10 5 33 23q11 10 26 10q25 0 80 -40t54 -40
q4 0 6 2q13 31 53 65t71 40q8 2 15.5 2.5t15.5 1.5q-5 15 -7.5 26t-3.5 18q-1 78 -0.5 138t1.5 105q3 30 24 47zM261 76l-24 -20l-91 60v279q10 0 21.5 7l23.5 14q2 2 70 -48q-1 -72 0 -292zM91 515l120 48l122 -50l3 6l-128 102l-119 -100z" />
    <glyph glyph-name="otilde" unicode="&#xf5;" horiz-adv-x="411" 
d="M404 445l-5 10q-46 -25 -64 -25q-9 0 -15.5 2t-14 7t-18 13.5l-26.5 21.5q-27 21 -29 21t-17 -22l-17 -26q-10 -11 -30 -22.5t-34 -11.5q-35 0 -75 70v-324q0 -59 -10 -72l-19.5 -19t-13.5 -12q-24 -20 -24 -17q0 -4 8 -12q10 5 33 23q11 10 26 10q25 0 80 -40t54 -40
q4 0 6 2q13 31 53 65t71 40q8 2 15.5 2.5t15.5 1.5q-5 15 -7.5 26t-3.5 18q-1 78 -0.5 138t1.5 105q3 30 24 47zM261 76l-24 -20l-91 60v279q10 0 21.5 7l23.5 14q2 2 70 -48q-1 -72 0 -292zM82 537q18 18 69 18q10 0 34 -11q21 -10 35 -10q32 0 60 18t42 47q-8 -5 -33 -13
q-22 -7 -35 -7t-38 11q-24 12 -38 12q-16 0 -32 -4.5t-29 -13t-22.5 -20.5t-12.5 -27z" />
    <glyph glyph-name="odieresis" unicode="&#xf6;" horiz-adv-x="411" 
d="M404 445l-5 10q-46 -25 -64 -25q-9 0 -15.5 2t-14 7t-18 13.5l-26.5 21.5q-27 21 -29 21t-17 -22l-17 -26q-10 -11 -30 -22.5t-34 -11.5q-35 0 -75 70v-324q0 -59 -10 -72l-19.5 -19t-13.5 -12q-24 -20 -24 -17q0 -4 8 -12q10 5 33 23q11 10 26 10q25 0 80 -40t54 -40
q4 0 6 2q13 31 53 65t71 40q8 2 15.5 2.5t15.5 1.5q-5 15 -7.5 26t-3.5 18q-1 78 -0.5 138t1.5 105q3 30 24 47zM261 76l-24 -20l-91 60v279q10 0 21.5 7l23.5 14q2 2 70 -48q-1 -72 0 -292zM239 568q0 -18 13 -31.5t31 -13.5q19 0 32 13t13 32t-13 32t-32 13t-31.5 -13
t-12.5 -32zM99 568q0 -18 13 -31.5t31 -13.5q19 0 32 13t13 32t-13 32t-32 13t-31.5 -13t-12.5 -32z" />
    <glyph glyph-name="divide" unicode="&#xf7;" horiz-adv-x="667" 
d="M332 587q-24 0 -39.5 -16t-15.5 -39t16 -38.5t39 -15.5q22 0 38 16t16 38q0 23 -15.5 39t-38.5 16zM63 371v-86h540v86h-540zM332 182q-23 0 -39 -16t-16 -39t16 -39t39 -16t39.5 16t16.5 39t-16.5 39t-39.5 16z" />
    <glyph glyph-name="oslash" unicode="&#xf8;" horiz-adv-x="411" 
d="M260 291q-1 -35 -1 -90v-128l-22 -17l-91 60v53zM146 208v187q10 0 21.5 7l23.5 14q1 1 69 -46v-40zM-1 52l18 -20l23 23q8 5 19 5q25 0 80 -40t54 -40q4 0 6 2q13 31 53 65t71 40q8 2 15.5 2.5t15.5 1.5q-5 15 -7.5 26t-3.5 18q-2 29 -2 89t1 151l2 7q20 19 34.5 34.5
l25.5 26.5l-17 20l-27 -27q-20 -6 -25 -6q-9 0 -15.5 2t-14 7t-18 13.5l-26.5 21.5q-27 21 -29 21t-17 -22l-17 -26q-10 -11 -30 -22.5t-34 -11.5q-35 0 -75 70v-324v-31q0 -11 -1 -15z" />
    <glyph glyph-name="ugrave" unicode="&#xf9;" horiz-adv-x="505" 
d="M437 429q-26 -17 -30 -23q-12 -17 -12 -51q-4 0 -1 -227q0 -62 32 -62q16 0 32 16q17 17 19 17q8 0 8 -17q0 -4 -51 -50q-50 -45 -54 -45q-11 0 -34 22q-22 19 -25 25q-13 33 -14 56q-1 1 -75 -52t-77 -53q-3 3 -9 10l-13.5 16t-17 17.5t-19.5 14.5q-13 7 -23 7
q-11 0 -28 -14q-20 -17 -23 -18q-9 19 -7 21q43 19 55 53q7 18 7 68v174q0 19 -0.5 31t-1.5 17q-6 28 -29 28q-9 0 -42 -39q-10 0 -10 7q0 -2 87 105q2 2 3.5 5t3.5 5q6 9 9 9q25 0 48 -33q24 -38 24 -85v-227v-6t1 -15v-28q8 -42 43 -57q4 -2 50 35l35 28.5l12 9.5v247
q0 12 -47 54l12 7l84 69q49 -58 66 -58q8 0 25 11q11 7 18 11t9 5q5 -6 6 -10q-20 -14 -32 -21.5t-14 -9.5zM140 595q-1 -3 -1 -10q0 -29 35 -29q10 0 155 -26l3 7l-143 79q-12 6 -21 6q-21 0 -28 -27z" />
    <glyph glyph-name="uacute" unicode="&#xfa;" horiz-adv-x="505" 
d="M437 429q-26 -17 -30 -23q-12 -17 -12 -51q-4 0 -1 -227q0 -62 32 -62q16 0 32 16q17 17 19 17q8 0 8 -17q0 -4 -51 -50q-50 -45 -54 -45q-11 0 -34 22q-22 19 -25 25q-13 33 -14 56q-1 1 -75 -52t-77 -53q-3 3 -9 10l-13.5 16t-17 17.5t-19.5 14.5q-13 7 -23 7
q-11 0 -28 -14q-20 -17 -23 -18q-9 19 -7 21q43 19 55 53q7 18 7 68v174q0 19 -0.5 31t-1.5 17q-6 28 -29 28q-9 0 -42 -39q-10 0 -10 7q0 -2 87 105q2 2 3.5 5t3.5 5q6 9 9 9q25 0 48 -33q24 -38 24 -85v-227v-6t1 -15v-28q8 -42 43 -57q4 -2 50 35l35 28.5l12 9.5v247
q0 12 -47 54l12 7l84 69q49 -58 66 -58q8 0 25 11q11 7 18 11t9 5q5 -6 6 -10q-20 -14 -32 -21.5t-14 -9.5zM345 595q1 -4 1 -11q0 -28 -34 -28q-11 0 -156 -26l-2 7l142 79q11 7 22 7q20 0 27 -28z" />
    <glyph glyph-name="ucircumflex" unicode="&#xfb;" horiz-adv-x="505" 
d="M437 429q-26 -17 -30 -23q-12 -17 -12 -51q-4 0 -1 -227q0 -62 32 -62q16 0 32 16q17 17 19 17q8 0 8 -17q0 -4 -51 -50q-50 -45 -54 -45q-11 0 -34 22q-22 19 -25 25q-13 33 -14 56q-1 1 -75 -52t-77 -53q-3 3 -9 10l-13.5 16t-17 17.5t-19.5 14.5q-13 7 -23 7
q-11 0 -28 -14q-20 -17 -23 -18q-9 19 -7 21q43 19 55 53q7 18 7 68v174q0 19 -0.5 31t-1.5 17q-6 28 -29 28q-9 0 -42 -39q-10 0 -10 7q0 -2 87 105q2 2 3.5 5t3.5 5q6 9 9 9q25 0 48 -33q24 -38 24 -85v-227v-6t1 -15v-28q8 -42 43 -57q4 -2 50 35l35 28.5l12 9.5v247
q0 12 -47 54l12 7l84 69q49 -58 66 -58q8 0 25 11q11 7 18 11t9 5q5 -6 6 -10q-20 -14 -32 -21.5t-14 -9.5zM121 525l120 48l122 -50l3 6l-128 102l-119 -100z" />
    <glyph glyph-name="udieresis" unicode="&#xfc;" horiz-adv-x="505" 
d="M437 429q-26 -17 -30 -23q-12 -17 -12 -51q-4 0 -1 -227q0 -62 32 -62q16 0 32 16q17 17 19 17q8 0 8 -17q0 -4 -51 -50q-50 -45 -54 -45q-11 0 -34 22q-22 19 -25 25q-13 33 -14 56q-1 1 -75 -52t-77 -53q-3 3 -9 10l-13.5 16t-17 17.5t-19.5 14.5q-13 7 -23 7
q-11 0 -28 -14q-20 -17 -23 -18q-9 19 -7 21q43 19 55 53q7 18 7 68v174q0 19 -0.5 31t-1.5 17q-6 28 -29 28q-9 0 -42 -39q-10 0 -10 7q0 -2 87 105q2 2 3.5 5t3.5 5q6 9 9 9q25 0 48 -33q24 -38 24 -85v-227v-6t1 -15v-28q8 -42 43 -57q4 -2 50 35l35 28.5l12 9.5v247
q0 12 -47 54l12 7l84 69q49 -58 66 -58q8 0 25 11q11 7 18 11t9 5q5 -6 6 -10q-20 -14 -32 -21.5t-14 -9.5zM269 568q0 -18 13 -31.5t31 -13.5q19 0 32 13t13 32t-13 32t-32 13t-31.5 -13t-12.5 -32zM129 568q0 -18 13 -31.5t31 -13.5q19 0 32 13t13 32t-13 32t-32 13
t-31.5 -13t-12.5 -32z" />
    <glyph glyph-name="yacute" unicode="&#xfd;" horiz-adv-x="462" 
d="M457 414l-5 10q-42 -16 -50 -16q-30 0 -85 84l-83 -60.5t-58 -39.5q0 41 -11 58q-33 39 -44 39q-4 0 -115 -87l8 -10q27 24 40 24q37 0 37 -80v-310q0 -15 -6 -25l-27 -22.5t-17 -17.5q-19 -25 -19 -55q0 -44 36 -75q38 -32 82 -32q48 0 92 42q2 2 17.5 21.5l44.5 56.5
q33 42 60 42q24 0 37.5 -17t13.5 -41q0 -36 -24.5 -59t-61.5 -23q-5 0 -11.5 4t-10.5 4q-2 0 -5.5 -6t-5.5 -7q24 -11 45 -11q45 0 70.5 29.5t24.5 77.5q0 18 -8.5 34t-22.5 27.5t-32.5 18t-39.5 5.5q-56 -1 -103 -41l-22 -22.5l-45 -48.5q-35 -38 -60 -38q-23 0 -37.5 18
t-14.5 42q0 34 33 63q30 26 67 33l49 6l49 6q54 7 95 33q17 11 30.5 33t13.5 41l-1 215q0 24 29 48q24 19 51 29zM299 368v-258q0 -15 -6.5 -28.5t-18 -24t-26 -17t-29.5 -8.5q-6 -1 -19.5 -5t-21.5 -4v350l69 46l30.5 -30zM325 585q1 -4 1 -11q0 -28 -34 -28
q-11 0 -156 -26l-2 7l142 79q11 7 22 7q20 0 27 -28z" />
    <glyph glyph-name="thorn" unicode="&#xfe;" horiz-adv-x="472" 
d="M456 435l-4 9q-46 -20 -49 -20q-9 0 -40 29q-30 30 -38 33l-140 -106l1.5 125t-0.5 48q-1 14 -9 34q-3 8 -25 30q-26 24 -35 24q-1 0 -30 -23q-32 -27 -45 -36l-22.5 -15l-18.5 -12q0 -4 4 -10t8 -6q2 0 20 15q19 15 28 15t16 -6.5t12 -16t8 -21.5t3 -23v-364
q-72 -33 -79 -76l-1.5 -6.5t-3.5 -20.5q-5 -28 -4 -29l14 -2q0 23 15 45t37 24q10 1 24 -6q1 -94 0.5 -143t-2.5 -56q-15 -65 -70 -101q-6 -4 11 -11l130 94q13 -4 21 -7.5t12 -5.5l27 -16q2 -4 5 7q-49 36 -49 107q-1 87 0 97q5 5 61 -40q67 84 158 102q-14 16 -14 36
q-1 87 -0.5 145t1.5 87q2 25 32 51q7 5 14.5 11t16.5 11zM310 77q-4 -2 -10.5 -8t-9.5 -6q-4 0 -103 63l1 237l41.5 29l33.5 24l47 -38v-301z" />
    <glyph glyph-name="ydieresis" unicode="&#xff;" horiz-adv-x="462" 
d="M457 414l-5 10q-42 -16 -50 -16q-30 0 -85 84l-83 -60.5t-58 -39.5q0 41 -11 58q-33 39 -44 39q-4 0 -115 -87l8 -10q27 24 40 24q37 0 37 -80v-310q0 -15 -6 -25l-27 -22.5t-17 -17.5q-19 -25 -19 -55q0 -44 36 -75q38 -32 82 -32q48 0 92 42q2 2 17.5 21.5l44.5 56.5
q33 42 60 42q24 0 37.5 -17t13.5 -41q0 -36 -24.5 -59t-61.5 -23q-5 0 -11.5 4t-10.5 4q-2 0 -5.5 -6t-5.5 -7q24 -11 45 -11q45 0 70.5 29.5t24.5 77.5q0 18 -8.5 34t-22.5 27.5t-32.5 18t-39.5 5.5q-56 -1 -103 -41l-22 -22.5l-45 -48.5q-35 -38 -60 -38q-23 0 -37.5 18
t-14.5 42q0 34 33 63q30 26 67 33l49 6l49 6q54 7 95 33q17 11 30.5 33t13.5 41l-1 215q0 24 29 48q24 19 51 29zM299 368v-258q0 -15 -6.5 -28.5t-18 -24t-26 -17t-29.5 -8.5q-6 -1 -19.5 -5t-21.5 -4v350l69 46l30.5 -30zM259 568q0 -18 13 -31.5t31 -13.5q19 0 32 13
t13 32t-13 32t-32 13t-31.5 -13t-12.5 -32zM119 568q0 -18 13 -31.5t31 -13.5q19 0 32 13t13 32t-13 32t-32 13t-31.5 -13t-12.5 -32z" />
    <glyph glyph-name="longs" unicode="&#xe000;" horiz-adv-x="273" 
d="M132 -188q0 100 15 297q15 199 15 301v206q1 3 15 12q12 10 14 8l47 -55q-6 -14 -10.5 -23.5t-6.5 -14.5q2 0 7 -6.5t5 -5.5q17 37 45.5 70t67.5 64v9q-2 1 -9 3q-38 -32 -39 -32q-6 0 -30 32q-23 32 -27 28q-57 -57 -125 -88q-39 -19 -97 -17q-11 0 -11 1v-18h38
q23 0 26 -12l2 -20l2 -21v-55q-2 -3 -74 0l1 -63q74 3 76 1q-2 -51 1.5 -120.5t12.5 -157.5q10 -96 14.5 -162.5t4.5 -106.5v-27q0 -14 -1 -27q1 -1 11 -1q9 0 10 1z" />
    <glyph glyph-name="Delta" unicode="&#xe001;" horiz-adv-x="612" 
d="M599 0l-280 677l-306 -677h586zM483 40h-409l215 472z" />
    <glyph glyph-name="Omega" unicode="&#xe002;" horiz-adv-x="740" 
d="M28 153v-153h273l-11 147q-44 17 -71 47q-54 61 -54 193q0 76 29 137q57 117 175 117q100 0 157 -83q49 -73 49 -178q0 -193 -126 -233l-11 -147h273v153h-17q-3 -36 -21.5 -49t-55.5 -13h-135v33q100 27 156.5 96t56.5 171q0 131 -98 211q-92 75 -225 75
q-135 0 -227 -76q-100 -81 -100 -212q0 -119 81 -195q63 -57 131 -70v-33h-132q-39 0 -55 11q-22 16 -25 51h-17z" />
    <glyph glyph-name="pi" unicode="&#xe003;" horiz-adv-x="531" 
d="M491 447h-311q-51 0 -73 -9q-57 -23 -86 -131h18q23 38 40 51q24 18 62 18h14q-10 -141 -12 -154q-12 -88 -41 -129l-18 -27t-9 -14q-5 -13 -5 -25q0 -18 13 -29.5t31 -11.5q12 0 23 9q21 16 30 52q23 82 31 180l11 149h115q-2 -14 -5.5 -44.5t-7.5 -76.5q-6 -57 -6 -100
q0 -169 86 -169q84 0 100 136h-17q-6 -54 -54 -54q-61 0 -61 84q0 54 4.5 109.5t14.5 114.5h113v71z" />
    <glyph glyph-name="partialdiff" unicode="&#xe004;" horiz-adv-x="490" 
d="M452 350q-14 28 -27 41q-51 52 -126 52q-108 0 -189 -89t-81 -206q0 -76 45 -119.5t121 -43.5q129 0 214 154q75 136 75 310q0 90 -26 144q-48 101 -153 101q-68 0 -115 -43q-37 -34 -71 -104h23q54 78 147 78q81 0 125 -50t44 -134q0 -36 -6 -91zM443 307
q-35 -151 -113 -231q-63 -63 -123 -63q-47 0 -73 35q-22 31 -22 80q0 77 31 152q56 137 160 137q102 0 140 -110z" />
    <glyph glyph-name="product" unicode="&#xe005;" horiz-adv-x="823" 
d="M605 702v-707q0 -42 -18.5 -59t-60.5 -17h-17v-19h292v19q-52 0 -71 12q-25 16 -25 64v651q0 42 18.5 59t60.5 17h17v18h-779v-18h18q42 0 60.5 -17t18.5 -59v-651q0 -42 -18.5 -59t-60.5 -17h-18v-19h292v19q-52 0 -71 12q-26 17 -26 64v707h388z" />
    <glyph glyph-name="summation" unicode="&#xe006;" horiz-adv-x="708" 
d="M660 -100l31 203l-20 3q-12 -50 -30 -74q-36 -46 -121 -46h-399l307 380l-275 335h362q107 0 121 -125h20l-13 165h-624v-18l326 -399l-326 -406v-18h641z" />
    <glyph glyph-name="radical" unicode="&#xe007;" horiz-adv-x="552" 
d="M514 913l-127 -794l-198 402l-147 -74l17 -31l97 44l242 -498l152 951h-36z" />
    <glyph glyph-name="infinity" unicode="&#xe008;" horiz-adv-x="708" 
d="M317 326q-29 54 -56 79q-36 33 -87 33q-69 0 -111 -57q-39 -53 -39 -123q0 -76 46 -128t121 -52q100 0 159 114q20 -34 36 -57t29 -37q43 -46 99 -46q76 0 125 67q46 61 46 138q0 86 -51 143q-52 61 -136 61q-71 0 -114 -35q-35 -27 -67 -100zM364 227q38 102 51 124
q37 72 104 72q60 0 101 -54q37 -49 37 -112q0 -68 -36 -111q-39 -48 -105 -48q-55 0 -95 39q-29 28 -57 90zM303 288q-34 -103 -58 -130q-35 -42 -82 -42q-52 0 -84 47q-28 40 -28 96q0 28 8.5 52.5t24 42.5t38 28.5t50.5 10.5q84 0 131 -105z" />
    <glyph glyph-name="integral" unicode="&#xe009;" horiz-adv-x="271" 
d="M96 437q-1 -55 6 -215q2 -48 5.5 -89t7.5 -76q2 -19 3 -33t1 -25q0 -30 -19 -30q-8 0 -24 16q-17 15 -34 15q-43 0 -43 -48q0 -26 15.5 -42.5t41.5 -16.5q46 0 75 47q31 51 36 212q6 223 6 256q0 121 -18 324q-2 25 -3 42.5t-1 28.5q0 31 19 31q10 0 20 -10
q20 -17 37 -17q21 0 33 14.5t12 35.5q0 22 -19.5 37.5t-41.5 15.5q-42 0 -68 -38q-35 -50 -38 -151z" />
    <glyph glyph-name="approxequal" unicode="&#xe00a;" horiz-adv-x="667" 
d="M571 535q-11 -87 -84 -87q-19 0 -32 4t-30 10t-40 16q-87 37 -134 51q-22 7 -53 7q-66 0 -101 -53q-27 -42 -32 -115h31q16 87 84 87q31 0 101 -29l60.5 -26.5t28.5 -11.5q58 -20 95 -20q66 0 103 52q32 46 34 115h-31zM571 287q-10 -88 -84 -88q-19 0 -31 4
q-13 3 -30.5 9.5t-40.5 16.5q-83 37 -134 51q-25 7 -54 7q-65 0 -100 -53q-27 -42 -32 -114h31q15 86 84 86q29 0 101 -29q135 -58 184 -58q65 0 103 53q32 46 34 115h-31z" />
    <glyph glyph-name="notequal" unicode="&#xe00b;" horiz-adv-x="667" 
d="M63 490v-91h258l-55 -141h-203v-90h168l-101 -257h77l102 257h293v90h-258l55 141h203v91h-167l99 257h-77l-101 -257h-293z" />
    <glyph glyph-name="lessequal" unicode="&#xe00c;" horiz-adv-x="667" 
d="M603 161v98l-416 168l416 169v97l-539 -225v-82zM63 54v-91h540v91h-540z" />
    <glyph glyph-name="greaterequal" unicode="&#xe00d;" horiz-adv-x="667" 
d="M64 693v-98l415 -168l-415 -169v-97l539 225v82zM63 54v-91h540v91h-540z" />
    <glyph glyph-name="lozenge" unicode="&#xe00e;" horiz-adv-x="494" 
d="M246 737l-217 -374l217 -384l217 384zM246 607l142 -244l-142 -255l-142 255z" />
    <glyph glyph-name="DST" unicode="&#xe00f;" horiz-adv-x="1448" 
d="M1426 -39v839h-1404v-839h1404zM1401 562q0 -29 -22 -50t-51 -21h-146q-35 0 -35 -45v-302q0 -30 19 -42v-56q-72 16 -72 86v322q0 96 115 96q16 0 48 -3q17 -1 29 -1.5t20 -0.5q40 0 40 21q0 19 -41 19q-8 0 -20 -0.5t-28 -1.5t-27.5 -1.5t-19.5 -0.5q-116 0 -116 88
v131h57v-131q0 -35 37 -35h148q27 0 46 -21t19 -51zM1014 136q0 -39 -23.5 -63.5t-62.5 -24.5h-282q-30 0 -50 20t-20 50q0 31 18 52t47 21h279v-53h-270q-20 0 -20 -18q0 -21 22 -21h250q61 0 61 45v76q0 45 -45 45h-250q-42 0 -67 25t-25 67v89q0 45 26.5 73.5t71.5 28.5
h246q76 0 89 -76h-50q-20 21 -43 21h-244q-41 0 -41 -43v-95q0 -37 41 -37h246q45 0 70.5 -23t25.5 -65v-94zM507 800l-1 -684q0 -30 -21.5 -52t-51.5 -22q-32 0 -52 22t-20 55q0 68 -0.5 110t-1.5 59q-2 9 -87 93l-95 93q-14 14 -27 14q-10 0 -17 -6q-8 -26 -8 -32v-310
q0 -43 35 -43h81q13 6 25 21h53q-14 -72 -77 -72h-82q-88 0 -88 96v330q0 31 26 51q23 17 56 17t52 -19l179 -177q31 -31 31 -75v-151q0 -21 19 -21q6 0 12 7.5t6 13.5l-2 682h56z" />
  </font>
</defs>
</svg>
